/* XPM */
static char *result[] = {
/* columns rows colors chars-per-pixel */
"65 64 227 2 ",
"   c #000001",
".  c #000A00",
"X  c #00010C",
"o  c #000D0E",
"O  c #001700",
"+  c #000313",
"@  c #010817",
"#  c #030B1B",
"$  c #040819",
"%  c #181818",
"&  c #003100",
"*  c #070F20",
"=  c #080F20",
"-  c #0C1324",
";  c #0F1825",
":  c #101C27",
">  c #101728",
",  c #121A2A",
"<  c #141A38",
"1  c #0F2D22",
"2  c #132527",
"3  c #282E3A",
"4  c #349718",
"5  c #359B18",
"6  c #399D1A",
"7  c #37A218",
"8  c #3AA319",
"9  c #3CAB19",
"0  c #3DB319",
"q  c #3EBB19",
"w  c #3E9E21",
"e  c #42A51B",
"r  c #44AC1C",
"t  c #4AAB1C",
"y  c #51AE1D",
"u  c #43B51B",
"i  c #4CB31D",
"p  c #44BB1B",
"a  c #4BBB1D",
"s  c #55B91F",
"d  c #449F28",
"f  c #44A523",
"g  c #49A523",
"h  c #48A925",
"j  c #50AE2C",
"k  c #4DB526",
"l  c #4DBB21",
"z  c #55BD23",
"x  c #5BBE22",
"c  c #57B928",
"v  c #52AB35",
"b  c #59B936",
"n  c #67B929",
"m  c #64BC3D",
"M  c #3FC219",
"N  c #42C41A",
"B  c #4AC31C",
"V  c #43CC1A",
"C  c #4CCA1D",
"Z  c #53C31F",
"A  c #52CE1E",
"S  c #45D319",
"D  c #4BD41B",
"F  c #46DB19",
"G  c #4CDB1B",
"H  c #52D41E",
"J  c #5AD61F",
"K  c #54DC1E",
"L  c #47E119",
"P  c #49E519",
"I  c #4FE81B",
"U  c #52E51C",
"Y  c #59E41F",
"T  c #53E91D",
"R  c #5BEB1F",
"E  c #4CC322",
"W  c #53C323",
"Q  c #5CC322",
"!  c #5CCB22",
"~  c #59C42D",
"^  c #5BD922",
"/  c #53D62A",
"(  c #5BC931",
")  c #61CC23",
"_  c #69CA28",
"`  c #74CC24",
"'  c #65D324",
"]  c #6AD628",
"[  c #73DC26",
"{  c #74DF2D",
"}  c #69C836",
"|  c #6BD434",
" . c #75D937",
".. c #52E623",
"X. c #5BE421",
"o. c #5DEC21",
"O. c #5BE927",
"+. c #5AE72D",
"@. c #5FE832",
"#. c #67E626",
"$. c #61EF21",
"%. c #6BEE23",
"&. c #6AED2B",
"*. c #73EC24",
"=. c #78E629",
"-. c #7DEB2B",
";. c #65F022",
":. c #6CF124",
">. c #66F029",
",. c #73F225",
"<. c #7BF326",
"1. c #75F129",
"2. c #7DF329",
"3. c #6DED32",
"4. c #6AE838",
"5. c #78EA36",
"6. c #6DF033",
"7. c #75F136",
"8. c #79F13A",
"9. c #65B646",
"0. c #79D04E",
"q. c #7CEB44",
"w. c #77EB4A",
"e. c #7EEF50",
"r. c #86DA27",
"t. c #8BD837",
"y. c #88E328",
"u. c #83EC2A",
"i. c #91E62B",
"p. c #83F426",
"a. c #84F52A",
"s. c #8EF729",
"d. c #8CF72B",
"f. c #91F72A",
"g. c #9BF22B",
"h. c #93F82C",
"j. c #9CFA2C",
"k. c #84EE33",
"l. c #97E635",
"z. c #87F237",
"x. c #8DF632",
"c. c #92F634",
"v. c #9BF734",
"b. c #9BF834",
"n. c #94F43D",
"m. c #9AF63C",
"M. c #A3F32D",
"N. c #A4FB2D",
"B. c #ABFC2E",
"V. c #B2FE2F",
"C. c #A4FA34",
"Z. c #ADFB33",
"A. c #A5F83A",
"S. c #ABFA3A",
"D. c #B3FD32",
"F. c #B6FC3C",
"G. c #C0FE3D",
"H. c #89D957",
"J. c #83ED49",
"K. c #88F146",
"L. c #9AF645",
"P. c #99F349",
"I. c #9FF84C",
"U. c #87ED57",
"Y. c #92EE51",
"T. c #8CF259",
"R. c #97F354",
"E. c #A8F747",
"W. c #B6FC44",
"Q. c #BAFD42",
"!. c #BBFC4A",
"~. c #A4F855",
"^. c #A9F759",
"/. c #B7F956",
"(. c #87CC66",
"). c #96D774",
"_. c #8BE560",
"`. c #95ED67",
"'. c #8EF162",
"]. c #96F268",
"[. c #9CF175",
"{. c #A5EE6A",
"}. c #AAF667",
"|. c #B6F868",
" X c #A6ED79",
".X c #A6F379",
"XX c #ABF37C",
"oX c #B7F878",
"OX c #C6FE42",
"+X c #C3FE5B",
"@X c #D9FE54",
"#X c #E0FE5B",
"$X c #C5FD62",
"%X c #C7FC6A",
"&X c #D6FC62",
"*X c #C9FB7A",
"=X c #D2FD79",
"-X c #ADDB93",
";X c #AFEF8F",
":X c #A8F485",
">X c #BBF883",
",X c #B2F78C",
"<X c #B6E59A",
"1X c #BDF597",
"2X c #BFF1A5",
"3X c #C7F98B",
"4X c #D5FD89",
"5X c #C5F894",
"6X c #DAFC99",
"7X c #E2FD8A",
"8X c #E4FD97",
"9X c #C8F5A6",
"0X c #D6F8AA",
"qX c #CBEFB3",
"wX c #D1F5B3",
"eX c #D7F8B9",
"rX c #E6FDA8",
"tX c #E4FBB9",
"yX c #D9F3C5",
"uX c #DCFAC2",
"iX c #E6FBC7",
"pX c #E2F6CE",
"aX c #E6F8D6",
"sX c #EBFBD3",
"dX c #EFFCDC",
"fX c #F0FDDC",
"gX c #F0F6EB",
/* pixels */
"                                                                                                                                  ",
"+ X         O                                     &.;.;.;.;.;.;.;.;.;.;.;.;.          .             X + X                       X ",
"@ + X                                   .   5X7.:.:.d.d.a.c.E.h.d.d.d.d.d.d.a.a.a.1.:.;.;.T.qX      + + X   X     O   . .       X ",
"# # + + X X                           aX2XU.U.x.d.d.d.~.x.|.tX$X~.x.a.2.2.d.R &.<.a.z.a.a.,.:.:.XXX + + @ X X         . O       + ",
"- - # # X X                           `.,.K.>XE.d.d.c.3Xc.oXtXfXuX>XY.>.;.<.e.O.I $.R ;.2.d.d.d.d.N.0X@ @ @ + X           X X   + ",
"# = - # @ X                     .   '.:.<.,.:.:.a.d.d.d.a.z.^.,X,X>X.X6.$.$.:X3.$.$.R O.&.-.R.n.d.d.j.0X= # @ +       X   X + X + ",
"# # # # @ + +                   . '.R o.R.w.P P ;.,.,.p.h.p.s.p.d.b.d.].XXT.,.;.$.$.$.&.&.+.`.E.d.d.d.V.3XeX# + X     + X   + + + ",
"# # # # + + X                 yX'.R I P w.[.6...I T :.<.,.,.<.p.L.*XL.~.oXR.d.,.$.T o.:.;.o.3.c.S.C.d.j.j.P..X9X+ X   X + + # + @ ",
"# + + + X X     +           '.e.$.O.P P I w.+.I P R p.s.,.,.%.R O.w.+.R R d.d.d.,.R P R I :.:.a.4Xb.h.d.d.a.:.7.].wX  X + @ # $ @ ",
"+ + +         X + X   X T.e.$.6..X9X9X`...P P P P <.:.%.:.<.h.N.d.:.T P P T :.R K D L P I ;.:.a.I.b.Z.h.d.d.s.<.:.8.  X # # # # # ",
"X             + X + '.q.q.wX$.&..XdX;X+.I P P P R I P R s.P A t t 9 8 8 8 g.| L 8 5 7 8 M I R %.a.d.,.eX0Xa.R p.d.m.!.tX* # # - # ",
"    X   +     + + ].$.$.;.6.$.$.O.+...P P P 1.I I I P P G 6 5 4 4 4 4 ( -.h 6 5 5 4 4 5 6 9 S P I wXiXQ.&Xa.;.I %.d.h.~.* - # - = ",
"  + o X X   + @ ].$.$.$.$.$.R T P P P P *.R N 7 } P P S 5 4 4 4 4 4 4 4 4  .d. .4 4 4 4 4 4 4 5 F P x.B.D.h.h.s.P %.d.d.1X- - - ; ",
"X + o + X X +  X>.$.$.$.$.$.T P P P ..O.U 0 | ;.L L u 5 4 5 5 6 _ N.z.m m Z.D.V.u.5 5 4 4 4 4 4 4 F 4.d.d.B.d.}.rXn.*.d.j.- - - > ",
"+ + X + X @ ,X>.$.6.7.;.$.T P P P e.uX(.7 V P T R P L S 5 t ' M.M.M.B. .} a.Z.N.p.=.P V 8 5 4 4 4 4 4 M.Z.h.d.h.F.OXN.d.d.E.> > > ",
"+ + + + + + ].<.<.1X9X>.P I T P P P :.%.I P P P S S 9 4 y i.Q 4 5 J :.%.^ X.o.$.Y a &.U P N 8 7 8 5 4 4 M.D.d.2.,.B.D.j.d.N.1 : > ",
"X @ @ + @ XX,.d.d.d.d.R P $.T T P T %.:.R P P S 6 5 4 4 5 8 6 9 p =.f.5.a V $.$.$.$.o.:.%.I D V L p 4 5  .!.h.2.$.d.B.j.s.d.K.> > ",
"# * @ $ 4XM.R.|.L.d.p.T T ;.z.<.T %.I I P P P 0 c 6 4 4 8 5 9 ^ $.$.,.2.;.$.$.$.$.$.$.;.o.%.T V S P 0 4 6 k.j.u.%.d.a.h.h.d.d.yX> ",
"* # # uXj.S.%X3XI.<.o.P $.<.<.:.%.*.P P P P M 0 M.8 6 z Q f 9 E C C C C C C C $.o.$.$.o.R 2.&.$.K L S 4 5 _ d.<.o.p.*.<.f.d.d.^.> ",
"# # - oX2.W.b.d.d.$.P ..:.,.,.T ,.I P P P P N ) ` c j z Q f 4 4 9 p 7 4 x ` ` s.2.$.$.K B  .E.a.<.L [ 5 4 r <.%.P %.p.<.a.f.P.D.> ",
"- - sXC.R.=Xm.d.%.I P o.o.<.$.%.R P L L P I %.) 6 g g 4 4 4 4 4 7 q 5 4 s t.V.j.s.$.$.U 9 f l.2.a.T ,.' 4 8 J o.P %.j.N.f.d.P.C.> ",
"; ; aXh.8.I.d.d.o.P [..XL o.U 2.L P P P I ,.' t 5 4 4 4 4 4 4 4 4 4 4 4 4 g s s ' s.,.$.N 4 s *.,.,.*.B.4 4 u T I :.<.d.N.f.d.d.> ",
"; > eXa.a.d.d.d.o.P wXiX9X9 R T P P L S u y.Z e 5 4 4 8 K K K p 4 4 4 4 4 4 4 4 6 s ] p.^ 0 6 ^ $.a.N.B.4 r ] P T $.,.a.h.d.d.d.> ",
"> > ^.,.h.d.d.d.;.I j pXfX5 P P P P P N ) M.M.t 4 5 V K $.Y p 5 4 4 4 4 4 4 4 4 4 5 7 Z o.a 4 ^ ,.a.) V.e ] | q P T <.:.a.d.d.d.> ",
"> gX1X&.z.d.d.d.a.T 8 uXfXwXP P P L S ' Z e e 4 4 F I =.=.5 5 4 4 4 4 4 4 4 4 4 4 4 4 9 H B 6 0 -.d.6 5.k G S 7 V T <.;.<.d.d.j.; ",
"> gXU.$.,.d.d.d.d.R L k.P B.P P P F ' Z C u 4 4 u P P u.6 4 4 4 4 4 4 4 4 4 4 4 4 4 4 s d.,.u 4 =.D.a 5 ( L S 6 N P *.2.s.d.d.d., ",
"> dXM.,.d.b.5XfX}.R P P P d.P P S ! ' A C 8 S P P P F 8 4 4 4 4 4 4 4 4 5 5 5 7 7 5 5 s a.#.p 4 J d.P 5 9 L S 0 P P %.:.p.d.c.c., ",
"> pXj.<.d.c.>XtX+X;.T R P L P F r 7 7 B U P P P P L z { 4 4 4 4 4 4 4 4 4 R R $.;.T V z 1.o.D 8 N 2.I 4 6 F S q P P %.,.p.~.eX4X, ",
"> {.j.:.d.,.;.<.W.z.d.G %.N L M 4 4 5 7 C P P P P U 5.} 4 5 e 5 4 4 4 6 5 S D K R Y V W / X.;.r 9 J U 4 4 0 P F E } 5.p.a.d.d.d., ",
"> n.<.,.d.d.a.N.*X[.Z.e D.S V 4 4 4 0 u V P P P P a.' 4 5 h _ 8 5 9 q 9 9 7 4 7 P V N N N $.1.i a 6 o.4 6 V P M 4 9.%XB.h.~.b.d.> ",
"> d.$.2.j.B.V.D.D.,.N.Z l.N 8 4 4 4 4 e S L P P %.d.4 4 e ` x 4 9 G R l 5 4 4 5 S 5 q V z k.,.! =.6 %.4 7 S P S 0 ( A.f.d.>XS.m.> ",
"> %.%.j.D.V.V.+X!.,.F.k.k 4 4 4 4 4 4 s X.L P P a.] 4 4 y r.4 e K T <.-.u q s 5 N 0 7 0 ~ x.a.d.d.B d.4 4 0 P L I :.N.s.a.d.h.L., ",
"; $.,.V.V.V.V.+XW.}.8X} 4 4 4 4 4 8 q _ ;.P P P d.8 4 6 _ i.u K R %.a.k.=.<.J N V *.s 4 Q S.A.f.<.R d.4 5 u S N R 2.h.,.x.c.d.f.> ",
"> ;.:.D.V.V.V.V.C.}.(.6 4 4 4 4 4 u D ] o.P P P :.5 4 e v.u.=.$.o.R 1.x #.s 0 *.,.d.[ 8 H.5X^.oX3.o.%.' V S S 0 %.p.,.;.K.c.d.d.> ",
"> ,.8.4XG.V.V.V.Z.f.h 4 4 4 4 4 4 0 G H I P P P I 4 4 e p.%.<.$.$.I o.9 N p 4 Z Y Y a z  X4X3X1X@.$.R a.<.P S l p.1.a.j.C.W.F.d.> ",
"> 1.;.K.Z.V.V.V.V.#.8 f 4 4 4 4 4 9 V L P P P P N 4 4 8 ;.$.;.H H R I V 7 7 S S N 8 a =.S.4XiXU.o.I P d.a.P O.{ a.&.h.j.B.@X@Xf., ",
"> :.j.d.j.V.F.8XiXq.8 5 4 4 4 4 4 8 S P P P L P u 4 4 8 <.R T K 0 H o.o.p 4 7 7 8 G Y 1.,XoX7.o.o.P 1.d.T ^ a -.R %.2.}.&X#XS.d., ",
"> N.,.N.j.+XrXsX7XtXaXg 4 4 4 4 4 0 L P P P P T 8 4 4 e j.*.T ;.o.p N T R R Y $.Y #. X0XH.c ^ o.I P a. .9 7 0 P *.B.j.C.F.@X0Xc., ",
"; B.,.N.j.V.V.4XsXdXsXf aX4 4 4 4 0 P P P P P o.6 4 4 4 y g.P T $.o.$.$.;.o.;.&.dXiX}.[ 5 M L P q -.d.4 4 8 P P %.oXoXd.N.OXtXx., ",
"2 N.<.F.V.D.D.j.d.o.L 6 4 4 4 4 4 8 V q 4 V P o.C 6 4 4 t B.B.1.p.j.:.$.$.$.%.$.$.$.<.p.L F q V 9 -.k 5 4 9 P :.a.R P &.b.h.d.f.> ",
"1 S.1.d.h.|.=Xj.d.o.S 7 4 4 4 4 4 9 D 0 5 V P R $.$.4 4 4 z Z.M.*.$.o.;.;.a.d.Y Y K S V 8 4 4 6 =.| 6 4 9 o.:.j.p.T o./.rX!.h.V.> ",
"-  X:.h.B.D.V.j.d.K.h 5 6 9.w 4 4 u K 9 4 N L ;.$.$.9 4 4 6 _ g.B.b.<.,.k.D.N.B r 9 7 4 4 4 e | } 6 4 5 R :.h.h.,.m.$X6X$Xc.h.D.> ",
">  X%.f.B.V.N.h.d.XX( 5 9 -Xh 4 4 0 X.B 5 9 S p.,.$.o.8 4 4 4 Z d.%X=X%X4X%X<.$.o.H q 5 8 k ' ! 7 4 4 u ;.p.a.a.L.3X0X~.d.d.d.< > ",
"> 9Xa.2.j.D.j.d.d.R P 9 4 4 4 4 4 9 H K 9 5 S a.d.:.o.C 0 9 4 9 C _.,X1XwXdXq.$.Y p p p W =.Z B 7 9 4 ;.;.a.k./.8X8X/.d.d.d.> , > ",
"> > j.:.j.D.j.d.d.<.T 0 4 4 4 4 4 8 ! :.H u T ,.d.d.,.,.$.S N r 5 u C ^ J..XJ.$.$.$.;.R Y X.H N 7 0 M $.o.%.5./.|.S.h.d.d.> > > > ",
"> > a.;.P.4X%XS.h.d.R 9 4 M 4 4 4 5 Z #.X.o.o.o.,.d.d.d.a.;.K A C B B U o.o.;.o.R ;.$.$.$.K B u 5 4 X.$.o.o.1.,.d.d.h.d.> > - - > ",
"> > T.$.z.6XiXrX/.h.%.V 4 V u 4 4 4 z ! B R $.;.o.,.d.d.s.a.*.' a u u u l k 0 u p C u u u 9 6 4 5 5 o.d.u B <.%.d.d., > > - * * - ",
"> > , $.:.m.$X$XF.B.a.R V 8 V N 4 4 r ] a 0.6.o.$.o.,.d.k._ i ) =.[ [ [ H.b H [ [ =.[ [ s 5 4 4 8 C T s 4 p o.,.j.d.> - > - * * = ",
"> > > K.$.:.%.,.j.V.h.a.X.F F q 4 4 5 ) u.c E o.o.$.$.;.$.{ c 6 t t [ d.7.#.$.k.} Z r t e 4 8 A G 9 P 4 m ;Xo.,.d.d.- - - - # # = ",
"> , , , <.R $.$.p.s.d.n.uXa.yX<X4 4 4 7 [ Q 8 ^ o.$.o.$.R ;.^ 8 4 4 8 e 8 8 6 6 w 5 5 C Y Y T u 8 5 6 5 qXeX%.2.d.- = - - - # # # ",
"> , , > > J.;.:XiX~.d.x.c.d.n.k.L L M 4 5 5 4 5 o.o.6 9 F u 8 / o.X.N 6 4 r X.$.$.$.T V 7 5 5 V 8 4 4 5 k q.$.$.- - # # # # # @ @ ",
"> > > > > ; [.&.5X~.d.d.d.d.d.I.sXdX8Xt.7 4 4 qXd L R S 5 4 5 4 5 9 ^ $.o.4. XY 5 4 4 5 5 e S 9 4 5 4 K $.$.1.m.# # # @ # @ @ @ $ ",
"- - > > > > 3 :X..P <.a.d.d.d.x.L.d.d.,.I k d 6 4 4 6 X.o.+.+.M 6 6 4 7 5 7 5 3.u.~ N L F 0 h ).j u.d.d.d.d.a.# # @ @ @ # ; # X # ",
"# # - - > > , > ].T o.$.d.d.b.d.a.a.a.;.X.,XeX8.8 6 v 5 b qX).N S E v D P P P L S S / ~ d 5 e r r a.d.d.2.q.* # + + + @ # # @ + + ",
"# = - - > > > , : 6.I o.2.a.W.<.;.$.o.I P ..7.'.0.(.qX8 4 4 4 g f 0.<X| S S S u 5 4 9.-X9.h ] u.m.f.d.a.6.- * # X + + @ + @ + + + ",
"# # # - - > > , , , 1.I R o.$.$.;.T P P P T U.1X1X2X`.H u 9 5 n m 9.v 9 9 5 4 4 4 4 4 g c c _ -.Q.h.2.= # * * # @ X + + + + @ + X ",
"@ + # > = = - > > , > 1.o.U T R R U O.e.@.L R $.$.$.$.q.'.X.B 9 4 u l P X.) Q s x m a  .k.n.v.a.h.d.- # # # # @ + + + + + + + + X ",
"+ + @ # # # = > > > > > f.1.*.T R R +.U.4.P U $.$.$.3.1X].$.J.w.N K U..Xn.oX>X>XoX{.1.p.,.*.a.h.Z.# * # # # # @ + + + + + + + +   ",
"+ + + + @ @ # > > > < > > > L.p.s.p.$.U L L P P o.$.&.].$.$.].:XI $.5XwX3XsXfXfXiX0X5X5X5XoXL.N.@ # # # @ @ @ + + X + + X + X     ",
"+ X + $ # # = > > , < > > > > ; *XN.g.1.T w.w.I I T I X.T ..4.q.,.2.R.J.}.sXfXfXfXfXdXdXiX>XC.@ @ @ # # + + + + X     X X X       ",
"X X + @ = - - > > , , > > > > > > > 3Xn.p.m.z.o.o.o.T P U &.<.p.d.d.z.1X7.T.~.^.oXeX9X|./.F.* @ + + + # + + X X X       X         ",
"    + + # = > > > > , > > > > > > > > > pX|.C.N.j.N.N.j.h.C.B.B.B.B.S.!.b.j.j.j.S.W.F.Z.*X@ # + + + + + + + + X                   ",
"  + + + # = - = > > > > > > > > > > > , , > > fXwX/.V.V.V.V.B.B.V.V.V.V.V.V.V.V.D.|.eX@ @ + + @ + + X + X   X X +                 ",
"+ # 2 # # = = > ; , > > > > > > > > > > > > > ; - > ; ; > > > > > > > > > > > > > > * # @ + + X +   X + X       +   . &     % .   "
};
