/* XPM */
static char *result[] = {
/* columns rows colors chars-per-pixel */
"64 67 193 2 ",
"   c #000000",
".  c #0A0304",
"X  c #0A0B05",
"o  c #0D0309",
"O  c #0C0A0A",
"+  c #04060C",
"@  c #120504",
"#  c #180605",
"$  c #12030C",
"%  c #1A030D",
"&  c #150D0D",
"*  c #1C0E0E",
"=  c #1A0B07",
"-  c #0C1509",
";  c #131D0B",
":  c #17170B",
">  c #100B10",
",  c #1A0912",
"<  c #1D0817",
"1  c #0B1B18",
"2  c #141414",
"3  c #1D1414",
"4  c #1C1B1D",
"5  c #101019",
"6  c #080B13",
"7  c #230003",
"8  c #28050A",
"9  c #35000D",
"0  c #320D0C",
"q  c #220615",
"w  c #200A17",
"e  c #250A1B",
"r  c #2B0B1D",
"t  c #24061A",
"y  c #330011",
"u  c #320A1E",
"i  c #241313",
"p  c #271818",
"a  c #2B1919",
"s  c #291616",
"d  c #311A1A",
"f  c #17250E",
"g  c #19251A",
"h  c #292F15",
"j  c #1B1B38",
"k  c #15152A",
"l  c #2D0C23",
"z  c #340D24",
"x  c #350D29",
"c  c #3C0F2B",
"v  c #211F21",
"b  c #3C112C",
"n  c #351127",
"m  c #3F0D34",
"M  c #122F27",
"N  c #252427",
"B  c #2A2A2C",
"V  c #312222",
"C  c #3B2222",
"Z  c #332B35",
"A  c #343537",
"S  c #272632",
"D  c #440011",
"F  c #4A1811",
"G  c #431B0E",
"H  c #462011",
"J  c #41102D",
"K  c #4A1435",
"L  c #4E143A",
"P  c #451631",
"I  c #52153B",
"U  c #54193C",
"Y  c #571337",
"T  c #480E2D",
"R  c #442525",
"E  c #452C2C",
"W  c #4C2D2D",
"Q  c #482727",
"!  c #4D3131",
"~  c #553333",
"^  c #2D401A",
"/  c #385425",
"(  c #3D5C27",
")  c #284634",
"_  c #2D5030",
"`  c #4F542A",
"'  c #526F2E",
"]  c #4C6F31",
"[  c #446431",
"{  c #507333",
"}  c #7B7B37",
"|  c #67672F",
" . c #1C2541",
".. c #25254C",
"X. c #36366C",
"o. c #3A3A7B",
"O. c #5A1743",
"+. c #541A40",
"@. c #591A40",
"#. c #6A1C4A",
"$. c #641A4A",
"%. c #6A1C52",
"&. c #751B59",
"*. c #453945",
"=. c #682050",
"-. c #742055",
";. c #7B265C",
":. c #68214C",
">. c #7B2560",
",. c #3A4747",
"<. c #356D51",
"1. c #4A414D",
"2. c #444444",
"3. c #535753",
"4. c #417A5F",
"5. c #7C7B4F",
"6. c #5D5566",
"7. c #665566",
"8. c #717976",
"9. c #81235C",
"0. c #831F60",
"q. c #852563",
"w. c #8C2767",
"e. c #93296D",
"r. c #92246E",
"t. c #992C73",
"y. c #992B76",
"u. c #9C3179",
"i. c #8F2972",
"p. c #A22B7C",
"a. c #A22875",
"s. c #A7317C",
"d. c #5A8033",
"f. c #678D39",
"g. c #4C824D",
"h. c #729C42",
"j. c #75A650",
"k. c #478C67",
"l. c #5AAB7A",
"z. c #76BE6B",
"x. c #6AB676",
"c. c #70B778",
"v. c #7DC366",
"b. c #98984A",
"n. c #82B14B",
"m. c #BFBF57",
"M. c #8E8D60",
"N. c #8EC55A",
"B. c #95CB55",
"V. c #99CC55",
"C. c #92CC5C",
"Z. c #85C264",
"A. c #DADA6E",
"S. c #D3CF69",
"D. c #E6E676",
"F. c #EEEE77",
"G. c #3F4180",
"H. c #4A4E98",
"J. c #5555AA",
"K. c #A63381",
"L. c #AB3483",
"P. c #B9348C",
"I. c #B63589",
"U. c #BE3892",
"Y. c #C1398F",
"T. c #C33494",
"R. c #C33A94",
"E. c #C93A96",
"W. c #C63D99",
"Q. c #CD3C9C",
"!. c #D13C9E",
"~. c #D43DA1",
"^. c #D83FA5",
"/. c #CF409F",
"(. c #CF40A0",
"). c #D541A3",
"_. c #D942A6",
"`. c #DD44AA",
"'. c #56AB87",
"]. c #5BAE84",
"[. c #55AA88",
"{. c #51A282",
"}. c #848C84",
"|. c #87978D",
" X c #96A396",
".X c #ABB4AB",
"XX c #B4C5B4",
"oX c #C7C78A",
"OX c #E0D692",
"+X c #BBCCC4",
"@X c #CCDDCC",
"#X c #C4D5C7",
"$X c None",
/* pixels */
"$X$X$X$X$X$X$X$X$X$X$X$X$X$X$X$X$X$X$X$X$X$X$X$X$X$X$X$X$X$X$X$X$X$X$X$X$X$X$X$X$X$X$X$X$X$X$X$X$X$X$X$X$X$X$X$X$X$X$X$X$X$X$X$X",
"$X$X$X$X$X$X$X$X$X$X$X$X$X$X$X$X$X$X$X$X$X$X$X$X$X$X$X$X$X          $X$X$X$X$X$X$X$X$X$X$X$X$X$X$X$X$X$X$X$X$X$X$X$X$X$X$X$X$X$X",
"$X$X$X$X$X$X$X$X$X$X$X$X$X$X$X$X$X$X$X$X$X$X$X$X$X$X$X$X              $X$X$X$X$X$X$X$X$X$X$X$X$X$X$X$X$X$X$X$X$X$X$X$X$X$X$X$X$X",
"$X$X$X$X$X$X$X$X$X$X$X$X$X$X$X$X$X$X$X$X$X$X$X$X$X$X$X      W W &         $X$X$X$X$X$X$X$X$X$X$X$X$X$X$X$X$X$X$X$X$X$X$X$X$X$X$X",
"$X$X$X$X$X$X$X$X$X$X$X$X$X$X$X$X$X$X$X$X$X$X$X$X$X$X$X    E ~ ~ ~ ~ =       $X$X$X$X$X$X$X$X$X$X$X$X$X$X$X$X$X$X$X$X$X$X$X$X$X$X",
"$X$X$X$X$X$X$X$X$X$X$X$X$X$X$X$X$X$X$X$X$X$X$X            W ~ ~ ~ ~ ~ B       $X$X$X$X$X$X$X$X$X$X$X$X$X$X$X$X$X$X$X$X$X$X$X$X$X",
"$X$X$X$X$X$X$X$X$X$X$X$X$X$X$X$X$X$X$X$X$X$X              ! ~ ~ ~ ~ ~ ~ R .     $X$X$X$X$X$X$X$X$X$X$X$X$X$X$X$X$X$X$X$X$X$X$X$X",
"$X$X$X$X$X$X$X$X$X$X$X$X$X$X$X$X$X$X$X$X$X      i a *     W ~ ~ ~ ~ ~ ~ ~ E .     $X$X$X$X$X$X$X$X$X$X$X$X$X$X$X$X$X$X$X$X$X$X$X",
"$X$X$X$X$X$X$X$X$X$X$X$X$X$X$X$X$X$X$X$X$X    s ~ ~ ~ Q @ W ~ ~ ~ ~ ~ ~ ~ ~ R       $X$X$X$X$X$X$X$X$X$X$X$X$X$X$X$X$X$X$X$X$X$X",
"$X$X$X$X$X$X$X$X$X$X$X$X$X$X$X$X$X$X$X$X$X    i ~ ~ ~ ~ ~ ~ ~ ~ ~ ~ ~ ~ ~ ~ ~ a       $X$X$X$X$X$X$X$X$X$X$X$X$X$X$X$X$X$X$X$X$X",
"$X$X$X$X$X$X$X$X$X$X$X$X$X$X$X$X$X$X$X$X$X$X    ~ ~ ~ ~ ~ ~ ~ ~ ~ ~ ~ ~ ~ ~ ~ ~ &     $X$X$X$X$X$X$X$X$X$X$X$X$X$X$X$X$X$X$X$X$X",
"$X$X$X$X$X$X$X$X$X$X$X$X$X$X$X$X$X$X$X$X$X$X    d ~ ~ ~ ~ ~ ~ ~ ~ ~ ~ ~ ~ ~ ~ ~ W       $X$X$X$X$X$X$X$X$X$X$X$X$X$X$X$X$X$X$X$X",
"$X$X$X$X$X$X$X$X$X$X$X$X$X$X$X$X$X$X$X$X$X$X    a ~ ~ ~ ~ ~ ~ ~ ~ ~ ~ ~ ~ ~ ~ ~ ~ s     $X$X$X$X$X$X$X$X$X$X$X$X$X$X$X$X$X$X$X$X",
"$X$X$X$X$X$X$X$X$X$X$X$X$X$X$X$X$X$X$X$X$X$X    i ~ ~ ~ ~ ~ ~ ~ ~ ~ ~ ~ ~ ~ ~ ~ ~ W     $X$X$X$X$X$X$X$X$X$X$X$X$X$X$X$X$X$X$X$X",
"$X$X$X$X$X$X$X$X$X$X$X$X$X$X$X$X$X$X$X$X        3 ~ ~ ! C d s 3 & * & * 3 * s d E ~ *       $X$X$X$X$X$X$X$X$X$X$X$X$X$X$X$X$X$X",
"$X$X$X$X$X$X$X$X$X$X$X$X$X$X$X$X$X          . d ~ ~ O       o & & 2 & > & O X     ~ E                 $X$X$X$X$X$X$X$X$X$X$X$X$X",
"$X$X$X$X$X$X$X$X$X$X$X$X$X              O a ~ ~ ~ ~ a a Q ~ ~ ~ ~ ~ ~ ~ ~ ~ ~ ~ R ~ ~ ! i o                 $X$X$X$X$X$X$X$X$X$X",
"$X$X$X$X$X$X$X$X$X$X$X$X$X      . O 3 Q ~ ~ ~ ~ ~ ~ ~ ~ ~ ~ ! W R s * @ . * p Q W W ~ ~ ~ ~ ~ d i o X .     $X$X$X$X$X$X$X$X$X$X",
"$X$X$X$X$X$X$X$X$X$X$X$X$X      d ~ ~ ~ ~ ~ ~ ~ ~ ~ ~ R i             n z             2 V ! ~ ~ ~ W *       $X$X$X$X$X$X$X$X$X$X",
"$X$X$X$X$X$X$X$X$X$X$X$X$X            . # # # @ . .       J e.t.  $ p.`.`.`._./.W.$                         $X$X$X$X$X$X$X$X$X$X",
"$X$X$X$X$X$X$X$X$X$X$X$X$X$X$X          e e e n +.q.s.U.`.`.`.`.P.n   e P.`.`.`.P.  ..    q             $X$X$X$X$X$X$X$X$X$X$X$X",
"$X$X$X$X$X$X$X$X$X$X$X$X$X$X$X$X$X    a.`.`.`.`.`.`.`.`.E.W.`.`.`.`.K.l   P.`.`.-.+ J.J.X.          $X$X$X$X$X$X$X$X$X$X$X$X$X$X",
"$X$X$X$X$X$X$X$X$X$X$X$X$X$X$X$X    n _.`.`.`.`.`.`.`.q.      O.^.`.`.^.w q _.`.l 6 X.H.J.H.j         $X$X$X$X$X$X$X$X$X$X$X$X$X",
"$X$X$X$X$X$X$X$X$X$X$X$X$X$X$X$X  . /.`.`.`.`.`.`.`.`.t   t.%.. ;.`.`.`.U.  L.`.c < .   5 H.J.H.j     $X$X$X$X$X$X$X$X$X$X$X$X$X",
"$X$X$X$X$X$X$X$X$X$X$X$X$X$X$X    x `.`.`.`.).`.`.`.`.P.  O.Q.q.K.`.`.`.`.. K.`.).s.r        .H.o.    $X$X$X$X$X$X$X$X$X$X$X$X$X",
"$X$X$X$X$X$X$X$X$X$X$X$X$X$X$X    9.`.`.`.w.  q.`.`.`.`.r.    U.`.`.`.`.Y   R.Q.w   : b.m.b.X   ..    $X$X$X$X$X$X$X$X$X$X$X$X$X",
"$X$X$X$X$X$X$X$X$X$X$X$X$X$X$X    R.`.`.`._.L   L.`.`.`.P   U ~.`.`.`.).. &.`.m : A.F.F.F.F.D.|       $X$X$X$X$X$X$X$X$X$X$X$X$X",
"$X$X$X$X$X$X$X$X$X$X$X$X$X$X$X  . `.`.`.e.!.^.< O.`.`._.. q.`.Q.i.`.`.~.  R.Y.  b.F.F.F.F.F.F.| X     $X$X$X$X$X$X$X$X$X$X$X$X$X",
"$X$X$X$X$X$X$X$X$X$X$X$X$X$X$X  % `.`.).  L.`.K K `.`._.o w I $ % `.`./.  W.>.  D.F.F.F.F.F.F.          $X$X$X$X$X$X$X$X$X$X$X$X",
"$X$X$X$X$X$X$X$X$X$X$X$X$X$X    l `.P.$ $ !.`.x L `.`.`.P.n w O.R.`.`./.  W.:.: F.F.F.F.F.F.S.            $X$X$X$X$X$X$X$X$X$X$X",
"$X$X$X$X$X$X$X$X$X$X$X$X$X$X$X  , u.  l Q.`.R.  q.`.`.`.`.`.`.`.`.`.`.).  L.-.- F.F.F.F.F.F.F.      . <     $X$X$X$X$X$X$X$X$X$X",
"$X$X$X$X$X$X$X$X$X$X$X$X$X$X$X  .   x `.`.`.x $ ~.`.`.`.`.`.`.`.`.`.`._., u t.  A.F.F.F.F.F.F.h     w T.    $X$X$X$X$X$X$X$X$X$X",
"$X$X$X$X$X$X$X$X$X$X$X$X$X$X$X    . `.`.`.r.  e.`.`.`.`.`.`.`.`.`.`.`.`.s.% P.  } F.F.F.F.F.F.A.}   l )..   $X$X$X$X$X$X$X$X$X$X",
"$X$X$X$X$X$X$X$X$X$X$X$X$X$X$X    l `.`.`.o I `.`.`.`.`.`.`.`.`.`.).`.`.`.`.`.I   S.F.F.F.F.F.D.h   #._..   $X$X$X$X$X$X$X$X$X$X",
"$X$X$X$X$X$X$X$X$X$X$X$X$X$X$X    b `.`.x   Q.`.`.~.o P `.`.`.`.`.  I `.`.`.`._.r . } F.F.A.| O     p.T.    $X$X$X$X$X$X$X$X$X$X",
"$X$X$X$X$X$X$X$X$X$X$X$X$X$X$X$X  o `.).  r.`.`.`.u.. W.`.E.~.`.`.:.w `.`.~.I b w.#.    X     $.U     .     $X$X$X$X$X$X$X$X$X$X",
"$X$X$X$X$X$X$X$X$X$X$X$X$X$X$X$X    -.s.  Q.`.`.`.y.o I.;.o ;.`.`.L t `.`.J   .   e K K U w.u.$..         $X$X$X$X$X$X$X$X$X$X$X",
"$X$X$X$X$X$X$X$X$X$X$X$X$X$X$X$X    $ y.  /.`.`.`.W.<     K !.`.W.  $.`.`.o 8 D 9 %                 $X$X$X$X$X$X$X$X$X$X$X$X$X$X",
"$X$X$X$X$X$X$X$X$X$X$X$X$X$X$X$X$X    $   W.`.`.`.`.`.P.!.`.`.`.K $ ~.`.`.. 9 7 . 9 7 X oX  y       $X$X$X$X$X$X$X$X$X$X$X$X$X$X",
"$X$X$X$X$X$X$X$X$X$X$X$X$X$X$X$X$X$X      $.`.`.`.`.`.`.`.`.`.9.  q.`.`.`.$ @   :   9   >   @     $X$X$X$X$X$X$X$X$X$X$X$X$X$X$X",
"$X$X$X$X$X$X$X$X$X$X$X$X$X$X$X$X$X$X        s.`.`.`.`.`.`.`.R.  O.`.`.`.`.P   ` OX  o y   7     $X$X$X$X$X$X$X$X$X$X$X$X$X$X$X$X",
"$X$X$X$X$X$X$X$X$X$X$X$X$X$X$X$X$X$X$X      . U.`.`.`.`.`.`.b , `.`.`.`.`._.% X 5.M.  D y     $X$X$X$X$X$X$X$X$X$X$X$X$X$X$X$X$X",
"$X$X$X$X$X$X$X$X$X$X$X$X$X$X$X$X$X$X$X$X      l Q.`.`.`.`.`.@ q.`.`.`.`.`.`.E.U                 $X$X$X$X$X$X$X$X$X$X$X$X$X$X$X$X",
"$X$X$X$X$X$X$X$X$X$X$X$X$X$X$X$X$X$X$X$X$X      o U /.`.`.`.  K.`.`.`.`.U b `.`.).P.P.u.  0.    $X$X$X$X$X$X$X$X$X$X$X$X$X$X$X$X",
"$X$X$X$X$X$X$X$X$X$X$X$X$X$X$X$X$X$X$X$X$X$X      +   b %.K.  %.`.`.E.P.$ J `.`.`.`.`.).  U.z     $X$X$X$X$X$X$X$X$X$X$X$X$X$X$X",
"$X$X$X$X$X$X$X$X$X$X$X$X$X$X$X$X$X$X$X$X$X$X    1 l.{ ^ -     +           $ _.`.`.`.`.#.  R.r     $X$X$X$X$X$X$X$X$X$X$X$X$X$X$X",
"$X$X$X$X$X$X$X$X$X$X$X$X$X$X$X$X$X$X$X$X$X$X    _ C.V.V.N.  { <.<.d.g.k.4.  &.Q.`.`.r.  m r     $X$X$X$X$X$X$X$X$X$X$X$X$X$X$X$X",
"$X$X$X$X$X$X$X$X$X$X$X$X$X$X$X$X$X$X$X$X$X      ] V.v.[.N.; ) [.Z.V.V.V.V.X     l (.            $X$X$X$X$X$X$X$X$X$X$X$X$X$X$X$X",
"$X$X$X$X$X$X$X$X$X$X$X$X$X$X$X$X$X$X$X$X        h.x.[.[.[.M   z.V.V.V.V.V.f f (             $X$X$X$X$X$X$X$X$X$X$X$X$X$X$X$X$X$X",
"$X$X$X$X$X$X$X$X$X$X$X$X$X$X$X$X  $X$X$X    -   x.[.].N.].{.  f.V.c.[.'.].k.  ;         $X$X$X$X$X$X$X$X$X$X$X$X$X$X$X$X$X$X$X$X",
"$X$X$X$X$X$X$X$X$X$X$X$X$X$X$X              ; 1 '.x.B.V.B.l.1 / Z.[.].c.[.[.g       $X$X$X$X$X$X$X$X$X$X$X$X$X$X$X$X$X$X$X$X$X$X",
"$X$X$X$X$X$X$X$X$X$X$X$X$X$X$X                M v.V.V.V.V.B.[   k.].C.V.V.N.j.      $X$X$X$X$X$X$X$X$X$X$X$X$X$X$X$X$X$X$X$X$X$X",
"$X$X$X$X$X$X$X$X$X$X$X$X$X$X$X      X 3.4     X ; h / / { ] /   ,.v.B.B.n.] -       $X$X$X$X$X$X$X$X$X$X$X$X$X$X$X$X$X$X$X$X$X$X",
"$X$X$X$X$X$X$X$X$X$X$X$X$X$X$X        4 #X.XX       2 2 > > 2 O f B.j.(   .         $X$X$X$X$X$X$X$X$X$X$X$X$X$X$X$X$X$X$X$X$X$X",
"$X$X$X$X$X$X$X$X$X$X$X$X$X$X             X@X8.    4 7.7.7.7.7.*.  f               $X$X$X$X$X$X$X$X$X$X$X$X$X$X$X$X$X$X$X$X$X$X$X",
"$X$X$X$X$X$X$X$X$X$X$X$X$X$X        O |.#X@X@Xv   6.7.7.7.7.7.7.B X     O ,.}.g     $X$X$X$X$X$X$X$X$X$X$X$X$X$X$X$X$X$X$X$X$X$X",
"$X$X$X$X$X$X$X$X$X$X$X$X$X$X$X          . XX3.  *.7.7.7.7.7.7.7.7.S   .X@X@X@XZ       $X$X$X$X$X$X$X$X$X$X$X$X$X$X$X$X$X$X$X$X$X",
"$X$X$X$X$X$X$X$X$X$X$X$X$X$X$X$X$X        2   N 7.7.7.7.7.7.7.7.Z   8.}.|.@X+XB           $X$X$X$X$X$X$X$X$X$X$X$X$X$X$X$X$X$X$X",
"$X$X$X$X$X$X$X$X$X$X$X$X$X$X$X$X$X            1.7.7.7.7.7.7.7.N   + >   2.A O v           $X$X$X$X$X$X$X$X$X$X$X$X$X$X$X$X$X$X$X",
"$X$X$X$X$X$X$X$X$X$X$X$X$X$X$X$X              O 1.7.7.7.7.1.5       N   N       = @       $X$X$X$X$X$X$X$X$X$X$X$X$X$X$X$X$X$X$X",
"$X$X$X$X$X$X$X$X$X$X$X$X$X$X$X$X          & F @ . A 7.6.Z .               8 @             $X$X$X$X$X$X$X$X$X$X$X$X$X$X$X$X$X$X$X",
"$X$X$X$X$X$X$X$X$X$X$X$X$X$X$X$X$X$X$X      8 H #   v O                 # G X           $X$X$X$X$X$X$X$X$X$X$X$X$X$X$X$X$X$X$X$X",
"$X$X$X$X$X$X$X$X$X$X$X$X$X$X$X$X$X$X$X$X      . F 0         $X$X$X                  $X$X$X$X$X$X$X$X$X$X$X$X$X$X$X$X$X$X$X$X$X$X",
"$X$X$X$X$X$X$X$X$X$X$X$X$X$X$X$X$X$X$X$X$X        F .     $X$X$X$X$X              $X$X$X$X$X$X$X$X$X$X$X$X$X$X$X$X$X$X$X$X$X$X$X",
"$X$X$X$X$X$X$X$X$X$X$X$X$X$X$X$X$X$X$X$X$X$X$X            $X$X$X$X$X$X        $X$X$X$X$X$X$X$X$X$X$X$X$X$X$X$X$X$X$X$X$X$X$X$X$X",
"$X$X$X$X$X$X$X$X$X$X$X$X$X$X$X$X$X$X$X$X$X$X$X$X          $X$X$X$X$X$X$X$X$X$X$X$X$X$X$X$X$X$X$X$X$X$X$X$X$X$X$X$X$X$X$X$X$X$X$X",
"$X$X$X$X$X$X$X$X$X$X$X$X$X$X$X$X$X$X$X$X$X$X$X$X$X      $X$X$X$X$X$X$X$X$X$X$X$X$X$X$X$X$X$X$X$X$X$X$X$X$X$X$X$X$X$X$X$X$X$X$X$X"
};
