/* XPM */
static char *result[] = {
/* columns rows colors chars-per-pixel */
"64 64 124 2 ",
"   c #000000",
".  c #000C00",
"X  c #00010C",
"o  c #000B0F",
"O  c gray4",
"+  c #110000",
"@  c #001100",
"#  c #001A00",
"$  c #00140E",
"%  c #111100",
"&  c #000313",
"*  c #000817",
"=  c #020718",
"-  c #030B1B",
";  c #090F1F",
":  c #08111F",
">  c #111111",
",  c #221100",
"<  c #221111",
"1  c #331111",
"2  c #002300",
"3  c #002A00",
"4  c #112200",
"5  c #112211",
"6  c #222200",
"7  c #223300",
"8  c #222211",
"9  c #332211",
"0  c #223311",
"q  c #070F20",
"w  c #080F20",
"e  c #071020",
"r  c #0C1324",
"t  c #0F1728",
"y  c #101C27",
"u  c #101728",
"i  c #12192A",
"p  c #131A32",
"a  c #141B3A",
"s  c #0F2624",
"d  c #102325",
"f  c #0E3320",
"g  c #1D2432",
"h  c #222222",
"j  c #332222",
"k  c #223322",
"l  c #333322",
"z  c #223333",
"x  c gray20",
"c  c #442222",
"v  c #552222",
"b  c #443322",
"n  c #553322",
"m  c #553333",
"M  c #663333",
"N  c #773333",
"B  c #224411",
"V  c #334411",
"C  c #335511",
"Z  c #336611",
"A  c #334433",
"S  c #445511",
"D  c #446611",
"F  c #447711",
"G  c #444433",
"H  c #445533",
"J  c #664433",
"K  c #774433",
"L  c #447722",
"P  c #557722",
"I  c #161B41",
"U  c #191D4B",
"Y  c #1A1E50",
"T  c #1D215A",
"R  c #444444",
"E  c #554444",
"W  c #445544",
"Q  c #555544",
"!  c #445555",
"~  c #664444",
"^  c #774444",
"/  c #775544",
"(  c #556644",
")  c #4E6A57",
"_  c #666655",
"`  c #776655",
"'  c #667755",
"]  c #445566",
"[  c #556677",
"{  c #777766",
"}  c #885544",
"|  c #995544",
" . c #885555",
".. c #995555",
"X. c #AA5544",
"o. c #AA5555",
"O. c #AA7766",
"+. c #558822",
"@. c #668822",
"#. c #669922",
"$. c #779922",
"%. c #77AA22",
"&. c #778866",
"*. c #779966",
"=. c #88AA33",
"-. c #99BB33",
";. c #888877",
":. c #998877",
">. c #889977",
",. c #667788",
"<. c #668899",
"1. c #7799AA",
"2. c #999988",
"3. c #AA9988",
"4. c #99AA88",
"5. c #99BB88",
"6. c #AAAA88",
"7. c #BBAA99",
"8. c #AABB99",
"9. c #88AABB",
"0. c #CCDDBB",
"q. c #BBDDEE",
"w. c #DDEECC",
"e. c #EEFFCC",
/* pixels */
"i i u u t t r e t * = - - e e = X   X X X = *       % V L L L L L L L C                                         . .             ",
"i t u u r e ; = ; * & & = q = &         & &       L L L Z 0 % % 0 L L L L L @                                           X X * & ",
"i u u u t e - * * * & X & * X       @           L %.        z z       7 L L L Z                                     X     & * = ",
"t u u u t : - = & & X   & X X   2   .         L %   z 1.q.q.q.q.q.q.1.    % L L F                                   * X X & * = ",
"p u u u u r - = = & X   X     X             Z     q.q.q.q.<.z [ 9.q.q.q.h     D L V                                 & * * = - = ",
"i i u u w - = = & & & X                   4   ! q.q.<.>     4       ! q.q.q.z   C L                                 & - = ; - - ",
"u u e e w - = * &                           ,.q.q.h     @.#.#.#.#.D     <.q.q.]   L           2                 &   X & - r - - ",
"u u t r ; = = & X X                     @     !     @.#.#.#.#.#.#.#.#.C           L C                         X & = * - - r r e ",
"i u e ; e = * X                         0 C       V #.#.#.#.#.#.#.#.#.#.6       Z L F     @                       & & & ; r t r ",
"a r q = = X X & X                       L L L L @.#.#.#.#.#.#.#.#.#.#.#.#.#.#.L L L L     .                     X & X * = q u t ",
"t r - & &             .                 L L L V     4 V #.#.#.#.#.#.+.      4 V L L L                         X X & * = - ; w t ",
"u u w * & & * &                         L L     2.6.W k   S #.#.#.%   &.8.8.&.    L L @         2         X &     X X X : r = ; ",
"u u r ; = e e = & X X                   L   @ e.e.e.e.e.w.  @.#.4   e.e.e.e.e.e.@ 4 L 0     &       #   X   & X         X & = e ",
"u u r ; w e e r ; =                   0 L   e.e.e.e.e.e.e.( % #.  e.e.e.e.e.e.e.w.  L C     & X         & X & &   X X X   & - r ",
"u t r e t e - : - = X                 C C   e.e.e.e.e.e.e.8.  #.  e.e.e.e.w.8.e.e.  L Z     ; &   X X   & & * * & & & X X & - q ",
"u t t t e e - = - * & X               C C   e.e.  W e.e.e.8.  #.  e.e.e.W     e.e.  L L     e = &   & & = & = & & & X & & * & = ",
"u u t w - = i * & X     &             0 C   e.e.  ' e.e.e.5 7 #.  e.e.e.e.6.0.e.8.  L L     r ; &   & * ; * - - & & & * & q w ; ",
"u u w w - & X X         X & & * &     4 L   e.e.8.e.e.e.e.  D #.  0.e.e.e.e.e.e.k   L L     e = & X * ; - - w - & ; & ; = q t t ",
"u u t e - &   X X X   X & & = & X       L   @ e.e.e.e.e.@   @.#.S   0.e.e.e.e.'   L L L         & & = e ; q r e - r r = ; ; t t ",
"i u t w ; & X & o X & * = & = =         L L %           % V 4 D   S             F L L L             q ; u u u r t e u w q t t t ",
"u t e = & & & X X & & * * - =           L 0 7 #.+.D D #.#.V @ V 4 #.#.#.D D D +.4 0 L L   | X.c         u u u t u t u u t u u u ",
"u u t - - ; & & & & &             R h         +.V       +.#.    C #.#.#.#.#.#.D       F   K X.X.X.M     u y u u U u u u u u u u ",
"u u u r t w * - * - *           R R     4 L 4 4 P P #.#.#.#.    #.#.#.#.#.#.V % B L @     K X.X.X.X.n     u u u i u u u u u u u ",
"u u u u r e ; = : r -       x R R x     L   5       B +.#.#.#.#.#.#.#.7     >       L     K X.X.X.X.X.    u u u u u u u u u u u ",
"i u i u u t q - t w w t     h R R >   D     H   5.'       P #.#.#.4     h 5.W 5     C D   X.X.X.X.X.X.1     u u u u i u u i u u ",
"u u u u u u t u r r u       x R R     L   4 @ @     > 5.            5.l h 5.    4 @   L   X.X.X.X.X.X.v         u u u u u i u u ",
"u u p p u u u u u u u         R R     L   4 4 4 4 @       5.l H 5.  4.        4 4 4   L   X.X.X.X.X.X.  h         u Y u u u u i ",
"u u u u u u u u u u u         R R     L   4 4 4 4 4       A     *.      @   4 4 4 4   L   X.X.X.X.X.X.              i u u u u t ",
"u u u i u u u u u u       ^   R R     L   4 4 4 4 4 4 4 4   @ @   4 4 4 4 4 4 4 4   B L   K X.X.X.X.,   7.7.3.Q     i u u u u u ",
"u u u i u u i u u u      .}   R R x   4 C   4 %   4 @ % 4 4 4 4 4 4 4 4 4 4 4 4 @   L 4   < v N 9     7.7.7.7.7.`     i u u u u ",
"u u i i u u u u       b O.}   R R R     F @     W   >       % %   4           @   F F                 6.7.7.7.7.G     i u u u u ",
"u u i i u u u       < O.O.O.  R R h       L 7   5   5.>.  >.    H   5     '     F F     h               7.7.        u u u u u u ",
"u u i i u u u       O.O.O.O.  > R         F L L 6                           C #.@.@   7.7.      i u     7.;.      u u u u u u u ",
"u u u i u u     b O.O.O.O.O.O.      7.7.x   F L #.#.#.#.#.D D D D D #.#.#.#.#.#.    6.7.6.      u u     7.Q     i u u u u u u u ",
"u u i u u       c O.O.O.O.O.O.c     G 7.7.8   D #.#.#.#.#.#.#.#.#.#.#.#.#.#.      7.7.Q       i u y     7.h     i u u u u i u u ",
"u u i u     G 6.    J } m               7.7.Q     B #.#.#.#.#.#.#.#.#.#.#.V   7.7.Q           i u y     Q         i y u u u u u ",
"u u i t     7.7.h                       > 7.7.E     #.#.#.#.#.#.#.#.#.#.#.C   >               u d                 u u u u i i u ",
"U f ) u     ;.7.7.7.7.Q       u               h     #.#.#.#.#.#.#.#.#.#.#.#.D 4 4 Z     3.      u     ~ ....      u U u u u u u ",
"i u i i         ;.7.7.    u u u     Q x   D S % V #.#.#.#.#.#.#.#.#.#.#.#.#.#.@.4     7.7.      u     ......      u p i u u u u ",
"u u i i g       h 7.7.    u u u     G 7.`     C #.#.#.#.#.#.#.#.#.#.#.#.#.@.      ` 7.7.      u u     ......          u u u u i ",
"u u u i i u u     7.7.    u u u       _ 7.7.h     @ #.#.#.#.#.#.#.#.#.#.#.4   ;.;.E           u i     ......<             u u i ",
"i i i p y u u     ;.7.    u u u i         8 ` ;.{   #.#.#.#.#.#.#.#.#.#.#.@.        7     i u u i     m ............c       u u ",
"u u u u u T       ;.7.    I u u u u     @         4 #.#.#.#.#.#.#.#.#.#.#.L Z Z D L C     u u u        ... .~ c ~ .... .    u u ",
"u u u u u i               i i t u u         F L L L #.#.#.#.#.#.#.#.#.#.F Z Z Z B         y u u      .m               ..    u u ",
"u u u u u u     R R R     u i u u u     7.h   L L L L L @.#.#.#.#.#.#.P =.D Z 0   > >       u u     ~                 m     u u ",
"u u i u u u     R R R >     u u i u     6.7.  C L L L L L L L L L L L L -.-.$.  R R R >       t         . - w ; *           t u ",
"u u u u u       R R R >     u u u u     { 7.    L L L L L L L L L L L L @.=.V   R R R R       r         - - e = & &         ; ; ",
"u u u           R R R     u u u a         7.6.  4 L L L L L L L L L L L L D   R R R R R R       ;     = = = = & & &       * * = ",
"t u       h R R R R R     u u u u     1   8 7.6.    F L L L L L L L L 4       R R R R R         = * * * & * = * X X o $ X & = ; ",
";     > R R R R R R R       t i i       |     7.7.>       B C C 4       ` h h R R R R R       * & & = : & & = X   X X X   & ; e ",
"=     R x           R R     u u i       o.o.    ;.7.7.:.8         Q 7.7.7.  x R R R R R h     ; & & * & * X &           X & = q ",
"=     x               h     u u i u     } o.o.v     :.7.7.7.7.7.7.7.7.7.x   R R R R R R R     = & & X & & & X X   X X & * - - e ",
"*           & & =             u i u     % o.o.o.o.          h h h           R R R R R R R       X = X & X X     X & & * = - e t ",
"&         $ & X & =         u u u u       o.o.o.n                           x R R R R R R       X X X X         X & & & ; ; r t ",
"X =     X & X   & e t     u i u u         J o.o.v         u       u u u     h R R z     x     X       X           X & * - e t t ",
"  & X         X & - e r u u u u u         1 9             u u i i u u u       R R   h         X X             X & & & = ; t e ; ",
"  &         X * * ; e e u i u u i     j h   > j j j       u u u i t u u             7.        X     3     O     X     & q w q - ",
"      X & & * e = ; e u i i u u u     j j         j 8     u u p p u u u         ;.    {         X                   & * - q = - ",
"X   X & & & * ; : t t i u u u u t     < j   R >   j       u u u t u t u       `   / J +                       X X X & & = = - = ",
"        & & & - r t t e u r w r t           R >           u u u u u w -         } } }                               & & & & * - ",
"X     & & & = q r r w e r w w r ; =         R >         u u u u u i i e         + J c                               X     & * = ",
"X     & X X * - r q ; w ; * = = *         h R x     u i u u u u u u e =     < o.n +                                       & = X ",
"          & - = q = ; - - * & & *       R R R R h     u u d s u u t - *     n o.o.o.v                           . .             ",
"X   X     & * = - - = * - & & & &                     i u u u u u t = &     J o.o.o.v                                           "
};
