/* XPM */
static char *result[] = {
/* columns rows colors chars-per-pixel */
"64 90 224 2 ",
"   c #000000",
".  c #0C0504",
"X  c #050A01",
"o  c #0A0C04",
"O  c #0B0B0B",
"+  c #120606",
"@  c #130906",
"#  c #130B0A",
"$  c #1B0C0B",
"%  c #190807",
"&  c #061401",
"*  c #0C1302",
"=  c #0D1B04",
"-  c #121D03",
";  c #13120F",
":  c #171507",
">  c #0E1314",
",  c #141313",
"<  c #1B1414",
"1  c #1C1B15",
"2  c #1C1B1B",
"3  c #131D1A",
"4  c #240C0C",
"5  c #280F0F",
"6  c #26140E",
"7  c #241313",
"8  c #281816",
"9  c #331C1B",
"0  c #341815",
"q  c #132403",
"w  c #1A2405",
"e  c #1C2C05",
"r  c #172807",
"t  c #1D3305",
"y  c #1D3B08",
"u  c #1D2218",
"i  c #172A11",
"p  c #233B06",
"a  c #223109",
"s  c #283C09",
"d  c #23241D",
"f  c #29261C",
"g  c #3C2217",
"h  c #232903",
"j  c #1E2020",
"k  c #222323",
"l  c #292623",
"z  c #2C2C2C",
"x  c #292C26",
"c  c #382726",
"v  c #2B3528",
"b  c #34352D",
"n  c #38382B",
"m  c #353535",
"M  c #3C3C33",
"N  c #3B3C3C",
"B  c #323A3A",
"V  c #29343B",
"C  c #471D19",
"Z  c #48261D",
"A  c #522B1D",
"S  c #482826",
"D  c #542C25",
"F  c #592B29",
"G  c #583226",
"H  c #463C39",
"J  c #5C3333",
"K  c #532B35",
"L  c #67372B",
"P  c #78372C",
"I  c #663935",
"U  c #773B37",
"Y  c #632E2E",
"T  c #1E4206",
"R  c #2C4A09",
"E  c #274609",
"W  c #324B0D",
"Q  c #29550B",
"!  c #2D5708",
"~  c #3B5B0D",
"^  c #34550A",
"/  c #2A4C11",
"(  c #2C5312",
")  c #325B14",
"_  c #355812",
"`  c #2F6609",
"'  c #39640D",
"]  c #3C720C",
"[  c #3A6615",
"{  c #3B6B18",
"}  c #3A6815",
"|  c #3F731A",
" . c #3D7016",
".. c #3A4536",
"X. c #445D0D",
"o. c #425910",
"O. c #456A0C",
"+. c #41770C",
"@. c #476913",
"#. c #40751B",
"$. c #42781C",
"%. c #4C7B1C",
"&. c #487414",
"*. c #547C1B",
"=. c #547816",
"-. c #48463B",
";. c #4E4E3B",
":. c #794535",
">. c #6C4333",
",. c #354145",
"<. c #424242",
"1. c #4E4E44",
"2. c #494949",
"3. c #5B554A",
"4. c #585548",
"5. c #4D5353",
"6. c #565858",
"7. c #504E43",
"8. c #7A4545",
"9. c #625649",
"0. c #675B54",
"q. c #56694A",
"w. c #6C6658",
"e. c #73675E",
"r. c #6A7057",
"t. c #656A6A",
"y. c #7A6D63",
"u. c #7A7565",
"i. c #747D7D",
"p. c #797A7A",
"a. c #6E7A70",
"s. c #566B76",
"d. c #843E37",
"f. c #844433",
"g. c #8C4331",
"h. c #954B3B",
"j. c #9F503E",
"k. c #A14D3E",
"l. c #A2503E",
"z. c #844949",
"x. c #8A4946",
"c. c #9C4B4B",
"v. c #914F4F",
"b. c #8A564C",
"n. c #995444",
"m. c #945353",
"M. c #9A5454",
"N. c #915A50",
"B. c #AB5442",
"V. c #A45448",
"C. c #AB5454",
"Z. c #A65451",
"A. c #A04E4E",
"S. c #9F6456",
"D. c #AD6C5A",
"F. c #857968",
"G. c #8D7F73",
"H. c #BC7866",
"J. c #BC7866",
"K. c #C37866",
"L. c #C27B6B",
"P. c #CA7A68",
"I. c #4D821C",
"U. c #558313",
"Y. c #55821C",
"T. c #59821B",
"R. c #5B8C1B",
"E. c #568719",
"W. c #5F931C",
"Q. c #628B1A",
"!. c #678814",
"~. c #63951B",
"^. c #669A1C",
"/. c #6D901D",
"(. c #70931C",
"). c #6EA21C",
"_. c #76A023",
"`. c #768569",
"'. c #86B71C",
"]. c #86AF1C",
"[. c #8EB32D",
"{. c #9ACD1C",
"}. c #95C71C",
"|. c #8DC01C",
" X c #82856C",
".X c #8B8675",
"XX c #948B7A",
"oX c #918877",
"OX c #C98574",
"+X c #CD8978",
"@X c #CB8676",
"#X c #C3806E",
"$X c #7D8787",
"%X c #758C97",
"&X c #9C9381",
"*X c #8C9797",
"=X c #989C9C",
"-X c #959782",
";X c #AB9D8C",
":X c #A59885",
">X c #B09F8F",
",X c #ADA08F",
"<X c #A4A484",
"1X c #AFA291",
"2X c #B4A393",
"3X c #BCAB9A",
"4X c #B7A995",
"5X c #A6B78F",
"6X c #9AABAB",
"7X c #98A4A4",
"8X c #92AFBA",
"9X c #8AA5AF",
"0X c #BDCEA7",
"qX c #C6D4AE",
"wX c #D7E8BA",
"eX c #95B4C4",
"rX c #A8C8D9",
"tX c #BCDEEE",
"yX c #B3D5E5",
"uX c #DDEEC7",
"iX c #E3F3C4",
"pX c #EEFFCD",
"aX c #E7F7CB",
"sX c None",
/* pixels */
"sXsXsXsXsXsXsXsXsXsXsXsXsXsXsXsXsXsXsXsXsXsXsXsXsXsXsXsXsXsXsXsXsXsXsXsXsXsXsXsXsXsXsXsXsXsXsXsXsXsXsXsXsXsXsXsXsXsXsXsXsXsXsXsX",
"sXsXsXsXsXsXsXsXsXsXsXsXsXsXsXsXsXsXsXsXsXsXsXsXsXsXsXsXsXsXsXsXsXsXsXsXsXsXsXsXsXsXsXsXsXsXsXsXsXsXsXsXsXsXsXsXsXsXsXsXsXsXsXsX",
"sXsXsXsXsXsXsXsXsXsXsXsXsXsXsXsXsXsXsXsXsXsXsXsXsXsXsXsXsXsXsXsXsXsXsXsXsXsXsXsXsXsXsXsXsXsXsXsXsXsXsXsXsXsXsXsXsXsXsXsXsXsXsXsX",
"sXsXsXsXsXsXsXsXsXsXsXsXsXsXsXsXsXsXsXsXsXsXsXsXsXsXsXsXsXsXsXsX          sXsXsXsXsXsXsXsXsXsXsXsXsXsXsXsXsXsXsXsXsXsXsXsXsXsXsX",
"sXsXsXsXsXsXsXsXsXsXsXsXsXsXsXsXsXsXsXsXsXsXsXsXsXsXsXsX                          sXsXsXsXsXsXsXsXsXsXsXsXsXsXsXsXsXsXsXsXsXsXsX",
"sXsXsXsXsXsXsXsXsXsXsXsXsXsXsXsXsXsXsXsXsXsXsXsXsXsX              X X                 sXsXsXsXsXsXsXsXsXsXsXsXsXsXsXsXsXsXsXsXsX",
"sXsXsXsXsXsXsXsXsXsXsXsXsXsXsXsXsXsXsXsXsXsXsXsX            t ! ) { { { ) ) p X           sXsXsXsXsXsXsXsXsXsXsXsXsXsXsXsXsXsXsX",
"sXsXsXsXsXsXsXsXsXsXsXsXsXsXsXsXsXsXsXsXsXsXsX        * s $.| $.$.$.$.$.$.| I.%.' q .       sXsXsXsXsXsXsXsXsXsXsXsXsXsXsXsXsXsX",
"sXsXsXsXsXsXsXsXsXsXsXsXsXsXsXsXsXsXsXsXsXsX        / $.$.$.$.$.$.$.$.$.$.).}.}.|.^.)         sXsXsXsXsXsXsXsXsXsXsXsXsXsXsXsXsX",
"sXsXsXsXsXsXsXsXsXsXsXsXsXsXsXsXsXsXsXsXsX      = [ $.$.$.$.$.$.$.$.$.$.%.'.{.{.{.{.].@.o         sXsXsXsXsXsXsXsXsXsXsXsXsXsXsX",
"sXsXsXsXsXsXsXsXsXsXsXsXsXsXsXsXsXsXsXsX      e $.$.$.$.$.$.$.$.$.$.$.$.$.I.'.{.{.}.!..             sXsXsXsXsXsXsXsXsXsXsXsXsXsX",
"sXsXsXsXsXsXsXsXsXsXsXsXsXsXsXsXsXsXsXsX    - | $.$.$.$.$.$.$.$.$.$.$.$.$.$.$.R.Q.a   ..%XeX8X,.    sXsXsXsXsXsXsXsXsXsXsXsXsXsX",
"sXsXsXsXsXsXsXsXsXsXsXsXsXsXsXsXsXsXsX      &.$.$.$.$.$.$.$.$.%.*.Y.*.T.T.%.$.Q   > %XtXtXtXtXeX      sXsXsXsXsXsXsXsXsXsXsXsXsX",
"sXsXsXsXsXsXsXsXsXsXsXsXsXsXsXsXsXsXsX    t $.$.$.$.$.$.%.Y.^.W.^.^.^.^.^.^.@.  V rXtXtXtXtXtXtX      sXsXsXsXsXsXsXsXsXsXsXsXsX",
"sXsXsXsXsXsXsXsXsXsXsXsXsXsXsXsXsXsX      Q $.$.$.$.$.%.W.^.^.^.^.^.^.^.^.^.s > yXtXtX9Xs.V 3 3       sXsXsXsXsXsXsXsXsXsXsXsXsX",
"sXsXsXsXsXsXsXsXsXsXsXsXsXsXsXsXsXsX    X $.$.$.$.$.*.^.^.^.^.^.^.^.^.^.^.^.s   eXrXx     & i r       sXsXsXsXsXsXsXsXsXsXsXsXsX",
"sXsXsXsXsXsXsXsXsXsXsXsXsXsXsXsXsXsX    R $.$.$.$.I.~.^.^.^.^.^.^.^.^.^.^.^.*.&     o E } $.$. .      sXsXsXsXsXsXsXsXsXsXsXsXsX",
"sXsXsXsXsXsXsXsXsXsXsXsXsXsXsXsXsX      { $.$.$.$.W.^.^.^.^.^.^.^.^.^.^.^.^.^.^.O.O.R.$.#.$.$.$.o     sXsXsXsXsXsXsXsXsXsXsXsXsX",
"sXsXsXsXsXsXsXsXsXsXsXsXsXsXsXsXsX    & | $.| $.*.^.^.^.^.^.^.^.^.^.^.^.^.^.^.^.&.E t - - r } $.r     sXsXsXsXsXsXsXsXsXsXsXsXsX",
"sXsXsXsXsXsXsXsXsXsXsXsXsXsXsXsXsX    r $.$.$.$.R.^.^.^.^.^.^.^.^.^.^.^.^.^.~.R   1 x v M 1   T s     sXsXsXsXsXsXsXsXsXsXsXsXsX",
"sXsXsXsXsXsXsXsXsXsX                  R $.$.$.%.^.^.^.^.^.^.^.^.^.^.^.^.^.^.p   a.wXiXiXaXwXq.        sXsXsXsXsXsXsXsXsXsXsXsXsX",
"sXsXsXsXsXsXsXsXsX                    #.$.$.$.I.^.^.^.^.^.^.^.^.^.^.^.^.^.&.  `.pXpXpXpXpXpXaXu.      sXsXsXsXsXsXsXsXsXsXsXsXsX",
"sXsXsXsXsXsXsXsX        % %         & $.$.$.$.Y.^.^.^.^.^.^.^.^.^.^.^.^.^.a d wXpXpXpXpXpXpXpXaXX     sXsXsXsXsXsXsXsXsXsXsXsXsX",
"sXsXsXsXsXsXsX      Z D.H.H.D.I     t $.$.$.$.E.^.^.^.^.^.^.^.^.^.^.^.^.^.a v iXpXpXiXr.qXpXpXpXq.    sXsXsXsXsXsXsXsXsXsXsXsXsX",
"sXsXsXsXsXsXsX    0 J.J.J.J.J.J.D   E | $.$.$.R.^.^.^.^.^.^.^.^.^.^.^.^.^.a v iXpXpX5X  X uXpXpX<X    sXsXsXsXsXsXsXsXsXsXsXsXsX",
"sXsXsXsXsXsXsX    >.J.OX@XJ.J.J.I   ) $.$.$.$.R.^.^.^.^.^.^.^.^.^.^.^.^.^.a l iXpXpX0XO v iXpXpX X    sXsXsXsXsXsXsXsXsXsXsXsXsX",
"sXsXsXsXsXsXsX    b.+X+X+X+XP.H.J   ( $.$.$.$.R.^.^.^.^.^.^.^.^.^.^.^.^.^.^ O 0XpXpXpXpXpXpXpXaXv     sXsXsXsXsXsXsXsXsXsXsXsXsX",
"sXsXsXsXsXsXsX    b.H.K.+X+X#XH.f   ) $.$.$.$.W.^.^.^.^.^.^.^.^.^.^.^.^.^.^.  ; aXpXpXpXpXpXpX-X      sXsXsXsXsXsXsXsXsXsXsXsXsX",
"sXsXsXsXsXsXsX    b.H.H.H.K.K.H.$ X [ $.$.$.| ^.^.^.^.^.^.^.^.^.^.^.^.^.^.^.@.X ..qXpXpXpXqX`.o       sXsXsXsXsXsXsXsXsXsXsXsXsX",
"sXsXsXsXsXsX      b.P.H.H.H.H.H.. X  .$.$.$.*.^.^.^.^.^.^.^.^.^.^.^.^.^.^.^.^.X.    u v X     r `       sXsXsXsXsXsXsXsXsXsXsXsX",
"sXsXsXsXsXsX    . L.+X+X+XOXK.H.8 o $.$.$.$.Y.^.^.^.^.^.^.^.^.^.^.^.^.^.^.^.~ o     o e t E ) $.| r     sXsXsXsXsXsXsXsXsXsXsXsX",
"sXsXsXsXsX    . m.L.OXOX+X+XK.H.7 o $.$.$.$.E.^.^.^.^.^.^.^.^.^.^.^.^.^.^.~   o ~ O.=.~.*.! & T [ /       sXsXsXsXsXsXsXsXsXsXsX",
"sXsXsXsX      G H.H.J.J.H.L.H.H.8 o $.$.$.$.E.^.^.^.^.^.^.^.^.^.^.^.^.^.T.X * U.R * * - e E X             sXsXsXsXsXsXsXsXsXsXsX",
"sXsXsXsX    o D.H.#XJ.J.H.H.H.K.7 X / s t e t R R O.&.E.~.^.^.^.^.^.^.^.w   O.a     x       w X           sXsXsXsXsXsXsXsXsXsXsX",
"sXsXsXsX    J J.+X+X+X+XOXH.H.:..         . .       .   o E ~.^.^.^.^.U.  s @.      r.  q.i             sXsXsXsXsXsXsXsXsXsXsXsX",
"sXsXsXsX    N.J.#XOX+X+XOXN.0   5 D f.h.B.B.B.B.V.f.L D 0     t ~ ~.^.~   @.h       d   n ;.        sXsXsXsXsXsXsXsXsXsXsXsXsXsX",
"sXsXsXsX    N.J.H.H.H.H.S.O . :.B.B.B.B.B.B.B.B.l.B.B.B.B.l.A .   = R.W . *.                      sXsXsXsXsXsXsXsXsXsXsXsXsXsXsX",
"sXsXsXsX    :.J.H.H.H.H.6 . f.l.B.B.B.B.B.B.B.B.l.B.B.B.B.B.B.l.P . * e   U.                  sXsXsXsXsXsXsXsXsXsXsXsXsXsXsXsXsX",
"sXsXsXsX    5 H.H.H.H.N.  L B.B.B.B.B.B.B.B.B.B.B.B.B.B.B.B.B.B.B.f..   X =.      sXsXsX    sXsXsXsXsXsXsXsXsXsXsXsXsXsXsXsXsXsX",
"sXsXsXsX      L H.H.H.G + h.B.B.B.B.B.B.B.B.B.B.B.B.B.B.B.B.B.B.B.B.L     @.y     sXsXsXsXsXsXsXsXsXsXsXsXsXsXsXsXsXsXsXsXsXsXsX",
"sXsXsXsXsX    . z.H.H.g < j.B.B.B.B.B.B.B.B.B.B.B.B.B.l.l.B.B.B.B.B.B.$   E =.      sXsXsXsXsXsXsXsXsXsXsXsXsXsXsXsXsXsXsXsXsXsX",
"sXsXsXsXsXsX      D H.S $ l.B.B.B.B.B.B.B.B.B.B.l.l.g.Z 0 g.B.B.B.B.B.Z     R.-       sXsXsXsXsXsXsXsXsXsXsXsXsXsXsXsXsXsXsXsXsX",
"sXsXsXsXsXsX        . # $ l.l.B.B.B.B.B.f.d.P h.G %   , 6   :.B.B.B.B.D     - R.r         sXsXsXsXsXsXsXsXsXsXsXsXsXsXsXsXsXsXsX",
"sXsXsXsXsXsXsXsX        $ j.B.B.B.B.h.@           1 XX3X4X. 5 B.B.B.B.Z   .   : *.-                 sXsXsXsXsXsXsXsXsXsXsXsXsXsX",
"sXsXsXsXsXsXsXsXsX      . h.B.B.B.h.@   , H -.<   b 4X3X3X9.  B.B.B.j.@ , .X1.  o /.~ &               sXsXsXsXsXsXsXsXsXsXsXsXsX",
"sXsXsXsXsXsXsXsXsXsX      f.B.B.l.:   o             :X3X3X.X  j.j.d.4       2 .   ^.^.~.^ q = o       sXsXsXsXsXsXsXsXsXsXsXsXsX",
"sXsXsXsXsXsXsXsXsX    .   F B.B.L     | { { &.E.&.. y.3X3X1X  # @ .   o.^ p     R ^.^.^.%.$.| | r     sXsXsXsXsXsXsXsXsXsXsXsXsX",
"sXsXsXsXsXsXsXsXsX    7.H + B.B.5     / / ( @.U.&.o 4.3X3X2X. * a W R.^.^.^.^.^.^.^.^.^.R.| $.$.!     sXsXsXsXsXsXsXsXsXsXsXsXsX",
"sXsXsXsXsXsXsXsX      y. X  f.n.                    e.3X3X2X7   & q R @.~.~.^.^.^.^.^.^.~.$.$.$.|     sXsXsXsXsXsXsXsXsXsXsXsXsX",
"sXsXsXsXsXsXsX        2 n   C F O u.u.u.y.y.3.4.2.O 1.e.M d X     O       q W Q.^.^.^.^.^.%.| $.|       sXsXsXsXsXsXsXsXsXsXsXsX",
"sXsXsXsXsXsXsX    4..Xl ;   . % o 1X3X3X4X3X3X3X1X1   O f 4.0.k   XX3X Xb <     @.^.^.^.^.%.$.$.#.      sXsXsXsXsXsXsXsXsXsXsXsX",
"sXsXsXsXsXsXsX    3.3X4X:Xz       u 3.&X4X3X3X&XF.1 < XX3X3X3X2X2 < H w.:X,Xu.O * ^.^.^.^.%.$.$.#.X     sXsXsXsXsXsXsXsXsXsXsXsX",
"sXsXsXsXsXsXsX    O XX3X3Xe.                        y.3X3X3X3X2Xd   X     O b . * ^.^.^.^.%.$.$.#.*     sXsXsXsXsXsXsXsXsXsXsXsX",
"sXsXsXsXsXsXsXsX    . XX3XXX  z ,     o r r X     n 4X3X3X3X4X:X;   e *.R o     X.^.^.^.R.$.$.$.| *     sXsXsXsXsXsXsXsXsXsXsXsX",
"sXsXsXsXsXsXsXsX      f 2X3X  n 2Xy.  r  .q   1 -.  4.,X3X3X3X&XO ,   ~ ^.^.^.^.^.^.^.=.] ] $.$.| *     sXsXsXsXsXsXsXsXsXsXsXsX",
"sXsXsXsXsXsXsXsXsX      0.3Xl   4X2X2 = o   l 2X4XH     4.1X3X,X, M X   ~.^.^.^.^.^.U.` ` ` #.$.$.*     sXsXsXsXsXsXsXsXsXsXsXsX",
"sXsXsXsXsXsXsXsXsXsX    8 -.O   &X4Xz     4.3X:Xn .   r =   y.4Xl       w W.^.^.^.^.Q.` ` ` +.$.| *     sXsXsXsXsXsXsXsXsXsXsXsX",
"sXsXsXsXsXsXsXsXsXsX      O #   y.3X0.  1 3X;X<   = &.^.R.q   4.  7 I .   ~ Q.^.^.^.[.O.` ` +.$.|       sXsXsXsXsXsXsXsXsXsXsXsX",
"sXsXsXsXsXsXsXsXsX      K z.8.  -.3XF.  e.2X;   Q | %.R :       9 v.M.S     * W ~.^.[.*.` ` &.$.p     sXsXsXsXsXsXsXsXsXsXsXsXsX",
"sXsXsXsXsXsXsXsXsX    5 M.M.M.# , 4XF.  .XF.  p #.) =   , 2 O 4 v.M.M.z.#       - &._.[.T.&.$.}       sXsXsXsXsXsXsXsXsXsXsXsXsX",
"sXsXsXsXsXsXsXsXsX    S M.M.M.$   w.;X  H e.  ( Q     N H ,.O 8 M.M.M.M.v.c .       E /.(.$.| E       sXsXsXsXsXsXsXsXsXsXsXsXsX",
"sXsXsXsXsXsXsXsX    . 8.M.M.I     # :Xv   w.  *   , m <.<.<.< < m.M.M.M.M.M.m.8.9     y | | O.o     sXsXsXsXsXsXsXsXsXsXsXsXsXsX",
"sXsXsXsXsXsXsXsX    c M.M.M.9   k   9. X  M     O N <.<.<.<.3 $ v.M.M.M.M.M.z.K 4   O   T | q       sXsXsXsXsXsXsXsXsXsXsXsXsXsX",
"sXsXsXsXsXsXsXsX    C M.M.M.7 O ..;   3.M       > ; > l <.<., 7 M.M.M.M.M.M.9   X j <.u   r       sXsXsXsXsXsXsXsXsXsXsXsXsXsXsX",
"sXsXsXsXsXsXsXsX    8 m.M.M.9   m N     e.z           k <.<., # z.M.M.M.M.M.K   N <.<.<.O         sXsXsXsXsXsXsXsXsXsXsXsXsXsXsX",
"sXsXsXsXsXsXsXsX      8.M.M.I     2 N O   O H .X;.    N <.<.l   K M.M.M.M.M.8.  l <.<.<.2         sXsXsXsXsXsXsXsXsXsXsXsXsXsXsX",
"sXsXsXsXsXsXsXsXsX    < z.M.m.8.7   m <.j X         , <.<.<.<.2   9 8.m.M.M.z.. j <.<.<.2 < n           sXsXsXsXsXsXsXsXsXsXsXsX",
"sXsXsXsXsXsXsXsXsX      . 8.M.M.8   , ,.<.<.<.l 2   , <.<.<.<.<.k       c J c   k <.<.N O   :             sXsXsXsXsXsXsXsXsXsXsX",
"sXsXsXsXsXsXsXsXsXsX        9 S .     B <.<.<.<.N X 2 <.<.<.<.<.<.N k 2 O     2 <.<.<.2   3.1.1.w.w.f     sXsXsXsXsXsXsXsXsXsXsX",
"sXsXsXsXsXsXsXsXsXsXsX                , <.<.<.<.<.> O N <.<.<.<.<.<.<.<.<.<.<.<.<.<.x   4.3X3X3X4X3X:X,     sXsXsXsXsXsXsXsXsXsX",
"sXsXsXsXsXsXsXsXsXsXsXsXsX              z <.<.<.<.N   O > O ; z <.<.<.<.<.<.<.<.<.<.O d 1X3X3X3X4X3X;X;     sXsXsXsXsXsXsXsXsXsX",
"sXsXsXsXsXsXsXsXsXsXsXsXsXsXsXsXsXsX      j m <.<.<.l O O , O     z N <.<.m z z m m < F.;X,X,X,X:XG.n     sXsXsXsXsXsXsXsXsXsXsX",
"sXsXsXsXsXsXsXsXsXsXsXsXsXsXsXsX              k <.<.<.N N <.>       X O X             . O ; ; # O         sXsXsXsXsXsXsXsXsXsXsX",
"sXsXsXsXsXsXsXsXsXsXsXsXsXsXsX        @ 5 .     z <.N 2 O                             . F F F .         sXsXsXsXsXsXsXsXsXsXsXsX",
"sXsXsXsXsXsXsXsXsXsXsXsXsXsX      . :.C.C.U       , X X X       sXsX        sXsX      x.C.C.:.      sXsXsXsX            sXsXsXsX",
"sXsXsXsXsXsXsXsXsXsXsXsXsX      g A.C.C.C.C.L     , 3.4X&X      sXsXsXsXsXsXsXsX    Z C.C.c.@     sXsXsX                  sXsXsX",
"sXsXsXsXsXsXsXsXsXsXsXsX      6 Z.C.C.Z.c.c.c.Z   3.,X3XoX      sXsXsXsXsXsXsXsX    U C.C.U       sXsX        k t.p.,.O     sXsX",
"sXsXsXsXsXsXsXsXsXsXsXsX    < Z.C.C.C.g # + + .     1 l ,     sXsXsXsXsXsXsXsX      d.C.C.D     sXsX        $X6X6X6X6Xt.      sX",
"sXsXsXsXsXsXsXsXsXsXsX      Y C.C.Z.Z                         sXsXsXsXsXsXsXsX      d.C.C.L             2 =X6X6X6X7X$Xx       sX",
"sXsXsXsXsXsXsXsXsXsXsX      n.C.C.c.+                     sXsXsXsXsXsXsXsXsXsXsX    I C.C.x..         k 7X6X6X6X7Xz         sXsX",
"sXsXsXsXsXsXsXsXsXsXsX      C.C.C.L             sXsXsXsXsXsXsXsXsXsXsXsXsXsXsXsX    S Z.C.C.L       3 *X6X6X*X5.O         sXsXsX",
"sXsXsXsXsXsXsXsXsXsXsX      I C 5 .                   sXsXsXsXsXsXsXsXsXsXsXsXsX    + Z.C.C.C.G   O =X6X7X$XO         sXsXsXsXsX",
"sXsXsXsXsXsXsXsXsXsXsX          k B N m N m k           sXsXsXsXsXsXsXsXsXsXsXsXsX    0 Z.C.C.0   i.6Xp.k         sXsXsXsXsXsXsX",
"sXsXsXsXsXsXsXsXsXsX      . a.6X6X6X6X6X6X6X6X7Xt.,       sXsXsXsXsXsXsXsXsXsXsXsX      G Z.n.  2.*Xm           sXsXsXsXsXsXsXsX",
"sXsXsXsXsXsXsXsXsXsX        , 2 6.*X6X6X6X6X6X6X6X*Xm     sXsXsXsXsXsXsXsXsXsXsXsXsX      5 0   2 O         sXsXsXsXsXsXsXsXsXsX",
"sXsXsXsXsXsXsXsXsXsXsX              8 5.a.*X6X6X6X6Xt.    sXsXsXsXsXsXsXsXsXsXsXsXsXsX                  sXsXsXsXsXsXsXsXsXsXsXsX",
"sXsXsXsXsXsXsXsXsXsXsXsXsXsX                > 5.7X6Xi.    sXsXsXsXsXsXsXsXsXsXsXsXsXsXsX            sXsXsXsXsXsXsXsXsXsXsXsXsXsX",
"sXsXsXsXsXsXsXsXsXsXsXsXsXsXsXsXsX                2 2     sXsXsXsXsXsXsXsXsXsXsXsXsXsXsXsXsXsX  sXsXsXsXsXsXsXsXsXsXsXsXsXsXsXsX",
"sXsXsXsXsXsXsXsXsXsXsXsXsXsXsXsXsXsXsXsXsX                sXsXsXsXsXsXsXsXsXsXsXsXsXsXsXsXsXsXsXsXsXsXsXsXsXsXsXsXsXsXsXsXsXsXsX",
"sXsXsXsXsXsXsXsXsXsXsXsXsXsXsXsXsXsXsXsXsXsXsXsX        sXsXsXsXsXsXsXsXsXsXsXsXsXsXsXsXsXsXsXsXsXsXsXsXsXsXsXsXsXsXsXsXsXsXsXsX"
};
