/* XPM */
static char *result[] = {
/* columns rows colors chars-per-pixel */
"65 64 198 2 ",
"   c #000001",
".  c #000C00",
"X  c #00010C",
"o  c #000D0E",
"O  c #001400",
"+  c #001A00",
"@  c #000313",
"#  c #010817",
"$  c #020718",
"%  c #030C1B",
"&  c #080C1A",
"*  c #07101F",
"=  c gray9",
"-  c #1C1C1C",
";  c #042302",
":  c #003100",
">  c #163818",
",  c #213C1C",
"<  c #070F20",
"1  c #080F20",
"2  c #0C1324",
"3  c #0F1825",
"4  c #0F1728",
"5  c #101C27",
"6  c #101728",
"7  c #12192A",
"8  c #181E2E",
"9  c #131933",
"0  c #191F36",
"q  c #151A3A",
"w  c #0F2B22",
"e  c #112925",
"r  c #15242A",
"t  c #1C312F",
"y  c #1B2331",
"u  c #1B213D",
"i  c #232323",
"p  c #2C2D2C",
"a  c #282E3A",
"s  c #2E323F",
"d  c #333333",
"f  c #3B3B3B",
"g  c #52141D",
"h  c #620B16",
"j  c #441E21",
"k  c #5A1C23",
"l  c #601820",
"z  c #721521",
"x  c #5D212D",
"c  c #195414",
"v  c #23721B",
"b  c #294726",
"n  c #295F22",
"m  c #2F443F",
"M  c #395F30",
"N  c #2B6624",
"B  c #2D7A24",
"V  c #336334",
"C  c #3C7B36",
"Z  c #42663C",
"A  c #437B3F",
"S  c #171C44",
"D  c #181E42",
"F  c #1C2247",
"G  c #21265B",
"H  c #543C41",
"J  c #723F49",
"K  c #454545",
"L  c #4B4B4B",
"P  c #4C5246",
"I  c #535353",
"U  c #5C5C5C",
"Y  c #4D6A49",
"T  c #4C7147",
"R  c #54754C",
"E  c #547851",
"W  c #636363",
"Q  c #656D64",
"!  c #6C6C6C",
"~  c #6E7069",
"^  c #737373",
"/  c #7C7C7C",
"(  c #AE1828",
")  c #B91A2B",
"_  c #92232C",
"`  c #952230",
"'  c #A32533",
"]  c #C01B2D",
"[  c #89444C",
"{  c #834955",
"}  c #8F6D72",
"|  c #857D7F",
" . c #34842B",
".. c #378A2A",
"X. c #38972A",
"o. c #39A42C",
"O. c #478F2E",
"+. c #42982C",
"@. c #438539",
"#. c #499934",
"$. c #4B9C3A",
"%. c #539C3E",
"&. c #43A72E",
"*. c #4BA533",
"=. c #4DAE36",
"-. c #48AB3A",
";. c #58AB3F",
":. c #4AB736",
">. c #4BB239",
",. c #55B639",
"<. c #56B33D",
"1. c #54BC3A",
"2. c #4BC839",
"3. c #57CB3E",
"4. c #50D43C",
"5. c #4E8545",
"6. c #57874A",
"7. c #4A9240",
"8. c #589D47",
"9. c #578754",
"0. c #618A57",
"q. c #65965B",
"w. c #59A945",
"e. c #5BB646",
"r. c #62A84C",
"t. c #65A956",
"y. c #66B651",
"u. c #698763",
"i. c #6E826D",
"p. c #709769",
"a. c #798977",
"s. c #7A9378",
"d. c #72A66C",
"f. c #73A868",
"g. c #5DC645",
"h. c #59D342",
"j. c #64D946",
"k. c #65CC57",
"l. c #64D353",
"z. c #6CD95A",
"x. c #70E14B",
"c. c #72E34D",
"v. c #7ECD67",
"b. c #72D760",
"n. c #89B27D",
"m. c #80CE6A",
"M. c #81D96B",
"N. c #86C773",
"B. c #88D877",
"V. c #90DA79",
"C. c #86E469",
"Z. c #D4EF7F",
"A. c #838383",
"S. c #898082",
"D. c #8B8B8B",
"F. c #889585",
"G. c #939393",
"H. c #969E94",
"J. c #9C9C9C",
"K. c #92B38D",
"L. c #99A897",
"P. c #98B595",
"I. c #A0B19C",
"U. c #A3A3A3",
"Y. c #A3AEA2",
"T. c #ACACAC",
"R. c #A5B9A2",
"E. c #B3B3B3",
"W. c #B4BCB3",
"Q. c #BBBBBB",
"!. c #96DE8A",
"~. c #ACDC9F",
"^. c #9AE386",
"/. c #AFE892",
"(. c #B9EA94",
"). c #BDC4BB",
"_. c #BDC8BB",
"`. c #B8DCB2",
"'. c #B8E7A9",
"]. c #C4EA9D",
"[. c #D9EF96",
"{. c #DAEF9D",
"}. c #D8F09B",
"|. c #CCEFA8",
" X c #DAF1A6",
".X c #D5F3B5",
"XX c #E2F5AA",
"oX c #C3C3C3",
"OX c #CCCCCC",
"+X c #CBD1CA",
"@X c #D3D3D3",
"#X c #D7D8D7",
"$X c #DBDBDB",
"%X c #E8F8C9",
"&X c #E4E4E4",
"*X c #ECECEC",
"=X c #F4F4F4",
"-X c #FBFBFB",
/* pixels */
"                                                                                                                                  ",
"@ X         O                                                                                       X @ X                       X ",
"# @ X                       *XE.U d U A.T.@X                                    $XI.6...=.:.&...s.  @ @ X   X     +   . .       @ ",
"% % @ @ X   X             $XA.K / A.G.! L U / U.OX  ; O                       W.p.$.y.y.$.#.*.j.-.p.@ @ # X X         . O       X ",
"2 2 % # @ X             OXW U L.#XE.G.=XoXG.! U U ^ U.+                   $Xn.6.,.#.R Y n c  .r.3.;.K.@ $ $ @ X           X X   X ",
"% < < % @ X           oXL ! Q.#X$X$XA.$X*X$X@XQ.H.^ U L !               U.q.;.r.n.R C X. .C K.R.t.g.f.% % % $ @       X   X @ X @ ",
"% % % % # @ @         D.U oX$X$X$X$XQ.G.=X&X$X$X$X@XQ.J.! I ^       $Xi.7.&.j.#.Z A o.0.n.J.&X&XP.=.r.% 1 1 < $ X     @   X @ @ @ ",
"% % % % # X X         U.L @X$X$X$X$X$XG.$X*X$X$X$X$X$X$X@XE.I     T.6.>.v , 2.g.N.V.k.M 8.A A 9.F.%.8.% % 1 1 % @ X   @ @ X % @ # ",
"$ # @ @ @       X X   @XW U.$X$X$X$X$XoXG.=X$X$X$X$X$X$X$X$XD.L ~ $.,.E > y.^.|. X.X.XM.2.&.O.e.b -.f.% % * 2 % % X   X @ # % # # ",
"@ @ X X       @ X X   X A.! $X$X$X$X$XOXJ.$X*X$X$X$X$X$X$X$XoXY :.c.5.a.>..X X%X.X%X/.M.4.c O.X...=.K.2 2 2 2 % @     X % % % % % ",
"X             X @ @ @ % E.W Q.$X$X$X$X$XQ.J.=X&X$X$X$X$X@X+X'.m.r.Z P N z. XXXXX{.[.|.'.:.c 1.2.-.n.1 2 2 2 * % @ @ X # < % % 2 % ",
"        X X   @ @ X $ $ &X! D.#X$X$X$X$XOXU.@X*X$X$X$XoXD.0.V.~.n.R *.w.l. XXXZ.}.[.].N.b N g.t.Y.1 2 2 2 * % $ @ @ @ $ < 2 % < 2 ",
"  @ o X   X X # # @ % # @ J.! oX$X$X$X$X$XE.T.*X&X$X$X~ H.#.C.^.m.;.9.Q k.|.[.[.}. X/...v w.d.< 2 1 1 6 2 * 2 % # @ @ % % < 2 2 2 ",
"X # o @ X @ @ $ # @ # # $ $XW J.$X$X$X$X$XOXT.#X&X$XOX/ _.#.c.^.`.Y T E 2.V./.].].(.b.X.8.L.% 2 6 1 6 6 6 2 2 * 1 % % * 2 2 4 2 6 ",
"@ @ X @ X @ @ $ % # % % % % D.^ OX$X$X$X$X$XT.E.*X&XoX| +X@.j.l.'.a...+.>.X.k.8.5.e.-.d._.< < 2 6 2 6 6 6 6 2 2 2 2 * 2 2 4 4 4 6 ",
"@ @ @ @ @ @ # % % $ % % % % @XL T.#X$X$X$X$XOXU.#X*X#XW #XF.3.4.z.v.M u.u...o. .X.7.P.% 2 < 2 4 6 6 6 6 q q 7 6 6 6 4 4 7 4 e 5 6 ",
"X $ # @ # @ $ % 1 % % % 2 < % / / @X$X$X$X$X$XU.Q.=X$XA.oXQ.6.j.x.!.a.L Q 3.3.,.q._.2 * 2 2 2 6 6 7 6 6 7 7 7 6 6 6 6 6 6 6 7 6 6 ",
"% % # $ % # % 1 1 1 % % 2 1 % OXf oX$X$X$X$X$X@XG.$X*XOX! #XL.8.h.h.`.i B c.<.s.&X6 6 2 2 2 2 6 6 6 6 6 7 7 7 6 6 6 6 6 6 6 6 6 6 ",
"< % < 2 2 % 1 1 2 2 1 1 4 1 < % U A.$X$X$X$X$X$XJ.oX=X$XJ.J.#XF.;.2.B.d.j.@.T.2 * 3 6 2 6 2 6 6 6 6 6 6 6 6 6 6 6 6 6 6 6 6 6 6 6 ",
"% % 2 2 1 2 1 6 2 2 6 4 4 2 < % oXd @X$X$X$X$X$X#XA.*X*X@XD.T.OXJ.9.%.v.Y ^ -X* 2 6 6 6 6 6 6 6 6 6 6 6 6 6 6 6 6 6 6 6 6 6 6 6 6 ",
"2 2 6 2 2 2 2 6 6 2 6 6 2 1 $ # @ L D.$X$X$X$X$X$XJ.Q.-X$XOXG.J.Q.Q.! oXOXi $X* 6 6 6 6 6 6 6 6 6 6 6 7 7 6 6 6 6 6 6 6 6 6 6 6 6 ",
"6 6 6 2 2 2 6 6 6 4 6 2 2 1 % # @ Q.d OX$X$X$X$X$X@X/ =X=X$X#XT.D.D.T.#X*X! ^ 6 6 6 6 6 6 7 6 6 6 6 6 7 7 6 6 6 6 6 6 6 6 6 6 6 6 ",
"6 6 6 6 6 6 7 7 4 4 2 2 % % $ % # @ K G.$X$X$X$X$X$XT.T.=X&X$X$X$X$X$X$X&XoXf 6 6 6 7 6 6 6 6 6 6 7 7 6 6 6 6 6 9 6 6 6 6 6 6 q 6 ",
"6 6 7 6 6 7 7 6 4 2 < < % < % # @ X X f OX$X$X$X$X$X#X^ *X*X$X$X$X$X$X$X$X&X^ ^ 6 6 7 7 6 7 6 6 6 6 7 7 6 6 6 6 9 6 6 6 6 6 6 9 6 ",
"6 6 6 6 6 6 7 6 2 1 * % $ # @     X   L G.$X$X$X$X$X$XT.U.=X$X| L ~ | G.J.Q.Q.L 2 6 6 6 6 6 6 6 6 6 6 6 6 6 6 7 7 6 6 6 6 6 7 7 6 ",
"6 6 6 6 6 7 6 6 6 2 * % @ @ X         X K #X$X$X$X$X$X$X/ *X*X| g z l k j H Q.^ / 7 6 6 6 6 6 6 6 6 6 6 6 6 6 7 6 6 6 6 6 6 7 7 6 ",
"6 6 6 6 6 7 7 6 6 6 2 2 % @   X @   X   U J.$X$X$X$X$X$XQ.J.=XQ.[ ( ) ) ( x | E.I OX7 6 6 6 6 6 8 6 6 6 6 6 6 6 6 6 6 6 6 6 6 6 6 ",
"6 6 6 6 6 6 6 6 6 2 2 % % @   @ o @ X X X I @X$X$X$X$X$X@XA.*X*X} ( ) ] ) h { oXW A.6 6 6 6 6 6 7 2 6 7 7 6 6 7 6 7 6 6 6 6 6 6 6 ",
"6 6 6 6 6 q 7 6 6 % $ $ # @ @ X @ X @ @ @ U U.$X$X$X$X$X$XE.J.=XE.[ _ ` ' ` J J.T.U OX6 6 6 6 6 6 q 2 7 7 2 7 2 7 8 7 2 6 6 6 6 y ",
"6 6 7 6 6 6 6 6 6 1 % $ # @ @ @ @ @ X @ $ D.! @X$X$X$X$X$XoXJ.&X*XoXE.E.T.G.D.E.$XW G.6 6 6 6 6 6 7 7 6 7 2 7 7 6 6 6 6 6 6 6 6 6 ",
"6 7 7 6 6 6 6 6 6 2 % < 1 % @ @ $ @ @ @ $ $ W T.$X$X$X$X$X$XE.T.=X&X$X$X$X$X$X$X&XD.W 6 6 6 6 6 6 7 7 6 7 7 7 9 7 2 7 8 6 6 6 6 6 ",
"6 6 7 6 6 6 6 6 6 6 2 2 2 % # % $ # $ $ $ & / / OX$X$X$X$X$XE.T.=X*X$X$X$X$X$X$XE.! D.6 7 7 6 6 6 6 6 6 7 2 7 0 7 7 6 6 6 6 6 6 7 ",
"6 6 6 6 6 6 6 6 6 6 6 6 2 1 < % $ $ 1 % % 1 1 W E.$X$X$X$X$XQ.T.=X=X$X$XQ.D.! A.! K oX6 6 6 6 6 6 7 6 5 5 y 8 4 6 6 6 6 6 6 6 6 6 ",
"6 7 7 7 6 6 6 6 6 6 6 6 2 1 < % 1 6 2 1 1 2 2 ! A.@X$X$X$X$XE.U.-X=X&XE.L d f K P d D.6 6 6 6 6 7 7 6 6 6 y 8 4 6 6 6 6 5 7 6 6 6 ",
"6 6 7 6 6 6 6 6 6 y 6 6 4 4 1 1 2 4 1 2 1 6 6 4 W oX$X$X$X@XT.Q.-X=X$XU - K I I H p U.6 6 6 6 6 7 6 6 7 F u 6 8 6 4 4 5 7 6 6 6 6 ",
"6 6 q q 6 6 6 6 6 7 6 6 6 6 6 6 4 4 2 2 2 6 6 6 U ^ @X$X$XQ.D.=X=X&XOXf i I I I F I @X6 6 6 6 6 6 q 6 7 F F 6 6 6 9.w 9 q 6 6 6 6 ",
"6 6 6 6 6 6 6 7 6 6 6 6 6 6 6 6 6 6 6 6 6 6 6 6 2 W = K W D.&X-X&X$XoXm i I I I d W 6 6 6 6 6 6 6 6 3 6 6 6 6 6 4 > 6 6 6 6 6 6 2 ",
"6 6 6 6 6 6 7 7 6 6 6 6 6 7 7 6 y 4 6 6 6 6 6 6 6 6 6 i W E.=X-X*X&X+Xx 8 K P K p G.6 6 6 6 6 6 6 7 8 6 q q 6 6 4 6 6 6 6 6 6 7 0 ",
"6 6 6 6 6 6 6 6 6 7 6 6 6 6 6 6 6 6 6 6 6 6 6 6 6 6 6 ! D.E.oX-X-X*X$XG.K p p i / 6 6 6 7 6 6 6 6 6 6 6 6 6 6 6 4 4 6 7 6 6 6 6 7 ",
"r 6 6 6 6 6 6 6 6 6 6 6 6 6 6 6 6 6 6 6 6 6 6 6 6 6 7 J.! $XJ.$X-X=X$X$XOXE./ U 6 6 6 6 6 6 6 6 6 6 6 6 6 7 6 6 4 4 6 6 6 6 6 6 6 ",
"w 6 6 6 6 7 6 6 6 6 6 6 7 6 6 6 6 7 6 6 6 6 6 6 6 6 6 6 f =XOXU.+X=X&X$X$X@X! J.9 6 6 6 6 6 6 6 7 6 6 6 6 6 6 6 7 4 6 6 6 6 7 7 6 ",
"6 6 6 6 6 6 6 6 6 6 6 6 7 7 6 6 6 7 6 6 6 6 6 7 6 6 6 6 i &X=X@XT.T.E.@X@XoXH OX2 6 6 6 6 6 6 6 5 6 6 7 6 6 6 6 4 7 6 6 6 6 6 7 6 ",
"6 6 6 6 6 9 7 6 6 6 6 6 9 7 6 6 6 S 6 6 6 6 6 7 6 6 6 7 K oX-X-X*XOXT.J.S.n.d &X6 6 6 6 6 6 6 6 7 q 7 7 8 2 6 6 7 7 6 6 6 4 4 q 6 ",
"6 6 6 6 6 7 7 6 6 6 6 6 6 6 6 6 6 q 6 6 6 6 6 6 6 6 6 6 ^ U.-X-X-X-X&XoX).W.d &X6 6 6 6 6 6 6 6 6 6 2 7 7 7 6 6 2 7 6 6 6 7 4 7 6 ",
"6 6 9 q 6 6 6 6 6 7 S 6 6 6 6 6 6 7 6 6 6 6 6 y 6 6 6 6 4 / -X-X-X-X*X$X$XOXF *X6 6 6 6 6 6 6 6 6 7 7 7 6 6 6 6 6 7 2 7 7 6 2 6 6 ",
"6 7 7 2 6 6 6 6 6 6 7 6 6 6 6 6 6 7 7 0 7 6 6 7 6 6 6 6 4 K -X-X-X-X*X$X$XOXf #X6 6 7 6 6 7 6 6 6 6 6 6 7 6 6 6 6 6 7 6 4 6 2 2 6 ",
"6 6 7 8 6 6 6 6 6 7 7 6 6 6 6 6 6 7 7 6 6 6 6 6 6 6 6 6 6 d *X=X-X-X*X$X$XOXK OX6 6 6 6 6 6 6 6 6 6 6 6 6 6 6 6 6 6 7 7 6 2 1 1 2 ",
"6 6 6 6 6 6 6 6 6 6 6 6 6 6 6 e 6 8 s 6 6 6 6 6 7 6 6 6 6 I OX-X-X-X&X$X$XOXL oX6 6 6 6 6 6 6 6 7 6 6 6 6 6 6 6 2 2 6 2 6 2 < < 1 ",
"6 6 6 6 6 6 6 6 6 6 6 6 6 6 6 6 9 q 7 7 7 6 6 6 8 6 6 6 6 / T.-X-X-X&X$X$XOXI oX6 6 6 7 6 6 6 6 7 6 6 7 7 7 6 6 1 2 2 2 2 2 % % < ",
"6 7 7 6 6 6 6 6 2 8 6 6 6 6 6 6 0 G 7 7 7 m y 6 q 6 6 6 6 6 A.-X-X-X&X$X$X@XI Q.6 6 6 2 6 6 6 6 7 7 6 6 6 6 6 2 1 4 2 1 2 1 % % % ",
"6 7 7 6 6 6 6 6 7 7 7 6 6 6 6 6 9 D 6 6 7 V t 7 S 6 6 6 6 6 W =X-X-X&X$X$XOXU E.6 6 6 6 6 6 6 6 6 9 6 6 6 6 6 1 1 1 < % % % % % $ ",
"6 6 6 6 6 6 6 6 6 6 6 6 7 7 6 6 6 6 6 6 7 e 7 7 6 6 6 7 6 6 L *X-X-X&X$X$X@X! E.6 7 6 6 7 7 6 6 6 6 6 6 2 4 2 < % % $ % % % @ # # ",
"2 2 2 6 6 6 a 7 6 6 6 6 7 7 6 6 7 6 6 6 6 7 6 6 6 6 7 7 6 6 W OX-X-X*X$X$XOX! E.6 7 6 6 6 6 6 6 6 6 6 4 2 2 < % % $ # # # 2 & @ # ",
"% % 2 2 6 6 8 6 6 6 6 6 7 7 6 6 6 6 6 6 6 6 6 6 6 6 7 7 6 6 ^ Q.-X-X*X$X$XOXW T.6 6 6 6 6 6 6 6 6 7 6 2 % 2 < % @ X @ # % % # X # ",
"% * 2 2 6 6 6 6 6 6 6 6 6 6 6 6 6 6 6 7 6 6 6 6 6 6 6 6 6 6 A.J.-X-X&X$X$X@X! T.6 6 6 6 7 6 6 7 6 6 4 2 1 1 1 % @ X @ # # # # @ @ ",
"* % % 2 2 6 6 7 6 6 6 6 6 6 6 6 6 6 6 7 7 6 6 6 6 6 6 6 6 6 D.^ =X-X*X$X$XOX! U.6 6 6 6 2 6 6 2 2 6 2 1 % < 1 < # @ @ @ @ @ @ @ X ",
"$ @ % 2 2 < 2 6 6 7 6 6 6 6 6 6 6 6 6 7 7 4 6 7 6 6 6 4 6 4 D.K T.$XOXOXoXoX! J.7 6 6 2 2 1 2 % < 2 2 % % $ % % @ @ @ @ @ @ @ @ X ",
"@ @ $ % $ % 1 6 6 4 6 4 6 7 7 6 6 6 6 7 7 4 6 6 6 6 6 7 7 4 / G.@XJ.D.D.D.G.W ^ 6 6 7 2 2 % % % % % < % % % % $ @ X @ @ X @ @ @   ",
"@ @ @ @ # $ < 2 6 7 q 4 6 6 6 6 6 6 6 6 7 7 4 6 6 6 6 6 7 4 / J.-X-X*X$X$XoXD.L 2 7 7 2 2 2 % % % % % % # # # @ @ X @ X X X X X   ",
"X X @ $ % % 1 4 6 7 q 4 6 6 6 6 7 6 6 6 7 7 6 6 6 6 6 7 7 6 A.D.-X-X=X*X*X*XE.6 2 2 2 2 2 2 % % # $ % # @ @ @ @ X   X X X X       ",
"@ X @ # 1 2 4 6 6 7 7 6 6 6 6 6 7 6 6 6 6 6 6 6 6 6 6 6 6 6 U.U $X-X-X-X-XOXU 6 1 2 < 1 % < < $ @ @ # $ @ @ X X X       X         ",
"    @ @ % 1 2 6 6 6 7 6 6 6 6 6 6 6 6 6 6 6 6 6 6 6 6 6 6 6 6 ~ W T.@XOXD.L G.6 2 2 % % % $ % @ @ X @ @ @ @ @ X                   ",
"  X @ @ % < 1 2 6 6 6 6 6 6 6 6 6 6 6 7 7 7 6 6 6 6 7 7 6 6 6 6 T.^ I U D.6 8 7 6 2 % % # X @ # @ @ X @ X   X X @                 ",
"@ $ y % % 1 1 6 6 7 6 6 6 6 6 6 6 6 6 6 6 6 6 6 6 6 6 7 6 6 6 6 6 2 6 6 6 6 6 6 6 6 % $ % @ @ X @   X @ X       @   . :     -     "
};
