/* XPM */
static char *result[] = {
/* columns rows colors chars-per-pixel */
"65 64 240 2 ",
"   c #000001",
".  c #000B00",
"X  c #00010C",
"o  c #000D0E",
"O  c #001600",
"+  c #000313",
"@  c #000817",
"#  c #020719",
"$  c #030B1B",
"%  c #080C1A",
"&  c #10141A",
"*  c #052802",
"=  c #003800",
"-  c #070F20",
";  c #080F20",
":  c #0C1324",
">  c #0F1827",
",  c #101C27",
"<  c #101728",
"1  c #12192A",
"2  c #131933",
"3  c #151A3A",
"4  c #132627",
"5  c #1A2D2A",
"6  c #243736",
"7  c #2B3435",
"8  c #2F4237",
"9  c #364238",
"0  c #45473C",
"q  c #383B45",
"w  c #1E4446",
"e  c #2C4544",
"r  c #3A4A4B",
"t  c #2B4D55",
"y  c #364F53",
"u  c #3A5957",
"i  c #3E605F",
"p  c #3A4F63",
"a  c #3D5B64",
"s  c #3F6366",
"d  c #464B47",
"f  c #4C5349",
"g  c #535648",
"h  c #4A4B55",
"j  c #4B5354",
"k  c #485958",
"l  c #535D54",
"z  c #53555D",
"x  c #545E5E",
"c  c #5A5E5D",
"v  c #4C6046",
"b  c #4A625D",
"n  c #576359",
"m  c #5B635C",
"M  c #676759",
"N  c #64725C",
"B  c #485E65",
"V  c #5A5B63",
"C  c #496768",
"Z  c #546464",
"A  c #5B6663",
"S  c #576967",
"D  c #546B6C",
"F  c #5B6C6C",
"G  c #59746A",
"H  c #4A6C72",
"J  c #5A6C72",
"K  c #547376",
"L  c #5B7373",
"P  c #5B7B7D",
"I  c #676B67",
"U  c #646D6B",
"Y  c #726E6B",
"T  c #677468",
"R  c #6A736C",
"E  c #737768",
"W  c #636C71",
"Q  c #637675",
"!  c #697676",
"~  c #627A73",
"^  c #647C7C",
"/  c #6B7C7D",
"(  c #757B73",
")  c #737B7B",
"_  c #797C79",
"`  c #6F806F",
"'  c #79856D",
"]  c #6C8379",
"[  c #74837E",
"{  c #78877A",
"}  c #7A837C",
"|  c #838575",
" . c #82857A",
".. c #878979",
"X. c #979270",
"o. c #95967B",
"O. c #A1A17E",
"+. c #B3A97B",
"@. c #5A7A85",
"#. c #607E86",
"$. c #6C7E81",
"%. c #787E82",
"&. c #5F828E",
"*. c #648283",
"=. c #6C8484",
"-. c #6A8989",
";. c #748483",
":. c #7D8583",
">. c #768A89",
",. c #7C8B8B",
"<. c #78928A",
"1. c #6A8B94",
"2. c #7A8D95",
"3. c #7B9394",
"4. c #78979B",
"5. c #7B9AA5",
"6. c #898D83",
"7. c #848A88",
"8. c #859489",
"9. c #8D948C",
"0. c #949688",
"q. c #9B9B8B",
"w. c #888E92",
"e. c #849393",
"r. c #8B9392",
"t. c #889A96",
"y. c #939694",
"u. c #939A93",
"i. c #979997",
"p. c #939C9A",
"a. c #9A9D9D",
"s. c #A59E8E",
"d. c #9CA18D",
"f. c #89A19A",
"g. c #9DA395",
"h. c #95A798",
"j. c #95A39D",
"k. c #9CA39C",
"l. c #AAA888",
"z. c #B4A886",
"x. c #A4A396",
"c. c #A5A59B",
"v. c #A4AA9D",
"b. c #AAAB98",
"n. c #B1AC9B",
"m. c #B0B292",
"M. c #B6B59A",
"N. c #8C9BA3",
"B. c #959DA1",
"V. c #AB9FA0",
"C. c #8AA6A6",
"Z. c #9CA4A3",
"A. c #98A9A6",
"S. c #9EADAB",
"D. c #99B2AB",
"F. c #8BA5B4",
"G. c #9CAAB4",
"H. c #98B2B5",
"J. c #A2A4A4",
"K. c #A3ACA5",
"L. c #ACACA3",
"P. c #A2A6A9",
"I. c #A3ADAB",
"U. c #ABACAC",
"Y. c #B5ADA5",
"T. c #ACB3A4",
"R. c #A7B6A9",
"E. c #A6B2AD",
"W. c #ABB3AC",
"Q. c #B2B3A5",
"!. c #B7B9A9",
"~. c #B4BBAC",
"^. c #A4ADB2",
"/. c #ADADB2",
"(. c #B6AEB4",
"). c #A3B4B4",
"_. c #ABB3B2",
"`. c #ADBBB4",
"'. c #A4B5BA",
"]. c #A7B8B9",
"[. c #ACBABC",
"{. c #B3B3B4",
"}. c #B6B9B7",
"|. c #B3BCBB",
" X c #C5BD8D",
".X c #C3BA98",
"XX c #C4B7A5",
"oX c #BCC0AE",
"OX c #B9C3B7",
"+X c #BAC3BC",
"@X c #CFC99C",
"#X c #C7C5AC",
"$X c #C2C4B4",
"%X c #C7C7B9",
"&X c #D4D1B1",
"*X c #D7D6B7",
"=X c #E7DEAB",
"-X c #9FB7C8",
";X c #A7B6C6",
":X c #B6BEC3",
">X c #ABC6C7",
",X c #B3C3C5",
"<X c #BBC4C3",
"1X c #B8C9CA",
"2X c #BBD1CF",
"3X c #B8CED3",
"4X c #BED1D4",
"5X c #BCD9DF",
"6X c #C4CAC3",
"7X c #C8CBC7",
"8X c #C4CBCB",
"9X c #CCD2C7",
"0X c #D2D2C5",
"qX c #D7DAC7",
"wX c #C6CFD1",
"eX c #C8D6D6",
"rX c #CCDBDB",
"tX c #D5DAD5",
"yX c #D3DCDC",
"uX c #D8E3DB",
"iX c #E3E8D7",
"pX c #EEEED1",
"aX c #CDDCE3",
"sX c #D1DCE1",
"dX c #CCE5EA",
"fX c #DAE4E4",
"gX c #D4E4EB",
"hX c #D6E7EA",
"jX c #DBE5EA",
"kX c #D9ECF2",
"lX c #DCF0F6",
"zX c #E4EAE8",
"xX c #EAF1E8",
"cX c #F3F6E8",
"vX c #E3EDF1",
"bX c #E3F3F5",
"nX c #E5F7FA",
"mX c #ECFBFD",
"MX c #F3FCFC",
"NX c #F9FFFF",
/* pixels */
"                                                                                                                                  ",
"+ X         O                                                                                       X + X                       X ",
"@ + X                                 . .                                             .   X X       + + X   X     O   . .       X ",
"$ $ + + X   X                               &       * O                                   X + X X X + + @ X X         . O       + ",
": : $ $ X X                                 &     . * O .                                   X + X + + # $ @ + X           X X   + ",
"$ ; - - @ X                     .                                                 X X       X + + + @ $ $ $ # +       X   X X + + ",
"$ $ $ $ @ + +                                                                   X X X X X X + + X + $ $ ; ; $ + X     + X   + + + ",
"$ $ $ $ @ X X                                                               X X + X X + # + + $ # $ $ $ $ : : $ + X   X + + $ + + ",
"# @ + + +       +                     .           =                   X X X X X $ X + + + + @ $ $ $ $ - $ - : $ $ X   X + # $ # # ",
"+ + X X       + + X   X X                                       X X   X X X + + + @ X + + + @ # $ $ $ : - : : - +     X $ $ $ $ # ",
"X             X X + + # + + X                               X + @ # X X X + + @ + + + + + + $ - - $ - : > : $ $ + + X @ - $ $ : $ ",
"  X     X X   + + + @ $ + +       X                   X     X + + % % + + + + + @ @ # + X + $ : : $ : : : - $ $ + + + # - : $ : ; ",
"  + o X   X X @ @ + $ # + + X   X +                 X @ X X X + + # # @ @ @ + + 1 $ @ + + @ @ $ < ; : : : : : $ # + @ $ $ - : : < ",
"X X o + X + + # @ + $ $ $ @ + + # + X                 @ + + + # @ $ # # @ @ + + 5 @ $ # # $ $ : < : : < < : : - ; # $ - : : : > < ",
"+ + X + X + + @ $ @ $ $ $ $ # + + + X   X             @ + + + $ $ # # $ @ $ @ @ # $ $ $ $ $ : : < < < < < < : : : : : : > > > > < ",
"+ + + + + + @ $ $ $ $ $ $ $ # # $ +                   + $ - # 7X6X7X$ $ # # $ @ $ ; ; $ : ; : : < < < < 2 3 1 < < < > : > > 4 , < ",
"X # @ + @ + @ % - - $ $ : - - $ +       X       X     X (._ 7.(.tXtXU.7X- - $ $ ; : > ; : : : < < < < < 2 < < < < < < < < < 1 : < ",
"$ $ @ $ $ # $ ; ; ; $ $ : ; $ + + + + + +       + + + %.vXMXMXzXMXfXMX7X:.$ $ % ; < : : : : : < < < < < 1 1 < < < < < < < < < 1 < ",
"- $ $ : : - ; ; : : ; : : : - - # + # + +       + + ! sXNXzXjXjXxXjXxXnX|.) % : ; < < : < : > < < < < < < < < < < < < < < < < < < ",
"$ - : : ; ; ; < < : : < : : - $ + + + X           ! [.mXsXbXvXvXvXMXmXjXbXp.: ; > < < < < < < < < < < < < < < < < < < < < < < < < ",
": : < : : : : < < : 1 : : ; # @ + X X X X       t.e.MXkXaXjX4XkXjXvXgXfXmXrX: ; < < < < < < < < < < < 1 1 1 < < < < < < 1 < < < < ",
"< < < : : : : < < < < : : ; $ @ + + + + X       w.1XbXMXgXjXkXnXgXvXjXgXmXmX< : < < < < < 1 < < < < 1 1 1 > < < < < < < < < < < < ",
"< < < < < 1 1 1 1 < : : $ $ % $ # @ + + X   X S.rX5XnXkXgXvXnXaXbXbXmXnXI.S.< < < < < 1 < < < > < 1 1 : 1 < < < 2 < < < < < < 2 < ",
"< < 1 < < 1 1 1 : : - $ $ : # @ + X X       X j.aXkXlXaXlX4X3X:X,XG.bX8XF ,.< < < 1 , < < 1 < : < y.I r.S.}.< < 2 < < < < < < 2 < ",
"< < < < < < 1 < : : $ $ # # + X   X       X X C.vXdXdXdXlXD P ;.e.$.lX[.d ;.< < < < < < < < , xX} _ y.U 7.7.%.%.w.A.4XgX< 1 1 1 < ",
"< < < < < 1 < < < : : $ + +         X     X D.~ nXkXnXkXgXC $.2.3.^ bX8XS e.< < < < < < < < zXT.m ( p.8.P._ _ w.A.4.H e Q 1 1 1 1 ",
"< < < < < 1 1 < 1 : : - # +   X +   X   X X C.*.5X3X3X>X>XL 3.=.;.$.rX].! w.< < : 2 1 1 < < cX9 g d l g._ x S '.#.4.-.4.-.1 : 1 1 ",
"< < < < < < < < < : : - $ @   X a.<Xe.[.H.1.H.u @.&.H &.=.=.=.H Q $.$.Z %.) wX< 1 }._.tX< < 0X0 0 { x.m E } j C a 1.C.P 1.1 : 1 1 ",
"< < < < < 3 1 < : ; @ @ + X X + p.OX).^ D C >Xt 1.&.1.G G K =.] $.D Q W t.! _.< > p.R p.+XxXqXg | d.' T ..{ e e H H s H.5.< < < 4 ",
"< < 1 < < < < < | f 0XY.0X}.a.9.fX,XS P *.*.4.t 5.t H C.<.] >.>.$.$.$.W ,.%.p.1 1 r.A m v OXv...x.d.N E g n 6 y &.s w dX^ < < < < ",
"< 1 1 < < < < < 0 E | g M 6.6.y.xX] S ] 1.4.5.P &.s a >.` <.K ~ >.Q J W 7.,.r.yX<X`.f A R oXT ..x.' | g f 0 6 8 -.u C F.P < < < 1 ",
"< < 1 < < < < < 0 Y !.M E Q.6X6.eXn S 4.-.4.K 3.K H K G ] ] 3.G ! 2.B L Q ! S eXrXfXF j A ` ( q.' E !.n.N f v 8 i >X4.$.6 < < < 1 ",
"< < < < < < < Q.~.Q.q.oXx.~.R.n ~ ,X1X1.e C.u J e.Z.<.N ` 9.S ~ B ! B F F Q S OXaX:X$.).Z.{ v.%XoXv.x.Q.*X$X(.9.8 ~ C ~ ] 1 < < < ",
"< < 1 1 < < c.L.$Xo.M.m.d.g.I :.n ] G H.D.C.b L [ Z.` T N T G b B J J J Z L L D.N.^.B.Z.m 7...E ' W.0X$XY | ..!.OXA.{ ].1 1 < < < ",
"< < < < < c.v.Q.b.#X0.M.m.oXK.T t.G t.<.4.-.C.<Xr.u.6.n m l ] b $.2.N.C.f.D.D.D.,.N.$.w.w.l uXcXiXb.g.x.qXY.n...N OXMXMX1 < < < < ",
"< < 3 3 Q.c.x.0.oX!.#XQ.$XR.R.`.n ] D ~ ^ L / %.K.{ T h.d.T.' { /.^.:XF.f.h.h.<.J h w.,.,.`.tXuX9XcXcX$Xi.Y XXqXu.E rXuX3 < < < < ",
"< < < x.x.0.d.d.oX9X0X%X~.W.~.h.{ <.;.;.! R U I ` { G ] b ' ' ` { 8.] M.l.O.#Xm.Y h ( B.mX<XMXuXxXiX0X7XwXwXtXxXc 6XW.|.< < < < < ",
"< < 1 6.v.M.b.!.~.oXOX6X9XR.l [ ] h.e.j.7._ 7.r.t.f.<.~ { v ` ' t.G ] d.m.d.X.d.Y.zX8X8X].dXrXxXtX0X9X<X8XtXMXwX6X%.i./.< < < 1 2 ",
"< < 1 x.W.OX~.oXQ.R.oXOX7XR.7 n n ;.t.8.r.w.i.r.8.<.~ S lX{ 5 ` t.b f...m.*XO.pX6.tX6XbXeXhXbXrX7X%X9X<X8XsXwXwX8X8XY _.< < < < 1 ",
"4 < < W.T.T.K.oXR.R.E.R.OXh.m 9 b n b F %.r.p.w.A.f.C D K G ` *.^ ;.rX&XM. XM.*XM zXyXkXlX3X,X|.6X7X+XrXgXsX:XJ.U./.7.W.< < < < < ",
"4 : < W.v.Z.k.W.R.K.E.E.E.U I m R k k V z z V ! >.<.f.@.@.<.] e =.A.2XqX*X+.@Xm.n.7XtXvXdX>X4X'.+X+X<XfXsX1Xp._.Z.}.c |.1 < 1 1 < ",
"> > : K.g.K.K.E.K.K.K.E.W.9 f U b d k V z W h q r u *.C 1.&.1.s mXhXuXiXpX&X@X XqXY |.<XeX;XrXwXyXzXfX:X'.'.<X}.w.R J.< < < 1 1 < ",
"< < < < :.Z.E.E.j.j.Z.E.OX( g f m n r j I W h q b -.C P t 5.1.a kX2X+XqX%X.X+.=X#XQ.y.<X;XgXgXeXyXwX|.).^.G.<Xk.R i._.< < < < 3 < ",
"< < < < {.r.r.r.j.A.E.j.<.i.d 0 l U Z z q q h V u D H H 6 s 5.@.3X>XR.oXz. Xz.@XXX!.I eXaXdXeXwX_.Z.W.[.).).P.J.i.k.< < < < < 2 < ",
"< 1 2 3 > W.p.r._.j.7.Z.`.Y.M c f f d c V V z q k C K i @.@.B 5.H.].`.6X$XM.+.+.XX0X .eXyX^.;X_.<X6X_.p.).1XZ.A k.1 < 1 < < < < < ",
"< 1 : 1 > 1 : y.r.k._.u.7.| o.u._ I j h h h V h S i G C p #.p ;X>XD.W.U.%X&X&X+..X*Xn._ 8X:XG./.U.Z.K.+Xj.Q ;.W.< < < < < < ; : < ",
"< < 1 2 1 : 1 1 r.u.7.0.9.q.M.| x.g.i.V.B.B.i.%.C u b A.B p F.F.].D.OXJ.U.(.XXX.z.z.Y...Z.B.:X8XJ._ ( Z._._.< < < < 1 1 1 : % : : ",
"< < 1 : 1 1 1 : < < < K...#Xo.| v.u.y.i.w.(.:X(.D.<.u 5 y 2.;X;X-XD.`.}.(.V.s.X.z..Xn..._ S.w.I 7.0.y.{.< < < : : : < : < : ; $ ; ",
"< : 1 < < < < 1 : 1 < < < < | ..x.6.k.a.J.(.P./.).4X].R.h.>XG.;X;X[.P./.(.(.Y.z.XXl.M.c.( 7.B.B.c.{.< < 1 1 < < - ; : : : : $ $ ; ",
"1 1 1 < < < : 1 < 2 < < < < < < 3 6. .y.(.{.(.U.Z.I.E.R.R.].'.'.^.P./.}.(.(.Y.s.b.s.Y.Y.0.a.{.< < 2 < < 1 1 < < - < : : : - $ $ $ ",
"1 1 1 1 < < < 1 < 1 1 < < < < < 2 3 1 (.r.a.P.U./.{.`.`.W._._._.^.U.(./.(.U.L.L.0XL.L.7X< < < < < 1 < < 1 1 : : - ; - $ $ $ $ $ # ",
"< < < < < < < 1 < < < < 1 1 < < < < < < < 4 < < < < 1 : < < < < < < < 1 < < < < < < < < < < < < 1 < < < : : : ; - # # # $ # @ @ @ ",
": : : < < < 7 1 < < < < 1 1 < < 1 < < < < 1 < < < < 1 1 < < 1 < < < < < 1 < < < < < < < 1 1 < < < < < < ; : - $ $ @ @ @ $ > % + @ ",
"% $ : : < < 1 < < < < < 1 1 < < < < < < < < < < < < 1 1 < < < < < < < < < < < < < < < < : 1 < < < 1 < : ; : - $ + + + @ @ $ + + @ ",
"$ ; : : : 1 1 1 < < < < < < < < < < 1 1 < < < < < < < < < < < < < 1 < < < < < < < < < < 1 1 1 : < < < ; ; ; ; # X + + @ @ @ @ X + ",
"$ $ $ : 1 : < 1 < < < < < < < < < < < 1 1 < < 1 < < < < < < < < < 1 1 < < < < 1 < < < < : 1 : : : < < - $ - ; - $ X + + + + @ + X ",
"# + - : : - : < < 1 < < < < < < < < < < < < < 1 < < < < 1 < < < < < < < < < < q 1 < < : : : : - $ : : $ $ $ $ $ + + + + + + + + X ",
"+ + # $ $ $ ; < < < < < < 1 1 < < < < 1 < < < < < < < < 1 1 < < < < < < < < < < < 1 < : : $ $ $ $ - - $ $ $ $ # + X + + + + + +   ",
"+ + + + + # - : < < 2 < < < < < < < < < 1 1 < < < < < 1 < < < < < < < 1 1 < < < : 1 1 : : ; - $ $ $ $ $ @ @ # + + X + X X + X     ",
"X X + # $ $ ; : < 2 3 < < < < < 1 < < < 1 1 < 1 < < < < 1 1 < < < < < 1 < < < < : : : : : : $ $ # # $ @ + + + + X   X X X X       ",
"X   + # - : : < < 1 1 < < < < < 1 < < < < < < 1 < < < < < < 1 < < < < < < < < < : : $ % $ - - @ + + + $ # X + X X       X         ",
"  X + @ - ; < < < < 1 < < < < < < < < < < < < < < < < < < < < < < < < < < < < < : : - $ $ $ # + + + + + + + X X                   ",
"  + + + $ ; ; : < < < < < < < < < < 1 1 1 < < < < < 1 1 < < < < < 1 1 1 < < 1 1 < : $ $ @ X + @ + + X + X   X X +                 ",
"+ % 4 $ $ ; ; < < 1 < < < < < < < < < < < < < < < < < 1 < < < < < < < < < < < 1 < < $ # $ + + + +   X X X       +   O *   . &     "
};
