/* XPM */
static char *result[] = {
/* columns rows colors chars-per-pixel */
"65 64 134 2 ",
"   c #000000",
".  c #000B00",
"X  c #00010C",
"o  c #000A0E",
"O  c #110000",
"+  c #001500",
"@  c #001A00",
"#  c #111100",
"$  c #000313",
"%  c #000817",
"&  c #030B1B",
"*  c #050A19",
"=  c #110011",
"-  c #07101F",
";  c #111111",
":  c #181818",
">  c #220000",
",  c #330000",
"<  c #220011",
"1  c #330011",
"2  c #221111",
"3  c #003100",
"4  c #002211",
"5  c #112211",
"6  c #103E1E",
"7  c #222211",
"8  c #223311",
"9  c #333311",
"0  c #070F20",
"q  c #080F20",
"w  c #0C1324",
"e  c #0F1825",
"r  c #111122",
"t  c #101728",
"y  c #12192A",
"u  c #131D29",
"i  c #111133",
"p  c #131933",
"a  c #151A3A",
"s  c #331122",
"d  c #0F2E22",
"f  c #112223",
"g  c #152629",
"h  c #1E2432",
"j  c #113333",
"k  c #222222",
"l  c #332222",
"z  c #333322",
"x  c #282E3A",
"c  c #332233",
"v  c gray20",
"b  c #440011",
"n  c #551122",
"m  c #441133",
"M  c #551133",
"N  c #442222",
"B  c #443333",
"V  c #553333",
"C  c #334422",
"Z  c #224433",
"A  c #335533",
"S  c #444422",
"D  c #555522",
"F  c #444433",
"G  c #446622",
"H  c #446633",
"J  c #557733",
"K  c #666633",
"L  c #777733",
"P  c #181E42",
"I  c #1C2247",
"U  c #222244",
"Y  c #333344",
"T  c #222255",
"R  c #333366",
"E  c #551144",
"W  c #662255",
"Q  c #772255",
"!  c #334444",
"~  c #225544",
"^  c #336655",
"/  c #334477",
"(  c #337766",
")  c #444444",
"_  c #554455",
"`  c #555555",
"'  c #666644",
"]  c #776644",
"[  c #665566",
"{  c gray40",
"}  c #777777",
"|  c #882266",
" . c #992277",
".. c #AA3377",
"X. c #887755",
"o. c #668833",
"O. c #528653",
"+. c #669944",
"@. c #77AA44",
"#. c #77BB55",
"$. c #448866",
"%. c #559966",
"&. c #449977",
"*. c #55AA77",
"=. c #77BB66",
"-. c #66BB77",
";. c #77CC66",
":. c #999944",
">. c #88BB55",
",. c #AAAA55",
"<. c #BBBB55",
"1. c #888866",
"2. c #BBBB77",
"3. c #CCBB66",
"4. c #88CC55",
"5. c #99CC55",
"6. c #88CC66",
"7. c #CCCC66",
"8. c #DDDD77",
"9. c #EEEE77",
"0. c #444488",
"q. c #5555AA",
"w. c #BB3388",
"e. c #CC3399",
"r. c #DD44AA",
"t. c #778888",
"y. c #55AA88",
"u. c #889988",
"i. c #99AA99",
"p. c #AABBAA",
"a. c #DDDD99",
"s. c #EEDD99",
"d. c #BBCCCC",
"f. c #CCDDCC",
/* pixels */
"                                            2 V V V V V V V V V V V V V V V V                         X                           ",
"$ X         +                               V V V V V V V V V V V V V V V V V                       X X X                       X ",
"% $ X                                       V V V V V V V V V V V V V V V V V         .   X X     X $ $ $   X     @   . .       $ ",
"& & % $   X X                             N V V V V V V V V V V V V V V V V V B           $ X X   X $ $ $ X $         . +   X   X ",
"w w & % $ X                               V V V V V V V V V V V V V V V V V V V ;         X X X $ $ % % % % $ X             $   $ ",
"& q w & $ X                     .       l V V V V V V V V V V V V V V V V V V V V ;         X $ X $ % & & 0 % $       X   X $ $ $ ",
"& & & & & $ $                           V V V V V V V V V V V V V V V V V V V V V l       X $ $ $ $ & & q q 0 $ X     $   X $ $ $ ",
"& & & & $ $ X                           V V V V V V V V V V V V V V V V V V V V V V       $ $ & % % & & & q q & $ $   $ $ X & $ $ ",
"% % $ X $ X     $                       V V V V V V V V V V V V V V V V V V V V V V         % & & & & w & 0 t & % X   X $ % & % & ",
"$ $ X X       X $ X   X X             ; O ; l V V V V V V V V V V V V V V V V N l N 2           % & & & w 0 w & $ X   $ & & & & & ",
"X             $ $ $ $ &               l           ; 2 l l l l l l 2 2 2 O O         2               w w t w & & $ X X $ & & & w & ",
"  X X   $     $                 V V V V V V l 2 O                       O O ; 2 l B V V V B                       $ $ & w w & w q ",
"  o o X X                   l B V V V V V V V V V V V N l l l l l V V V V V V V V V V V V V B 2                       & & 0 w w e ",
"X $                   2 V V V V V V V V V V V V V V V V V V V V V V V V V V V V V V V V V V V V V V 2 O               0 w w t e t ",
"$ $               ; V V V V V V V V V V V V V V V V V V V V V V V V V V V V V V V V V V V V V V V V V V l O           w w t t t t ",
"$ $       ; 2 l l l l 2 2 ; O O O O O O ; 2 l B V V V V V V V V V V V V V V V V V V V V 2 O                           t t t d e t ",
"$ %                                             ; V V V V V V V V V V V V V V V V B ;                             t t t t t u t t ",
"& & %                       M r.r.  r q.q.q.$         l V V V V V V V V l 2           U     r.r.e.      y t t t t t t t t t t t t ",
"q & 0 w w                   w.r. .  R q.q.q.q.R           O O                     U q.q.    r.r.r.W     t t t t t t t t t t t t t ",
"& & w w q w                 r.r.s       r R q.q.q.0.r       = m E       r q.q.q.q.R         r.r.r.r.      t t t t t t t t t t t t ",
"q w e w w         <       = r.r.| <         i 0.q.q.q.$       =       R q.q.q.U           < r.r.r.r.      t t t t t t t t t t t t ",
"t t t e w       M r.r.|   M r.r.r.W   7 9.<.      / q.q.q.0.T U T q.q.q.q.      9 ,.8.S   | r.r.r.r.        t t t t t t t t t t t ",
"t t t t t         | r.r.  E r.r.w.  ; 8.9.9.<.9     i q.q.q.q.q.q.q.q.q.U     <.9.9.9.8.  = r.r.r.r.        t t p t t t t t t p t ",
"t t t t t t         e.r...r.r.r.E   <.9.9.9.L 9       0.q.q.q.q.q.q.q.r     7 9.9.9.9.9.    r.r.r.r.|       t t p t t t t t t p t ",
"t t t t t t t         ..r.r.r.r.    9.9.9.9.      9.K     r T R T             7.9.9.9.9.    r.r.r.r.r.r.      u u t t t t t y u t ",
"t t t t t y t       w.r.r.r.r.r.    9.9.9.3.      <.9.9               <.      :.9.9.9.9.9   r.r.r.r.r.r.      y t t t t t t y y t ",
"t t t t t u y       r.r.r.r.r.r.    9.9.9.<.      <.9.9.9.L     9 9.9.9.      L 9.9.9.9.;   r.r.r.r.r.r.      t t t t t t t t t t ",
"t t t t t t t       r.r.r.r.r.r.    9.9.9.<.      <.9.9.9.        9.9.9.      L 9.9.9.9.    r.r.r.r.r.|       t t t t y t t t t t ",
"t t t t t a y       W r.r.r.r.r.    9.9.9.9.      9.9.9.L   M     9.9.9.D     8.9.9.9.9.    r.r.r.r.        t t y p t y t t t y h ",
"t t y t t t t           s m r.r.M   :.9.9.9.      9.9.8.  = r.M   7.9.9.7.    9.9.9.9.8.  = r.r.r.r.        t t t t t y t t t t t ",
"t y u t t t t t         = W r.r.r.|     8.9.9.9.9.9.9.D   e.r.r.M   7 9.9.9.9.9.9.9.D   < r.r.r.r.r.s       u p t t t u t t t t y ",
"t t y t t t t t t t     m r.r.r.r.r.      D 9.9.9.9.,.    r.r.r.e.    D 3.9.9.9.9.<.    w.r.r.r.r.r.      t y a t t t t t t t t t ",
"t t t t t t t t t t       E r.r.r.r.r.r.<             =   e.r.w.=   |               M e.r.r.r.r.r.r.      h u t t y t t t t t t t ",
"t t y y t t t t t t         r.r.r.r.r.r.r.w.E s s E | |   W r.      e.M             e.r.r.r.r.r.r.r.      u u y t y t t y y t t t ",
"t t t t t t t t t h t       r.r.r.r.r.r.              w. .      =       ;     b ,     < r.r.r.r.r.M     I I u p t t t t y t t t t ",
"t t p a t t e t t y t       r.r.r.r.r.w.    > O         s             1.s.    b b b     r.r.r.r.w.      U I t t t O.d p a t t t t ",
"t t t t t t t t t t t       e.r.r.r.r.s   b b b   z s.        O > b O   X.    O b b O   r.r.r.r.        t t t t t 6 t t t t t t t ",
"t t t t t t h t t t t t     = | r.r.r.s O b >       ]     b b b b b 1             b     r.r.r.r.      t a a t t t t t t t t t t p ",
"t t y t t t t t t t t t             r.M       ;       O b b b b b b b , O   F 7         r.r.w.      t t e t t t t t t y t t t t t ",
"g t t t t t t t t t t t t       < ..r. .    7 a.z   O b   O b 1     b b     s.2.      < r.r.=       t t t t y t t t t t t t t t t ",
"d t t t t y t t t t t t       #     r.r.    ; 1.s.  >                 O   a.s.'     | r.e.<       y t t t t t t t t t t t t y y t ",
"t t t t t t t t t t t t       +.    | r.w.=                     7         2.'       r.r.<         t t t t t t t t y t t t t y t t ",
"t t t t y p y t t t t t     8 6.^     M r.e.            ;       F z             < w.r. .            t y y t t t t t t t t t t a y ",
"t t t t t y y t t t t       y.y.y.y.4     M   W r.w. .M s               s <     | |     ~ y.^       t y y t t t t t t t t t t p y ",
"t t p a t t t t t p P       y.y.y.y.&.        ..r.r.r.r.r.r...    r.r.r.r.r.W         4 y.y.y.      u y t t t t t y t t t t t t t ",
"t t y y t t t t t t t       =.5.5.6.y.  5 $.  M r.r.r.r.r.r.|   W r.r.r.r.r.r.<     y.-.5.5.-.~     t t t t t t t t t t t t w w t ",
"t t y u t t t t t t u       5.5.5.5.&.  ~ y.    w.r.r.r.r.r.m   e.r.r.r.r.r.r.W     -.5.5.5.5.A     t t t t t t t t y t t w - - w ",
"t t t t t t t t t t t       5.5.4.5.J   $.*.8     ..r.r.r...  E r.r.r.r.r.r.r.      5.5.6.6.5.J     t t t t t t w t t w t w q - q ",
"t t t t t t t t t y t       6.*.y.6.C   -.4.>.5     = W W       e.r.r.r.r.r.r.      5.5.y.y.5.+.    t t y t t t q w w w t w 0 & q ",
"t y y t t t t t t p       f y.y.y.y.5   5.5.5.5.6.~ 5     C #.    Q e.r.r.M     8   %.y.y.y.y.$.    t t y t t w q t q q w q & & & ",
"t y y y t t t t t y       Z y.y.y.y.f   5.5.5.=.y.y.y.5.5.5.5.5       r.r.    @.+.  ( y.*.-.y.y.    t t t t t q q q & 0 & & & % % ",
"t t t t t t t y t t       $.5.5.5.6.f   5.6.y.y.y.*.y.y.*.5.5.5.6.^     =   j 4.5.  ~ -.5.5.4.-.      t w t w q 0 & & % & & $ % % ",
"w w w y y t x y t t       5 C G +.+.5   6.y.y.y.-.4.-.y.y.;.5.=.y.y.(       &.*.6.  A #.+.o.8 8       e q w q & & % % % & e * $ % ",
"& 0 w w t t y t t t t                   y.y.;.5.5.5.5.;.y.y.y.y.y.6.5.5.5.5.=.y.y.f                 t w q w 0 & $ $ $ $ % & % $ % ",
"& 0 q w w t t y t t t         1 n O     y.*.5.5.5.5.5.5.6.y.y.y.-.5.5.5.5.5.5.y.y.f     n n         t w q w q & X $ $ % % % $ $ $ ",
"0 % 0 q t t t y t t t t                 5.5.5.5.5.5.5.5.5.5.6.5.5.5.5.5.5.5.5.5.#.H               t t - & & q 0 % $ $ $ $ $ % $ X ",
"% $ & w w q w t t y t       i.{ v `               8 8 C G G G G J +.+.o.G G 8       k } v `         w & & & & % $ $ $ $ $ $ $ $ X ",
"$ $ * & & & q t t t t       f.f.f.f.      k c c k ; ;                         k     { f.f.f.u.      0 & & & & * $ X $ $ X $ $ $   ",
"$ $ $ % % % & w t y       ; ! p.f.f.      ) [ [ [ [ [ [           ) ) ) [ [ [ )     } f.f.p.t.      & & % % % $ $ X $ X $ X X X   ",
"$ X $ % & & w r t y           v           ) [ [ [ [ [ [           [ [ [ [ [ [ )         d.v         & % $ $ $ $ X   X X X X       ",
"X X $ % q w w t t t           k           ) [ [ [ [ [ )           [ [ [ [ [ [ )         t.            & % X $ X X       X         ",
"    $ % & q t t t t                       Y [ [ [ [ [ _           [ [ [ [ [ [ c                       $ $ $ $ X X                 ",
"  X $ $ & - w w t                         r [ [ [ [ [ [           [ [ [ [ [ [ ;                       $ X   X $ X                 ",
"$ & h & & - - t t y                       ; [ [ [ [ [ [           [ [ [ [ [ [ ;                       X X       $   + 3     : X   "
};
