/* XPM */
static char *result[] = {
/* columns rows colors chars-per-pixel */
"64 67 193 2 ",
"   c #000000",
".  c #0A0304",
"X  c #0A0B05",
"o  c #0D0309",
"O  c #0C0A0A",
"+  c #04060C",
"@  c #120504",
"#  c #180605",
"$  c #12030C",
"%  c #1A030D",
"&  c #150D0D",
"*  c #1C0E0E",
"=  c #1A0B07",
"-  c #0C1509",
";  c #131D0B",
":  c #17170B",
">  c #100B10",
",  c #1A0912",
"<  c #1D0817",
"1  c #0B1B18",
"2  c #141414",
"3  c #1D1414",
"4  c #1C1B1D",
"5  c #101019",
"6  c #080B13",
"7  c #230003",
"8  c #28050A",
"9  c #35000D",
"0  c #320D0C",
"q  c #220615",
"w  c #200A17",
"e  c #250A1B",
"r  c #2B0B1D",
"t  c #24061A",
"y  c #330011",
"u  c #320A1E",
"i  c #241313",
"p  c #271818",
"a  c #2B1919",
"s  c #291616",
"d  c #311A1A",
"f  c #17250E",
"g  c #19251A",
"h  c #292F15",
"j  c #1B1B38",
"k  c #15152A",
"l  c #2D0C23",
"z  c #340D24",
"x  c #350D29",
"c  c #3C0F2B",
"v  c #211F21",
"b  c #3C112C",
"n  c #351127",
"m  c #3F0D34",
"M  c #122F27",
"N  c #252427",
"B  c #2A2A2C",
"V  c #312222",
"C  c #3B2222",
"Z  c #332B35",
"A  c #343537",
"S  c #272632",
"D  c #440011",
"F  c #4A1811",
"G  c #431B0E",
"H  c #462011",
"J  c #41102D",
"K  c #4A1435",
"L  c #4E143A",
"P  c #451631",
"I  c #52153B",
"U  c #54193C",
"Y  c #571337",
"T  c #480E2D",
"R  c #442525",
"E  c #452C2C",
"W  c #4C2D2D",
"Q  c #482727",
"!  c #4D3131",
"~  c #553333",
"^  c #2D401A",
"/  c #385425",
"(  c #3D5C27",
")  c #284634",
"_  c #2D5030",
"`  c #4F542A",
"'  c #526F2E",
"]  c #4C6F31",
"[  c #446431",
"{  c #507333",
"}  c #7B7B37",
"|  c #67672F",
" . c #1C2541",
".. c #25254C",
"X. c #36366C",
"o. c #3A3A7B",
"O. c #5A1743",
"+. c #541A40",
"@. c #591A40",
"#. c #6A1C4A",
"$. c #641A4A",
"%. c #6A1C52",
"&. c #751B59",
"*. c #453945",
"=. c #682050",
"-. c #742055",
";. c #7B265C",
":. c #68214C",
">. c #7B2560",
",. c #3A4747",
"<. c #356D51",
"1. c #4A414D",
"2. c #444444",
"3. c #535753",
"4. c #417A5F",
"5. c #7C7B4F",
"6. c #5D5566",
"7. c #665566",
"8. c #717976",
"9. c #81235C",
"0. c #831F60",
"q. c #852563",
"w. c #8C2767",
"e. c #93296D",
"r. c #92246E",
"t. c #992C73",
"y. c #992B76",
"u. c #9C3179",
"i. c #8F2972",
"p. c #A22B7C",
"a. c #A22875",
"s. c #A7317C",
"d. c #5A8033",
"f. c #678D39",
"g. c #4C824D",
"h. c #729C42",
"j. c #75A650",
"k. c #478C67",
"l. c #5AAB7A",
"z. c #76BE6B",
"x. c #6AB676",
"c. c #70B778",
"v. c #7DC366",
"b. c #98984A",
"n. c #82B14B",
"m. c #BFBF57",
"M. c #8E8D60",
"N. c #8EC55A",
"B. c #95CB55",
"V. c #99CC55",
"C. c #92CC5C",
"Z. c #85C264",
"A. c #DADA6E",
"S. c #D3CF69",
"D. c #E6E676",
"F. c #EEEE77",
"G. c #3F4180",
"H. c #4A4E98",
"J. c #5555AA",
"K. c #A63381",
"L. c #AB3483",
"P. c #B9348C",
"I. c #B63589",
"U. c #BE3892",
"Y. c #C1398F",
"T. c #C33494",
"R. c #C33A94",
"E. c #C93A96",
"W. c #C63D99",
"Q. c #CD3C9C",
"!. c #D13C9E",
"~. c #D43DA1",
"^. c #D83FA5",
"/. c #CF409F",
"(. c #CF40A0",
"). c #D541A3",
"_. c #D942A6",
"`. c #DD44AA",
"'. c #56AB87",
"]. c #5BAE84",
"[. c #55AA88",
"{. c #51A282",
"}. c #848C84",
"|. c #87978D",
" X c #96A396",
".X c #ABB4AB",
"XX c #B4C5B4",
"oX c #C7C78A",
"OX c #E0D692",
"+X c #BBCCC4",
"@X c #CCDDCC",
"#X c #C4D5C7",
"$X c None",
/* pixels */
"$X$X$X$X$X$X$X$X$X$X$X$X$X$X$X$X$X$X$X$X$X$X$X$X$X$X$X$X$X$X$X$X$X$X$X$X$X$X$X$X$X$X$X$X$X$X$X$X$X$X$X$X$X$X$X$X$X$X$X$X$X$X$X$X",
"$X$X$X$X$X$X$X$X$X$X$X$X$X$X$X$X$X$X$X$X$X$X$X$X$X$X$X$X$X$X          $X$X$X$X$X$X$X$X$X$X$X$X$X$X$X$X$X$X$X$X$X$X$X$X$X$X$X$X$X",
"$X$X$X$X$X$X$X$X$X$X$X$X$X$X$X$X$X$X$X$X$X$X$X$X$X$X$X$X$X              $X$X$X$X$X$X$X$X$X$X$X$X$X$X$X$X$X$X$X$X$X$X$X$X$X$X$X$X",
"$X$X$X$X$X$X$X$X$X$X$X$X$X$X$X$X$X$X$X$X$X$X$X$X$X$X$X        & W W       $X$X$X$X$X$X$X$X$X$X$X$X$X$X$X$X$X$X$X$X$X$X$X$X$X$X$X",
"$X$X$X$X$X$X$X$X$X$X$X$X$X$X$X$X$X$X$X$X$X$X$X$X$X$X      * ! ~ ~ ~ E     $X$X$X$X$X$X$X$X$X$X$X$X$X$X$X$X$X$X$X$X$X$X$X$X$X$X$X",
"$X$X$X$X$X$X$X$X$X$X$X$X$X$X$X$X$X$X$X$X$X$X$X$X$X      V ~ ~ ~ ~ ~ W             $X$X$X$X$X$X$X$X$X$X$X$X$X$X$X$X$X$X$X$X$X$X$X",
"$X$X$X$X$X$X$X$X$X$X$X$X$X$X$X$X$X$X$X$X$X$X$X$X    X R ~ ~ ~ ~ ~ ~ !               $X$X$X$X$X$X$X$X$X$X$X$X$X$X$X$X$X$X$X$X$X$X",
"$X$X$X$X$X$X$X$X$X$X$X$X$X$X$X$X$X$X$X$X$X$X$X    . E ~ ~ ~ ~ ~ ~ ~ W     * a i       $X$X$X$X$X$X$X$X$X$X$X$X$X$X$X$X$X$X$X$X$X",
"$X$X$X$X$X$X$X$X$X$X$X$X$X$X$X$X$X$X$X$X$X$X      R ~ ~ ~ ~ ~ ~ ~ ~ W @ R ~ ~ ~ a     $X$X$X$X$X$X$X$X$X$X$X$X$X$X$X$X$X$X$X$X$X",
"$X$X$X$X$X$X$X$X$X$X$X$X$X$X$X$X$X$X$X$X$X      a ~ ~ ~ ~ ~ ~ ~ ~ ~ ~ ~ ~ ~ ~ ~ i     $X$X$X$X$X$X$X$X$X$X$X$X$X$X$X$X$X$X$X$X$X",
"$X$X$X$X$X$X$X$X$X$X$X$X$X$X$X$X$X$X$X$X$X    & ~ ~ ~ ~ ~ ~ ~ ~ ~ ~ ~ ~ ~ ~ ~ ~     $X$X$X$X$X$X$X$X$X$X$X$X$X$X$X$X$X$X$X$X$X$X",
"$X$X$X$X$X$X$X$X$X$X$X$X$X$X$X$X$X$X$X$X      W ~ ~ ~ ~ ~ ~ ~ ~ ~ ~ ~ ~ ~ ~ ~ C     $X$X$X$X$X$X$X$X$X$X$X$X$X$X$X$X$X$X$X$X$X$X",
"$X$X$X$X$X$X$X$X$X$X$X$X$X$X$X$X$X$X$X$X    p ~ ~ ~ ~ ~ ~ ~ ~ ~ ~ ~ ~ ~ ~ ~ ~ i     $X$X$X$X$X$X$X$X$X$X$X$X$X$X$X$X$X$X$X$X$X$X",
"$X$X$X$X$X$X$X$X$X$X$X$X$X$X$X$X$X$X$X$X    W ~ ~ ~ ~ ~ ~ ~ ~ ~ ~ ~ ~ ~ ~ ~ ~ i     $X$X$X$X$X$X$X$X$X$X$X$X$X$X$X$X$X$X$X$X$X$X",
"$X$X$X$X$X$X$X$X$X$X$X$X$X$X$X$X$X$X      * ~ W d p 3 3 3 & 2 & 3 i d C ! ~ ~ 3         $X$X$X$X$X$X$X$X$X$X$X$X$X$X$X$X$X$X$X$X",
"$X$X$X$X$X$X$X$X$X$X$X$X$X                E ~     . O & & & & & & O       @ ~ ~ V .           $X$X$X$X$X$X$X$X$X$X$X$X$X$X$X$X$X",
"$X$X$X$X$X$X$X$X$X$X                . i ! ~ ~ R ! ~ ~ ~ ~ ~ ~ ~ ~ ~ ~ Q d a ~ ~ ~ ~ a O               $X$X$X$X$X$X$X$X$X$X$X$X$X",
"$X$X$X$X$X$X$X$X$X$X    X o o i d ~ ~ ~ ~ ~ ! E R a * . . i p R W W ~ ~ ~ ~ ~ ~ ~ ~ ~ ~ Q 3 O .       $X$X$X$X$X$X$X$X$X$X$X$X$X",
"$X$X$X$X$X$X$X$X$X$X      * W ~ ~ ~ ~ V 2           . n z             i R ~ ~ ~ ~ ~ ~ ~ ~ ~ ~ d       $X$X$X$X$X$X$X$X$X$X$X$X$X",
"$X$X$X$X$X$X$X$X$X$X                        $ W.Q._.`.`.`.a.%   y.e.J       X . @ # # # o             $X$X$X$X$X$X$X$X$X$X$X$X$X",
"$X$X$X$X$X$X$X$X$X$X$X$X            q   + ..  I.`.`.`.P.l   n P.`.`.`._.U.K.q.+.u e s e           $X$X$X$X$X$X$X$X$X$X$X$X$X$X$X",
"$X$X$X$X$X$X$X$X$X$X$X$X$X$X          X.J.J.+ &.`.`.P.  t K.`.`.`.`.R.E.`.`.`.`.`.`.`.`.a.    $X$X$X$X$X$X$X$X$X$X$X$X$X$X$X$X$X",
"$X$X$X$X$X$X$X$X$X$X$X$X$X        j H.J.H.X.6 r `._.w < _.`.`._.O..     q.`.`.`.`.`.`.`.`.n     $X$X$X$X$X$X$X$X$X$X$X$X$X$X$X$X",
"$X$X$X$X$X$X$X$X$X$X$X$X$X    j H.J.G.k   . w b `.L.  U.`.`.`.;.o #.t.  t `.`.`.`.`.`.`.`.W..   $X$X$X$X$X$X$X$X$X$X$X$X$X$X$X$X",
"$X$X$X$X$X$X$X$X$X$X$X$X$X    o.H. .      l p.).`.L.. _.`.`.`.L.q.Q.O.  I.`.`.`.`.~.`.`.`.`.x     $X$X$X$X$X$X$X$X$X$X$X$X$X$X$X",
"$X$X$X$X$X$X$X$X$X$X$X$X$X    ..  X b.m.b.3   , Q.R.  Y `.`.`.`.U.    r.`.`.`.`.w.  w.`.`.`.9.    $X$X$X$X$X$X$X$X$X$X$X$X$X$X$X",
"$X$X$X$X$X$X$X$X$X$X$X$X$X      | D.F.F.F.F.A.: c `.&.X ).`.`.`.~.I   P `.`.`.L.  K _.`.`.`.T.    $X$X$X$X$X$X$X$X$X$X$X$X$X$X$X",
"$X$X$X$X$X$X$X$X$X$X$X$X$X    X | F.F.F.F.F.F.b.  R.R.  (.`.`.i.Q.`.q.o _.`.`.O.< `.Q.e.`.`.`..   $X$X$X$X$X$X$X$X$X$X$X$X$X$X$X",
"$X$X$X$X$X$X$X$X$X$X$X$X        X F.F.F.F.F.F.F.  >.W.  ).`.`.% $ L w X _.`.`.K K `.L.  ~.`.`.%   $X$X$X$X$X$X$X$X$X$X$X$X$X$X$X",
"$X$X$X$X$X$X$X$X$X$X$X            S.F.F.F.F.F.F.: :.W.  /.`.`.R.O.t x P.`.`.`.L x `.Q.$ , I.`.l     $X$X$X$X$X$X$X$X$X$X$X$X$X$X",
"$X$X$X$X$X$X$X$X$X$X    q .       D.F.F.F.F.F.F.: -.s.  ).`.`.`.`.`.`.`.`.`.`.q.  W.`.W.l   u.<   $X$X$X$X$X$X$X$X$X$X$X$X$X$X$X",
"$X$X$X$X$X$X$X$X$X$X    T.w     h F.F.F.F.F.F.A.  i.u , _.`.`.`.`.`.`.`.`.`.`.~.$ x `.`.`.x   .   $X$X$X$X$X$X$X$X$X$X$X$X$X$X$X",
"$X$X$X$X$X$X$X$X$X$X  . ).z   } A.F.F.F.F.F.F.}   I.o I.`.`.`.`.`.`.`.`.`.`.`.`.e.  y.`.`.`..     $X$X$X$X$X$X$X$X$X$X$X$X$X$X$X",
"$X$X$X$X$X$X$X$X$X$X  . ).#.  h D.F.F.F.F.F.S.  I `.`.`.`.`.^.`.`.`.`.`.`.`.`.`.`.L o _.`.`.l     $X$X$X$X$X$X$X$X$X$X$X$X$X$X$X",
"$X$X$X$X$X$X$X$X$X$X    T.p.    X | A.F.F.} X r ^.`.`.`.`.I   `.`.`.`.`.P $ ).`.`.Q.  l `.`.c     $X$X$X$X$X$X$X$X$X$X$X$X$X$X$X",
"$X$X$X$X$X$X$X$X$X$X      .   I $.    O     #.w.b I ~.`.`.w $.`.`.).W.`.W.. u.`.`.`.r.. ).`.o   $X$X$X$X$X$X$X$X$X$X$X$X$X$X$X$X",
"$X$X$X$X$X$X$X$X$X$X$X        . $.u.w.U K K e   .   J `.`.e L `.`.9.o ;.I.o y.`.`.`.Q.  s.-.    $X$X$X$X$X$X$X$X$X$X$X$X$X$X$X$X",
"$X$X$X$X$X$X$X$X$X$X$X$X$X$X                % 9 D 8 o `._.$.  W.`.Q.K     < R.`.`.`.~.  t.$     $X$X$X$X$X$X$X$X$X$X$X$X$X$X$X$X",
"$X$X$X$X$X$X$X$X$X$X$X$X$X$X      y   oX. 7 9 . 7 9 . `.`.~.o L `.`.`.!.P._.`.`.`.`.W.  $     $X$X$X$X$X$X$X$X$X$X$X$X$X$X$X$X$X",
"$X$X$X$X$X$X$X$X$X$X$X$X$X$X$X    @   O   9   :   @ $ `.`.`.w.  9.`.`.`.`.`.`.`.`.`.$.      $X$X$X$X$X$X$X$X$X$X$X$X$X$X$X$X$X$X",
"$X$X$X$X$X$X$X$X$X$X$X$X$X$X$X$X    7   9 .   OX`   m `.`.`.`.O.  R.`.`.`.`.`.`.`.s.        $X$X$X$X$X$X$X$X$X$X$X$X$X$X$X$X$X$X",
"$X$X$X$X$X$X$X$X$X$X$X$X$X$X$X$X$X    y D   M.5.X % ^.`.`.`.`._., b `.`.`.`.`.`.R..       $X$X$X$X$X$X$X$X$X$X$X$X$X$X$X$X$X$X$X",
"$X$X$X$X$X$X$X$X$X$X$X$X$X$X$X$X                I W.`.`.`.`.`.`.q.o `.`.`.`.`.Q.r       $X$X$X$X$X$X$X$X$X$X$X$X$X$X$X$X$X$X$X$X",
"$X$X$X$X$X$X$X$X$X$X$X$X$X$X$X$X    q.  u.I.I.~.`.`.b @.`.`.`.`.K.  `.`.`.E.U o       $X$X$X$X$X$X$X$X$X$X$X$X$X$X$X$X$X$X$X$X$X",
"$X$X$X$X$X$X$X$X$X$X$X$X$X$X$X    x U.  ).`.`.`.`.`.c $ P.E.`.`.%.. K.=.n   +       $X$X$X$X$X$X$X$X$X$X$X$X$X$X$X$X$X$X$X$X$X$X",
"$X$X$X$X$X$X$X$X$X$X$X$X$X$X$X    e E.  :.`.`.`.`._.@                 ; ^ { '.1     $X$X$X$X$X$X$X$X$X$X$X$X$X$X$X$X$X$X$X$X$X$X",
"$X$X$X$X$X$X$X$X$X$X$X$X$X$X$X$X    r m   r.`.`.Q.&.  4.k.g.d.4.<.{ + n.V.V.C._     $X$X$X$X$X$X$X$X$X$X$X$X$X$X$X$X$X$X$X$X$X$X",
"$X$X$X$X$X$X$X$X$X$X$X$X$X$X$X$X            (.l     X V.V.V.V.Z.[.) ; N.'.v.V.{       $X$X$X$X$X$X$X$X$X$X$X$X$X$X$X$X$X$X$X$X$X",
"$X$X$X$X$X$X$X$X$X$X$X$X$X$X$X$X$X$X            ( f f V.V.V.V.V.v.  M [.[.'.x.h.        $X$X$X$X$X$X$X$X$X$X$X$X$X$X$X$X$X$X$X$X",
"$X$X$X$X$X$X$X$X$X$X$X$X$X$X$X$X$X$X$X$X        ;   k.].].].c.V.f.+ {.].N.].[.x.  -     $X$X$X  $X$X$X$X$X$X$X$X$X$X$X$X$X$X$X$X",
"$X$X$X$X$X$X$X$X$X$X$X$X$X$X$X$X$X$X$X$X$X$X      g '.'.].].[.v./ 1 l.B.B.B.x.'.1 ;               $X$X$X$X$X$X$X$X$X$X$X$X$X$X$X",
"$X$X$X$X$X$X$X$X$X$X$X$X$X$X$X$X$X$X$X$X$X$X      j.N.V.V.C.].k.  [ B.V.V.V.V.v.M                 $X$X$X$X$X$X$X$X$X$X$X$X$X$X$X",
"$X$X$X$X$X$X$X$X$X$X$X$X$X$X$X$X$X$X$X$X$X$X      X ] n.V.V.z._   / ] ' / / h ;       4 3..       $X$X$X$X$X$X$X$X$X$X$X$X$X$X$X",
"$X$X$X$X$X$X$X$X$X$X$X$X$X$X$X$X$X$X$X$X$X$X      X .   ( j.B.f + 2 O & 2 2 +     O .X#Xg         $X$X$X$X$X$X$X$X$X$X$X$X$X$X$X",
"$X$X$X$X$X$X$X$X$X$X$X$X$X$X$X$X$X$X$X$X$X$X$X          .   f   *.7.7.7.7.7.4     8.@X X            $X$X$X$X$X$X$X$X$X$X$X$X$X$X",
"$X$X$X$X$X$X$X$X$X$X$X$X$X$X$X$X$X$X$X$X$X$X    g }.,.O     . Z 7.7.7.7.7.7.6.  g @X@X#X|.O         $X$X$X$X$X$X$X$X$X$X$X$X$X$X",
"$X$X$X$X$X$X$X$X$X$X$X$X$X$X$X$X$X$X$X$X$X      B @X@X@X.X  S 7.7.7.7.7.7.7.7.*.  3.XXX           $X$X$X$X$X$X$X$X$X$X$X$X$X$X$X",
"$X$X$X$X$X$X$X$X$X$X$X$X$X$X$X$X$X$X$X          B +X@X|.}.8.  Z 7.7.7.7.7.7.7.7.N   2         $X$X$X$X$X$X$X$X$X$X$X$X$X$X$X$X$X",
"$X$X$X$X$X$X$X$X$X$X$X$X$X$X$X$X$X$X$X          N X A 2.  > X   N 7.7.7.7.7.7.7.1.            $X$X$X$X$X$X$X$X$X$X$X$X$X$X$X$X$X",
"$X$X$X$X$X$X$X$X$X$X$X$X$X$X$X$X$X$X$X      @ =       N   S       5 1.7.7.7.7.1.O               $X$X$X$X$X$X$X$X$X$X$X$X$X$X$X$X",
"$X$X$X$X$X$X$X$X$X$X$X$X$X$X$X$X$X$X$X            @ 8               . Z 7.7...X @ F O           $X$X$X$X$X$X$X$X$X$X$X$X$X$X$X$X",
"$X$X$X$X$X$X$X$X$X$X$X$X$X$X$X$X$X$X$X$X          X G #                 O v   = H 8       $X$X$X$X$X$X$X$X$X$X$X$X$X$X$X$X$X$X$X",
"$X$X$X$X$X$X$X$X$X$X$X$X$X$X$X$X$X$X$X$X$X$X                  $X$X$X        0 F .       $X$X$X$X$X$X$X$X$X$X$X$X$X$X$X$X$X$X$X$X",
"$X$X$X$X$X$X$X$X$X$X$X$X$X$X$X$X$X$X$X$X$X$X$X              $X$X$X$X$X    @ F         $X$X$X$X$X$X$X$X$X$X$X$X$X$X$X$X$X$X$X$X$X",
"$X$X$X$X$X$X$X$X$X$X$X$X$X$X$X$X$X$X$X$X$X$X$X$X$X        $X$X$X$X$X$X    .       $X$X$X$X$X$X$X$X$X$X$X$X$X$X$X$X$X$X$X$X$X$X$X",
"$X$X$X$X$X$X$X$X$X$X$X$X$X$X$X$X$X$X$X$X$X$X$X$X$X$X$X$X$X$X$X$X$X$X$X          $X$X$X$X$X$X$X$X$X$X$X$X$X$X$X$X$X$X$X$X$X$X$X$X",
"$X$X$X$X$X$X$X$X$X$X$X$X$X$X$X$X$X$X$X$X$X$X$X$X$X$X$X$X$X$X$X$X$X$X$X$X      $X$X$X$X$X$X$X$X$X$X$X$X$X$X$X$X$X$X$X$X$X$X$X$X$X"
};
