/* XPM */
static char *result[] = {
/* columns rows colors chars-per-pixel */
"64 90 224 2 ",
"   c #000000",
".  c #0C0504",
"X  c #050A01",
"o  c #0A0C04",
"O  c #0B0B0B",
"+  c #120606",
"@  c #130906",
"#  c #130B0A",
"$  c #1B0C0B",
"%  c #190807",
"&  c #061401",
"*  c #0C1302",
"=  c #0D1B04",
"-  c #121D03",
";  c #13120F",
":  c #171507",
">  c #0E1314",
",  c #141313",
"<  c #1B1414",
"1  c #1C1B15",
"2  c #1C1B1B",
"3  c #131D1A",
"4  c #240C0C",
"5  c #280F0F",
"6  c #26140E",
"7  c #241313",
"8  c #281816",
"9  c #331C1B",
"0  c #341815",
"q  c #132403",
"w  c #1A2405",
"e  c #1C2C05",
"r  c #172807",
"t  c #1D3305",
"y  c #1D3B08",
"u  c #1D2218",
"i  c #172A11",
"p  c #233B06",
"a  c #223109",
"s  c #283C09",
"d  c #23241D",
"f  c #29261C",
"g  c #3C2217",
"h  c #232903",
"j  c #1E2020",
"k  c #222323",
"l  c #292623",
"z  c #2C2C2C",
"x  c #292C26",
"c  c #382726",
"v  c #2B3528",
"b  c #34352D",
"n  c #38382B",
"m  c #353535",
"M  c #3C3C33",
"N  c #3B3C3C",
"B  c #323A3A",
"V  c #29343B",
"C  c #471D19",
"Z  c #48261D",
"A  c #522B1D",
"S  c #482826",
"D  c #542C25",
"F  c #592B29",
"G  c #583226",
"H  c #463C39",
"J  c #5C3333",
"K  c #532B35",
"L  c #67372B",
"P  c #78372C",
"I  c #663935",
"U  c #773B37",
"Y  c #632E2E",
"T  c #1E4206",
"R  c #2C4A09",
"E  c #274609",
"W  c #324B0D",
"Q  c #29550B",
"!  c #2D5708",
"~  c #3B5B0D",
"^  c #34550A",
"/  c #2A4C11",
"(  c #2C5312",
")  c #325B14",
"_  c #355812",
"`  c #2F6609",
"'  c #39640D",
"]  c #3C720C",
"[  c #3A6615",
"{  c #3B6B18",
"}  c #3A6815",
"|  c #3F731A",
" . c #3D7016",
".. c #3A4536",
"X. c #445D0D",
"o. c #425910",
"O. c #456A0C",
"+. c #41770C",
"@. c #476913",
"#. c #40751B",
"$. c #42781C",
"%. c #4C7B1C",
"&. c #487414",
"*. c #547C1B",
"=. c #547816",
"-. c #48463B",
";. c #4E4E3B",
":. c #794535",
">. c #6C4333",
",. c #354145",
"<. c #424242",
"1. c #4E4E44",
"2. c #494949",
"3. c #5B554A",
"4. c #585548",
"5. c #4D5353",
"6. c #565858",
"7. c #504E43",
"8. c #7A4545",
"9. c #625649",
"0. c #675B54",
"q. c #56694A",
"w. c #6C6658",
"e. c #73675E",
"r. c #6A7057",
"t. c #656A6A",
"y. c #7A6D63",
"u. c #7A7565",
"i. c #747D7D",
"p. c #797A7A",
"a. c #6E7A70",
"s. c #566B76",
"d. c #843E37",
"f. c #844433",
"g. c #8C4331",
"h. c #954B3B",
"j. c #9F503E",
"k. c #A14D3E",
"l. c #A2503E",
"z. c #844949",
"x. c #8A4946",
"c. c #9C4B4B",
"v. c #914F4F",
"b. c #8A564C",
"n. c #995444",
"m. c #945353",
"M. c #9A5454",
"N. c #915A50",
"B. c #AB5442",
"V. c #A45448",
"C. c #AB5454",
"Z. c #A65451",
"A. c #A04E4E",
"S. c #9F6456",
"D. c #AD6C5A",
"F. c #857968",
"G. c #8D7F73",
"H. c #BC7866",
"J. c #BC7866",
"K. c #C37866",
"L. c #C27B6B",
"P. c #CA7A68",
"I. c #4D821C",
"U. c #558313",
"Y. c #55821C",
"T. c #59821B",
"R. c #5B8C1B",
"E. c #568719",
"W. c #5F931C",
"Q. c #628B1A",
"!. c #678814",
"~. c #63951B",
"^. c #669A1C",
"/. c #6D901D",
"(. c #70931C",
"). c #6EA21C",
"_. c #76A023",
"`. c #768569",
"'. c #86B71C",
"]. c #86AF1C",
"[. c #8EB32D",
"{. c #9ACD1C",
"}. c #95C71C",
"|. c #8DC01C",
" X c #82856C",
".X c #8B8675",
"XX c #948B7A",
"oX c #918877",
"OX c #C98574",
"+X c #CD8978",
"@X c #CB8676",
"#X c #C3806E",
"$X c #7D8787",
"%X c #758C97",
"&X c #9C9381",
"*X c #8C9797",
"=X c #989C9C",
"-X c #959782",
";X c #AB9D8C",
":X c #A59885",
">X c #B09F8F",
",X c #ADA08F",
"<X c #A4A484",
"1X c #AFA291",
"2X c #B4A393",
"3X c #BCAB9A",
"4X c #B7A995",
"5X c #A6B78F",
"6X c #9AABAB",
"7X c #98A4A4",
"8X c #92AFBA",
"9X c #8AA5AF",
"0X c #BDCEA7",
"qX c #C6D4AE",
"wX c #D7E8BA",
"eX c #95B4C4",
"rX c #A8C8D9",
"tX c #BCDEEE",
"yX c #B3D5E5",
"uX c #DDEEC7",
"iX c #E3F3C4",
"pX c #EEFFCD",
"aX c #E7F7CB",
"sX c None",
/* pixels */
"sXsXsXsXsXsXsXsXsXsXsXsXsXsXsXsXsXsXsXsXsXsXsXsXsXsXsXsXsXsXsXsXsXsXsXsXsXsXsXsXsXsXsXsXsXsXsXsXsXsXsXsXsXsXsXsXsXsXsXsXsXsXsXsX",
"sXsXsXsXsXsXsXsXsXsXsXsXsXsXsXsXsXsXsXsXsXsXsXsXsXsXsXsXsXsXsXsXsXsXsXsXsXsXsXsXsXsXsXsXsXsXsXsXsXsXsXsXsXsXsXsXsXsXsXsXsXsXsXsX",
"sXsXsXsXsXsXsXsXsXsXsXsXsXsXsXsXsXsXsXsXsXsXsXsXsXsXsXsXsXsXsXsXsXsXsXsXsXsXsXsXsXsXsXsXsXsXsXsXsXsXsXsXsXsXsXsXsXsXsXsXsXsXsXsX",
"sXsXsXsXsXsXsXsXsXsXsXsXsXsXsXsXsXsXsXsXsXsXsXsXsXsXsX          sXsXsXsXsXsXsXsXsXsXsXsXsXsXsXsXsXsXsXsXsXsXsXsXsXsXsXsXsXsXsXsX",
"sXsXsXsXsXsXsXsXsXsXsXsXsXsXsXsXsXsXsXsXsXsXsX                          sXsXsXsXsXsXsXsXsXsXsXsXsXsXsXsXsXsXsXsXsXsXsXsXsXsXsXsX",
"sXsXsXsXsXsXsXsXsXsXsXsXsXsXsXsXsXsXsXsXsX              X X X               sXsXsXsXsXsXsXsXsXsXsXsXsXsXsXsXsXsXsXsXsXsXsXsXsXsX",
"sXsXsXsXsXsXsXsXsXsXsXsXsXsXsXsXsXsXsX          X y ) ) [ [ [ ) _ e             sXsXsXsXsXsXsXsXsXsXsXsXsXsXsXsXsXsXsXsXsXsXsXsX",
"sXsXsXsXsXsXsXsXsXsXsXsXsXsXsXsXsXsX      X w ' %.I.$.$.$.$.$.$.$.| $.s *         sXsXsXsXsXsXsXsXsXsXsXsXsXsXsXsXsXsXsXsXsXsXsX",
"sXsXsXsXsXsXsXsXsXsXsXsXsXsXsXsXsX        ) ^.|.}.}.).$.$.$.$.$.$.$.$.$.$./         sXsXsXsXsXsXsXsXsXsXsXsXsXsXsXsXsXsXsXsXsXsX",
"sXsXsXsXsXsXsXsXsXsXsXsXsXsXsX        X @.].{.{.{.{.].$.$.$.$.$.$.$.$.$.$.$.[ =       sXsXsXsXsXsXsXsXsXsXsXsXsXsXsXsXsXsXsXsXsX",
"sXsXsXsXsXsXsXsXsXsXsXsXsXsX      O X   X !.}.{.{.'.I.$.$.$.$.$.$.$.$.$.$.$.$.$.e       sXsXsXsXsXsXsXsXsXsXsXsXsXsXsXsXsXsXsXsX",
"sXsXsXsXsXsXsXsXsXsXsXsXsXsX    ,.8X8X%X,.  a !.R.%.$.$.$.$.$.$.| $.$.$.$.$.$.$.#.-     sXsXsXsXsXsXsXsXsXsXsXsXsXsXsXsXsXsXsXsX",
"sXsXsXsXsXsXsXsXsXsXsXsXsX      eXtXtXtXtX%X>   Q %.I.Y.T.T.T.*.I.$.$.$.$.$.$.$.#.+.      sXsXsXsXsXsXsXsXsXsXsXsXsXsXsXsXsXsXsX",
"sXsXsXsXsXsXsXsXsXsXsXsXsX      tXtXtXtXtXtXrXV   @.^.^.^.^.^.^.^.^.I.$.$.$.$.$.$.$.e     sXsXsXsXsXsXsXsXsXsXsXsXsXsXsXsXsXsXsX",
"sXsXsXsXsXsXsXsXsXsXsXsXsX      3 3 V s.9XyXtXyX> s ^.^.^.^.^.^.^.^.^.W.Y.$.$.$.$.$.Q       sXsXsXsXsXsXsXsXsXsXsXsXsXsXsXsXsXsX",
"sXsXsXsXsXsXsXsXsXsXsXsXsX      q i X     x yXeX  p ^.^.^.^.^.^.^.^.^.^.^.*.$.$.$.$.$.      sXsXsXsXsXsXsXsXsXsXsXsXsXsXsXsXsXsX",
"sXsXsXsXsXsXsXsXsXsXsXsXsX       .$.$. .E o     & *.^.^.^.^.^.^.^.^.^.^.^.~.I.$.$.$.$.E     sXsXsXsXsXsXsXsXsXsXsXsXsXsXsXsXsXsX",
"sXsXsXsXsXsXsXsXsXsXsXsXsX    X $.$.| | #.R.O.O.^.^.^.^.^.^.^.^.^.^.^.^.^.^.W.$.$.$.$.{       sXsXsXsXsXsXsXsXsXsXsXsXsXsXsXsXsX",
"sXsXsXsXsXsXsXsXsXsXsXsXsX    r $.[ r = - a E &.^.^.^.^.^.^.^.^.^.^.^.^.^.^.^.*.$.$.$. .=     sXsXsXsXsXsXsXsXsXsXsXsXsXsXsXsXsX",
"sXsXsXsXsXsXsXsXsXsXsXsXsX    s s   1 M b x u   R ~.^.^.^.^.^.^.^.^.^.^.^.^.^.R.$.$.$.$.r     sXsXsXsXsXsXsXsXsXsXsXsXsXsXsXsXsX",
"sXsXsXsXsXsXsXsXsXsXsXsXsX    X   q.wXaXiXiXwXa.  y ^.^.^.^.^.^.^.^.^.^.^.^.^.^.%.$.$.$.R                   sXsXsXsXsXsXsXsXsXsX",
"sXsXsXsXsXsXsXsXsXsXsXsXsX      u.pXpXpXpXpXpXpX`.  &.^.^.^.^.^.^.^.^.^.^.^.^.^.I.$.$.| &.                    sXsXsXsXsXsXsXsXsX",
"sXsXsXsXsXsXsXsXsXsXsXsXsX    X aXpXpXpXpXpXpXpXwXd a ^.^.^.^.^.^.^.^.^.^.^.^.^.Y.$.$.$.$.&         % $         sXsXsXsXsXsXsXsX",
"sXsXsXsXsXsXsXsXsXsXsXsXsX    r.pXpXpXqXr.iXpXpXiXv a ^.^.^.^.^.^.^.^.^.^.^.^.^.E.$.$.$.$.t   . I D.H.H.D.Z       sXsXsXsXsXsXsX",
"sXsXsXsXsXsXsXsXsXsXsXsXsX    <XpXpXuX    5XpXpXiXz a ^.^.^.^.^.^.^.^.^.^.^.^.^.R.$.$.$.$.E   S H.H.H.H.H.H.0     sXsXsXsXsXsXsX",
"sXsXsXsXsXsXsXsXsXsXsXsXsX     XpXpXiXv o 0XpXpXiXx t ^.^.^.^.^.^.^.^.^.^.^.^.^.R.$.$.$.$.(   I H.H.J.OXOXH.>.    sXsXsXsXsXsXsX",
"sXsXsXsXsXsXsXsXsXsXsXsXsX    v iXpXpXpXpXpXpXpX0XO W ^.^.^.^.^.^.^.^.^.^.^.^.^.W.$.$.$.$.(   K H.L.+X+X+X+Xb.    sXsXsXsXsXsXsX",
"sXsXsXsXsXsXsXsXsXsXsXsXsX      -XpXpXpXpXpXpXaX; X ~.^.^.^.^.^.^.^.^.^.^.^.^.^.W.$.$.$.$.) X 9 H.#X+X+XP.H.b.    sXsXsXsXsXsXsX",
"sXsXsXsXsXsXsXsXsXsXsXsXsX      & `.qXpXpXpXqX..X @.^.^.^.^.^.^.^.^.^.^.^.^.^.^.~.$.$.$.$.[ X $ H.K.K.H.H.H.b.    sXsXsXsXsXsXsX",
"sXsXsXsXsXsXsXsXsXsXsXsX      ` r     X / d     X.^.^.^.^.^.^.^.^.^.^.^.^.^.^.^.^.*.$.$.$. .X . H.H.H.H.H.P.b.      sXsXsXsXsXsX",
"sXsXsXsXsXsXsXsXsXsXsXsX    q | $.) E t i o     X ~ ^.^.^.^.^.^.^.^.^.^.^.^.^.^.^.Y.$.$.$.#.X 8 H.K.OX+X+X+XH.+     sXsXsXsXsXsX",
"sXsXsXsXsXsXsXsXsXsXsX      / ) E & ! T.R.=.O.X.*   ~ ^.^.^.^.^.^.^.^.^.^.^.^.^.^.E.$.$.$.$.o 8 H.K.+X+X@X@XL.m.X     sXsXsXsXsX",
"sXsXsXsXsXsXsXsXsXsXsX            X E e * * - s U.* X T.^.^.^.^.^.^.^.^.^.^.^.^.^.E.$.$.$.$.o 8 H.H.H.L.H.H.H.J.A       sXsXsXsX",
"sXsXsXsXsXsXsXsXsXsXsX          X e       x     e @.  w ^.^.^.^.^.^.^.~.E.&.@.R E y e t s / X 7 H.H.H.H.H.H.P.#XD.#     sXsXsXsX",
"sXsXsXsXsXsXsXsXsXsXsXsX            w q.  r.      @.s   U.^.^.^.^.W./ X             .         . :.H.H.OX+X+X+X+XH.J     sXsXsXsX",
"sXsXsXsXsXsXsXsXsXsXsXsXsXsX        ;...  f       h @.  ~ ^.~.X.a     0 D P g.n.B.B.B.B.j.:.F 5   8 N.OX+X+XOX#XH.N.    sXsXsXsX",
"sXsXsXsXsXsXsXsXsXsXsXsXsXsXsX                      *.X W R.-   @ A l.B.B.B.B.B.B.B.B.B.B.B.B.B.:.. # S.H.H.H.H.H.N.    sXsXsXsX",
"sXsXsXsXsXsXsXsXsXsXsXsXsXsXsXsXsX                  =.. a o . L l.B.B.B.B.B.B.B.B.B.B.B.B.B.B.B.l.f.  6 H.H.H.H.H.:.    sXsXsXsX",
"sXsXsXsXsXsXsXsXsXsXsXsXsXsXsXsXsXsX    sXsXsX    X =.X     d.B.B.B.B.B.B.B.B.B.B.B.B.B.B.B.B.B.B.B.P   N.H.H.H.J.7     sXsXsXsX",
"sXsXsXsXsXsXsXsXsXsXsXsXsXsXsXsXsXsXsXsXsXsXsX    t &.    P l.B.B.B.B.B.B.B.B.B.B.B.B.B.B.B.B.B.B.B.h.. G H.H.H.I       sXsXsXsX",
"sXsXsXsXsXsXsXsXsXsXsXsXsXsXsXsXsXsXsXsXsXsX      =.E   $ B.B.B.B.B.B.B.l.l.B.B.B.B.B.B.B.B.B.B.B.B.l.$ S H.H.z..     sXsXsXsXsX",
"sXsXsXsXsXsXsXsXsXsXsXsXsXsXsXsXsXsXsXsXsX      q R.    S B.B.B.B.B.g.0 C :.B.B.B.B.B.B.B.B.B.B.B.B.l.$ g H.D       sXsXsXsXsXsX",
"sXsXsXsXsXsXsXsXsXsXsXsXsXsXsXsXsXsXsX        w E.-     A B.B.B.B.U   ; ;   % G j.P d.f.B.B.B.B.B.B.l.$ ; .         sXsXsXsXsXsX",
"sXsXsXsXsXsXsXsXsXsXsXsXsXsX                - *.:   O   Z B.B.B.B.6 o 4X3XXX6     X     @ h.B.B.B.B.j.$         sXsXsXsXsXsXsXsX",
"sXsXsXsXsXsXsXsXsXsXsXsXsX              & ~ ~.o   1..X, + V.B.B.B.X 9.3X3X3Xb   < -.H ,   + h.l.B.B.h..       sXsXsXsXsXsXsXsXsX",
"sXsXsXsXsXsXsXsXsXsXsXsXsX      o = q ^ ~.^.^.  O 2       4 f.l.j.  .X3X3X:X            *   $ l.B.B.f.      sXsXsXsXsXsXsXsXsXsX",
"sXsXsXsXsXsXsXsXsXsXsXsXsX    r { #.$.%.^.^.^.R   . t ^ X.  . @ +   ;X3X3Xu.  =.E.%.} }  .    L B.B.F         sXsXsXsXsXsXsXsXsX",
"sXsXsXsXsXsXsXsXsXsXsXsXsX    ! $.$.$.R.^.^.^.^.^.^.^.^.^.R.W a * . 2X3X3X3.X &.U.o.) / /     6 B.B.+ M 3.    sXsXsXsXsXsXsXsXsX",
"sXsXsXsXsXsXsXsXsXsXsXsXsX     .$.$.$.Q.^.^.^.^.^.^.^.~.@.E q &   1 2X4X3Xe.                    n.P    Xu.      sXsXsXsXsXsXsXsX",
"sXsXsXsXsXsXsXsXsXsXsXsX      $.$.$.%.^.^.^.^.^.Q.W w       O     . d H e.1.O ;.4.3.w.y.u.u.u.O F C . n 1         sXsXsXsXsXsXsX",
"sXsXsXsXsXsXsXsXsXsXsXsX      $.$.$.%.^.^.^.^.O.    , n  X3XXX  d 0.4.f O   1 ,X3X3X3X3X3X3X1X. % +   , l oX7.    sXsXsXsXsXsXsX",
"sXsXsXsXsXsXsXsXsXsXsXsX      #.$.$.%.^.^.^.^.* O y.;X:Xe...1 2 2X3X3X4XXX1 1 F.&X3X3X3X:X3.2       z :X3X3X3.    sXsXsXsXsXsXsX",
"sXsXsXsXsXsXsXsXsXsXsXsX    * | $.$.%.^.^.^.~.o O c O     X   8 2X3X3X3X3Xe.                        w.3X3XXXO     sXsXsXsXsXsXsX",
"sXsXsXsXsXsXsXsXsXsXsXsX    * $.$.$.$.R.^.^.^.O.X   * E =.e   ; :X3X3X3X3X4XM     X e i X     , z   XX3XXXO     sXsXsXsXsXsXsXsX",
"sXsXsXsXsXsXsXsXsXsXsXsX    * | $.#.] ] =.~.^.^.^.^.^.^.~   , O &X3X3X3X>X3.  -.1   r  .q O y.1Xb . 3X2Xf       sXsXsXsXsXsXsXsX",
"sXsXsXsXsXsXsXsXsXsXsXsX    * | $.#.` ` ` U.^.^.^.^.^.~.  X M , ;X3X2X4.    ..4X2Xl   X * 1 1X3X  f 3X0.      sXsXsXsXsXsXsXsXsX",
"sXsXsXsXsXsXsXsXsXsXsXsX    * | $.+.` ` ` !.^.^.^.^.~.w     . l 2Xy.. & q   O n :X3X7.    v 4X&X  # -.d     sXsXsXsXsXsXsXsXsXsX",
"sXsXsXsXsXsXsXsXsXsXsXsX    X  .$.] ` ` O.[.^.^.^.R.~   + Y <   5.  q Q.^.&.=   < ;X3X1   0.3Xy.  # .       sXsXsXsXsXsXsXsXsXsX",
"sXsXsXsXsXsXsXsXsXsXsXsXsX    p $.#.` ` R.[.^.~.W O     S M.v.9       * R %.| Q   , 2Xy.  F.3X-.  8.z.K       sXsXsXsXsXsXsXsXsX",
"sXsXsXsXsXsXsXsXsXsXsXsXsX      } $.&.E.[._.&.-       O z.M.M.v.7 O 2 ,   = ) $.y   F.G.  F.3X; # m.M.M.5     sXsXsXsXsXsXsXsXsX",
"sXsXsXsXsXsXsXsXsXsXsXsXsX      E | $.(./.E       . c v.M.M.M.M.8 O -.<.N     Q (   w.H   ,Xw.  4 M.M.M.S     sXsXsXsXsXsXsXsXsX",
"sXsXsXsXsXsXsXsXsXsXsXsXsXsX    X @.$.| y     9 8.M.M.M.M.M.M.m.< , <.<.<.m ,   *   e.X v :XO     I M.M.8..     sXsXsXsXsXsXsXsX",
"sXsXsXsXsXsXsXsXsXsXsXsXsXsX      q #.T   O   4 K z.M.M.M.M.M.v.$ 2 <.<.<.<.N O     n   F.9.  k   9 M.M.M.9     sXsXsXsXsXsXsXsX",
"sXsXsXsXsXsXsXsXsXsXsXsXsXsXsX      q   2 N j .   0 M.M.M.M.M.M.< > <.,.l O , ,       ..9.  , N O 7 M.M.M.S     sXsXsXsXsXsXsXsX",
"sXsXsXsXsXsXsXsXsXsXsXsXsXsXsX        O H <.<.,.  K M.M.M.M.M.v.# > <.<.k       .   z e.X . N m   0 M.M.M.8     sXsXsXsXsXsXsXsX",
"sXsXsXsXsXsXsXsXsXsXsXsXsXsXsX        , <.<.<.k   8.M.M.M.M.M.S   l <.<.N     ;. XH O   . N 2     J M.M.8.      sXsXsXsXsXsXsXsX",
"sXsXsXsXsXsXsXsXsXsXsXsX          n 2 , <.<.<.j . 8.M.M.m.8.9   2 <.<.<.<.;         . j <.m . < 8.M.M.z.<     sXsXsXsXsXsXsXsXsX",
"sXsXsXsXsXsXsXsXsXsXsX            :   O N <.<.k   S I 9 .     k <.<.<.<.<.2   2 k <.<.<.,.,   7 M.M.8.O       sXsXsXsXsXsXsXsXsX",
"sXsXsXsXsXsXsXsXsXsXsX    f 0.w.7.7.3.  2 <.<.<.2     O > l N ,.<.<.<.<.,.2 O N <.<.<.<.B     . S c         sXsXsXsXsXsXsXsXsXsX",
"sXsXsXsXsXsXsXsXsXsX    1 :X3X3X3X3X3X4.  z <.<.N <.<.<.<.<.<.<.<.<.N <.N O , <.<.<.<.<.,                 sXsXsXsXsXsXsXsXsXsXsX",
"sXsXsXsXsXsXsXsXsXsX    ; :X3X3X3X3X3X1Xf O <.<.<.<.<.<.<.<.<.<.z , O ; O   m <.<.<.<.z               sXsXsXsXsXsXsXsXsXsXsXsXsX",
"sXsXsXsXsXsXsXsXsXsXsX    n G.:X1X1X1X;XF.; m m z z m <.<.N z .   O , . O z <.<.<.m j       sXsXsXsXsXsXsXsXsXsXsXsXsXsXsXsXsXsX",
"sXsXsXsXsXsXsXsXsXsXsX        O > # O # O   .         O O .       > ,.H N <.<.<.k               sXsXsXsXsXsXsXsXsXsXsXsXsXsXsXsX",
"sXsXsXsXsXsXsXsXsXsXsXsX        . F Y F                               O 2 N <.z     . 5 +         sXsXsXsXsXsXsXsXsXsXsXsXsXsXsX",
"sXsXsXsX            sXsXsXsX      :.C.C.x.      sXsX        sXsX      O . O >       U C.C.:.+       sXsXsXsXsXsXsXsXsXsXsXsXsXsX",
"sXsXsX                  sXsXsX    @ A.C.C.Z     sXsXsXsXsXsXsXsX      XX4X4.O X   L C.C.C.C.c.g       sXsXsXsXsXsXsXsXsXsXsXsXsX",
"sXsX    O ,.p.t.k .       sXsX      U C.C.U     sXsXsXsXsXsXsXsX      oX3X;X3.  Z c.c.c.C.C.C.V.6       sXsXsXsXsXsXsXsXsXsXsXsX",
"sX      t.6X6X6X7X$XO       sXsX    D C.C.d.      sXsXsXsXsXsXsXsX    , l 1     + + + @ g C.C.C.V.<     sXsXsXsXsXsXsXsXsXsXsXsX",
"sX      x i.6X6X6X6X*X2             Y C.C.d.      sXsXsXsXsXsXsXsX                        Z C.C.C.Y       sXsXsXsXsXsXsXsXsXsXsX",
"sXsX        z 7X6X6X6X7Xk         . x.C.C.I     sXsXsXsXsXsXsXsXsXsXsX                    . c.C.C.n.      sXsXsXsXsXsXsXsXsXsXsX",
"sXsXsX        O 5.*X6X6X*X2       L C.C.C.Z     sXsXsXsXsXsXsXsXsXsXsXsXsXsXsXsX            I C.C.C.      sXsXsXsXsXsXsXsXsXsXsX",
"sXsXsXsXsX        O $X7X6X=XO   G C.C.C.C.+     sXsXsXsXsXsXsXsXsXsXsXsXsX                  . 5 C L       sXsXsXsXsXsXsXsXsXsXsX",
"sXsXsXsXsXsXsX        k i.6Xi.  9 C.C.C.9     sXsXsXsXsXsXsXsXsXsXsXsXsX          j N m m N N k O         sXsXsXsXsXsXsXsXsXsXsX",
"sXsXsXsXsXsXsXsX          m *X2.  h.Z.G       sXsXsXsXsXsXsXsXsXsXsXsX      , t.7X6X6X6X6X6X6X6X6Xa..       sXsXsXsXsXsXsXsXsXsX",
"sXsXsXsXsXsXsXsXsXsX        O 2   0 6       sXsXsXsXsXsXsXsXsXsXsXsXsX    z *X6X6X6X7X6X6X6X*X6.2 ;         sXsXsXsXsXsXsXsXsXsX",
"sXsXsXsXsXsXsXsXsXsXsXsX                  sXsXsXsXsXsXsXsXsXsXsXsXsXsX    a.6X6X6X6X*Xi.5.2               sXsXsXsXsXsXsXsXsXsXsX",
"sXsXsXsXsXsXsXsXsXsXsXsXsXsX            sXsXsXsXsXsXsXsXsXsXsXsXsXsXsX  . i.6X=X5.;                 sXsXsXsXsXsXsXsXsXsXsXsXsXsX",
"sXsXsXsXsXsXsXsXsXsXsXsXsXsXsXsX  sXsXsXsXsXsXsXsXsXsXsXsXsXsXsXsXsXsX    j ,                 sXsXsXsXsXsXsXsXsXsXsXsXsXsXsXsXsX",
"sXsXsXsXsXsXsXsXsXsXsXsXsXsXsXsXsXsXsXsXsXsXsXsXsXsXsXsXsXsXsXsXsXsXsX                sXsXsXsXsXsXsXsXsXsXsXsXsXsXsXsXsXsXsXsXsX",
"sXsXsXsXsXsXsXsXsXsXsXsXsXsXsXsXsXsXsXsXsXsXsXsXsXsXsXsXsXsXsXsXsXsXsXsX        sXsXsXsXsXsXsXsXsXsXsXsXsXsXsXsXsXsXsXsXsXsXsXsX"
};
