/* XPM */
static char *result[] = {
/* columns rows colors chars-per-pixel */
"60 60 16 1 ",
"  c #150F0B",
". c #2D1310",
"X c #3B1821",
"o c #581D21",
"O c #502434",
"+ c #513234",
"@ c #58393B",
"# c #702321",
"$ c #783827",
"% c #784F2E",
"& c #595042",
"* c #81573B",
"= c #B5552E",
"- c #C84C28",
"; c #DC7F28",
": c #6286CA",
/* pixels */
"::::::::::::::::::::::::::::::::::::::::::::::::::::::::::::",
"::::::::::::::::::::::::::::::::::::::::::::::::::::::::::::",
"::::::::::::::::::::::::::::::::::::::::::::::::::::::::::::",
":::::::::::::::::::          :::::::::::::::::::::::::::::::",
"::::::::::::::::   @********@      :::::::::::::::::::::::::",
"::::::::::::::: .@*;;;;;=========@.   ::::::::::::::::::::::",
":::::::::::::: @*;;;;;;;;===========&.   :::::::::::::::::::",
":::::::::::::: *;;;=;;;;=;=============*. ::::::::::::::::::",
"::::::::::::: $;;;;;;;;;;;;;;;;;;;;;;;;;$. :::::::::::::::::",
":::::::::::: .;;;;;;;;;;;;;;;;;;;;;;;;;;;-% ::::::::::::::::",
":::::::::::: $;;;;;;;;;;;;;;;--------;;;;--% :::::::::::::::",
"::::::::::: .;;;;;;;;;;------%$#####$-;;;;--% ::::::::::::::",
"::::::::::: -;;;;;;;;-------%$#######$-;;;---% :::::::::::::",
":::::::::: #;;;;;;;=========$#########$;;;;---% ::::::::::::",
"::::::::: #-;;;;;;=*********@o$$$$$$$#$-;;;;;--%    ::::::::",
"::::::::: -;;;;;-***********&@@@@@@$$$%--;;;;;;;;;-$.  :::::",
":::::::: $;;;;;=*************&@@@@@@@&====;;;;;;;;;;;;$. :::",
"::::::  .;;;;;-***************&&&&&&&****==;;;;;;;;;;;;-. ::",
":::   .$;;;;;;****************************==-;;;;;;;;;;;-. :",
":: #$-;;;;;;;=*****************************==--;;;;;;;;;;- :",
": $%%;;;;;;;********&****************&&&****%%%%%-----;;;;. ",
" $%%%-;;;;;=************************&&&&&**&*==--%------;;$ ",
"#%$%%%-;-%=*************************&&&&&****@$$$--------;$.",
"%$%$%%$$$%=****@*********************&&&***&@++o#$--------$#",
"$%$%$$$$$=*****=********************=******@+OOOoo$==--$--$#",
"%$$$$$$$%****************************==****@+OOOO+@*===;--$#",
"$%$$$$$$=*******&&&&&**********************@@+OO+@@****===$#",
"%$$$$$$$*******&*****&********************=*@@@@@@*=*****=$#",
"$$$$$$@@******&**@@@@**********************=*@@@@*=*******$#",
"$$$@@@@@*****&**@+OO+@*****&****************=****=*******@+o",
"$$@@@@@@*****&*&+OOOO+@**********************=;;=********@Oo",
"o@@@@@@@*******@+OOOO+@***&*&******&*********************@Oo",
"O@@@@@@@&******@@+OO+@@****&*&***************************+OO",
".@@@@@@@@*****=*@@@@@@*=**&*&*&**********************&*&@+OO",
" +@@@@@@@&*****=*@@@@*=**&*&*&*&********************&*&@+OO.",
" .@@@@@@@@&*****=****=**&*&&&&&******************&*&*&@+OOO ",
": +@@+@@@@@&*****=;;=**&&&&&&&&&*&*&*&**@*****&*&*&&&@+OOO. ",
": O+@*@@@@@@&*********&&&&&&&&&&&*&*&*&*=***&**&*&&&@+OOOO :",
":: .+@@@@@@@@&*****&&&&&&&&&&&&&&&&&&&&&*&*&*&&&&&&@+OOOO. :",
"::: OO+@@@@@@@@&&&&&&&&&&&&&&&&&&&&&&&&&&&&*&&&&&&@+OOOO. ::",
":::: OOOO+++++@@@@&&&&&&@&&&&&&&&&&&&&&&&&&&&&&&&@+OOOO. :::",
"::::: .OOOOOOOOOOOO+@&&&*&&&&&@+OOOO+@&&&&&&&&&&@+OOOO. ::::",
"::::::   .OOOOOOOOOOOO+@&&&&&@+OOOOOOO@&&&&&&&&@+OOO.  :::::",
":::::::::      .OOOOOOOO@&&&@+OOOOOOO+O@&&&&&@+OOO.  :::::::",
":::::::::::::::  .OOOOOOOOOOOO+OOOOOO@OO+@@@+OOO.  :::::::::",
"::::::::::::::::: .OOOOOOOOOOO@OOOOOO@OOOOOOOOO. :::::::::::",
":::::::::::::::::: .OOOOOOOOOO+@OOOO@+OOOOOOOO. ::::::::::::",
"::::::::::::::::::: .O+OOOOOOOO+@&&@+OOOOOO+O. :::::::::::::",
":::::::::::::::::::: .O+@@OOOOOOOOOOOOOO+@@OO ::::::::::::::",
":::::::::::::::::::::  .OO@&&@OOOOOOO+@@@OO. :::::::::::::::",
":::::::::::::::::::::::  .XOO@&&&@@@@@OOOX. ::::::::::::::::",
":::::::::::::::::::::::::    .XOOOOOOOOX.  :::::::::::::::::",
":::::::::::::::::::::::::::::            :::::::::::::::::::",
"::::::::::::::::::::::::::::::::::::::::::::::::::::::::::::",
"::::::::::::::::::::::::::::::::::::::::::::::::::::::::::::",
"::::::::::::::::::::::::::::::::::::::::::::::::::::::::::::",
"::::::::::::::::::::::::::::::::::::::::::::::::::::::::::::",
"::::::::::::::::::::::::::::::::::::::::::::::::::::::::::::",
"::::::::::::::::::::::::::::::::::::::::::::::::::::::::::::",
"::::::::::::::::::::::::::::::::::::::::::::::::::::::::::::"
};
